<svg width="31" height="31" viewBox="0 0 31 31" fill="none" xmlns="http://www.w3.org/2000/svg">
<path d="M30.195 27.844L24.3221 22.078C26.3937 19.4066 27.3543 16.0623 27.0095 12.7219C26.6647 9.3815 25.0403 6.29443 22.4649 4.08541C19.8896 1.8764 16.5556 0.710417 13.1378 0.823428C9.71997 0.936438 6.47349 2.32 4.05534 4.69412C1.63719 7.06825 0.22798 10.2556 0.112873 13.6112C-0.0022326 16.9669 1.18537 20.2401 3.43534 22.7686C5.68532 25.2971 8.82963 26.8919 12.232 27.2305C15.6343 27.569 19.0406 26.6259 21.7615 24.592L27.6365 30.354C27.8008 30.5334 28.0007 30.6781 28.2239 30.7793C28.4471 30.8805 28.6889 30.936 28.9347 30.9424C29.1804 30.9488 29.4249 30.9061 29.6533 30.8167C29.8817 30.7274 30.0891 30.5934 30.263 30.4228C30.4369 30.2522 30.5736 30.0486 30.6648 29.8245C30.756 29.6003 30.7997 29.3603 30.7933 29.119C30.787 28.8778 30.7307 28.6403 30.6278 28.4211C30.5249 28.2019 30.3777 28.0055 30.195 27.844ZM6.66672 20.915C5.0582 19.3355 4.05724 17.2574 3.8344 15.0346C3.61156 12.8118 4.18063 10.582 5.44463 8.72496C6.70864 6.86794 8.58938 5.49867 10.7664 4.85047C12.9434 4.20226 15.282 4.31522 17.3837 5.1701C19.4854 6.02497 21.2202 7.56888 22.2924 9.53874C23.3646 11.5086 23.708 13.7825 23.264 15.9731C22.82 18.1637 21.6161 20.1353 19.8575 21.5521C18.0988 22.9689 15.8942 23.7432 13.6193 23.743C11.0118 23.7414 8.51135 22.7244 6.66672 20.915Z" fill="#C3D620"/>
</svg>
