<svg width="59" height="59" viewBox="0 0 59 59" fill="none" xmlns="http://www.w3.org/2000/svg">
<path d="M42.5 27.5C43.3 25.1 43.5 10.5 43.5 3.5H15.5C16 11.5 17 28 17 30C17 32.5 24 41 31.5 39C39 37 41.5 30.5 42.5 27.5Z" fill="#FCB21D"/>
<path d="M29 47C33.4 47 37.1667 52 38.5 54.5H21C21.8333 52 24.6 47 29 47Z" fill="#FCB21D"/>
<path d="M4.55719 8.65248C3.70735 9.56536 3.27162 10.8014 3.35984 12.033L4.11607 23.4331C4.34835 26.7632 7.14098 29.3713 10.472 29.3713H14.5905C16.3197 35.3508 21.4822 39.7067 27.6563 40.4403V45.1167C22.8882 45.9899 19.2604 50.1795 19.2604 55.3125C19.2604 56.3307 20.085 57.1562 21.1041 57.1562H37.8959C38.915 57.1562 39.7397 56.1993 39.7397 55.1811C39.7397 50.1649 36.1118 45.9883 31.3438 45.1165V40.4403C37.5237 39.7062 42.6905 35.3444 44.4121 29.3713H48.5281C51.8591 29.3713 54.6517 26.7632 54.884 23.4277L55.6402 12.0384C55.7267 10.7978 55.2909 9.56445 54.4429 8.65248C53.5894 7.7351 52.3813 7.20936 51.1281 7.20936H46.0646L46.2558 3.78924C46.2846 3.28329 46.1028 2.78814 45.7553 2.41992C45.406 2.05261 44.9216 1.84375 44.4157 1.84375H14.5844C14.0784 1.84375 13.5941 2.05261 13.2448 2.41992C12.8973 2.78814 12.7154 3.28328 12.7442 3.78924L12.9354 7.20936H7.87198C6.61882 7.20936 5.41064 7.7351 4.55719 8.65248ZM35.8253 53.4688H23.1748C23.9292 50.6833 26.4787 48.6289 29.5 48.6289C32.5213 48.6289 35.0709 50.6833 35.8253 53.4688ZM45.8633 10.8969H51.1281C51.4468 10.8969 51.6502 11.0643 51.7439 11.1651C51.8339 11.2624 51.9833 11.4712 51.9617 11.7782C51.9617 11.7818 51.9599 11.7845 51.9599 11.7881L51.2037 23.1774C51.1065 24.5827 49.9307 25.6838 48.5281 25.6838H45.0316L45.8633 10.8969ZM42.4675 5.53125L41.3404 25.6631C41.3098 26.1717 41.2449 26.6813 41.1459 27.1944C40.1142 32.804 35.2167 36.875 29.5 36.875C23.7833 36.875 18.8859 32.804 17.8506 27.1737C17.7551 26.6822 17.5843 24.3246 17.5843 24.3246L16.5326 5.53125H42.4675ZM13.9679 25.6838H10.472C9.06934 25.6838 7.89358 24.5827 7.79636 23.1828L7.03834 11.7782C7.01673 11.4712 7.16617 11.2624 7.2562 11.1651C7.34983 11.0643 7.55328 10.8968 7.87198 10.8968H13.1367L13.9679 25.6838Z" fill="#F76818"/>
</svg>
