<svg width="18" height="18" viewBox="0 0 18 18" fill="none" xmlns="http://www.w3.org/2000/svg">
<path d="M8.75 0.464966C7.01942 0.464966 5.32769 0.978144 3.88876 1.93961C2.44983 2.90107 1.32832 4.26763 0.666058 5.86649C0.00379121 7.46534 -0.169488 9.22467 0.168133 10.922C0.505753 12.6193 1.33911 14.1784 2.56282 15.4022C3.78653 16.6259 5.34563 17.4592 7.04296 17.7968C8.7403 18.1345 10.4996 17.9612 12.0985 17.2989C13.6973 16.6366 15.0639 15.5151 16.0254 14.0762C16.9868 12.6373 17.5 10.9456 17.5 9.21497C17.5 6.89432 16.5781 4.66873 14.9372 3.02778C13.2962 1.38684 11.0706 0.464966 8.75 0.464966ZM8.75 16.374C7.33409 16.374 5.94997 15.9541 4.77268 15.1675C3.59539 14.3808 2.6778 13.2627 2.13595 11.9546C1.5941 10.6465 1.45233 9.20702 1.72856 7.81831C2.00479 6.4296 2.68662 5.15399 3.68783 4.15279C4.68903 3.15158 5.96464 2.46976 7.35335 2.19352C8.74206 1.91729 10.1815 2.05906 11.4896 2.60091C12.7978 3.14276 13.9159 4.06035 14.7025 5.23764C15.4891 6.41493 15.909 7.79905 15.909 9.21497C15.909 11.1137 15.1548 12.9346 13.8122 14.2771C12.4696 15.6197 10.6487 16.374 8.75 16.374Z" fill="#FCB21D"/>
<path d="M9.54608 8.88596V4.44696C9.52516 4.25056 9.43233 4.06885 9.28547 3.9368C9.1386 3.80475 8.94808 3.73169 8.75058 3.73169C8.55308 3.73169 8.36255 3.80475 8.21569 3.9368C8.06882 4.06885 7.976 4.25056 7.95508 4.44696V9.21996C7.9557 9.43066 8.03943 9.63262 8.18808 9.78196L10.5741 12.168C10.6446 12.2553 10.7326 12.3268 10.8326 12.3778C10.9325 12.4289 11.042 12.4583 11.1541 12.4643C11.2661 12.4702 11.3782 12.4525 11.4829 12.4124C11.5877 12.3722 11.6829 12.3104 11.7622 12.2311C11.8416 12.1517 11.9033 12.0566 11.9435 11.9518C11.9837 11.8471 12.0014 11.735 11.9954 11.623C11.9894 11.5109 11.96 11.4014 11.9089 11.3014C11.8579 11.2015 11.7864 11.1134 11.6991 11.043L9.54608 8.88596Z" fill="#FCB21D"/>
</svg>
