<svg width="41" height="41" viewBox="0 0 41 41" fill="none" xmlns="http://www.w3.org/2000/svg">
<path d="M27.6307 26.9463C27.2655 26.9463 26.9694 27.2423 26.9694 27.6075V39.6774H7.49462V34.1667C7.49462 33.8015 7.19854 33.5054 6.83333 33.5054H1.32258V1.32258H26.9694V13.3925C26.9694 13.7577 27.2655 14.0537 27.6307 14.0537C27.9959 14.0537 28.292 13.7577 28.292 13.3925V0.66129C28.292 0.296082 27.9959 0 27.6307 0H0.66129C0.296082 0 0 0.296082 0 0.66129V34.1667C0 34.1888 0.00114624 34.2108 0.00335054 34.2327C0.00493763 34.2488 0.00767097 34.2644 0.0104043 34.2801C0.0113742 34.2856 0.0119032 34.2913 0.0129613 34.2969C0.0166645 34.3154 0.0214258 34.3336 0.026628 34.3515C0.0274215 34.3541 0.0278624 34.3569 0.0286559 34.3595C0.0342107 34.3778 0.0408237 34.3956 0.0478774 34.4131C0.0488473 34.4155 0.0495527 34.418 0.0505226 34.4203C0.0574 34.4369 0.0653355 34.4531 0.0735355 34.469C0.0752108 34.4723 0.0765333 34.4756 0.0782968 34.4789C0.0861441 34.4936 0.0949613 34.5077 0.103955 34.5216C0.1066 34.5259 0.108981 34.5303 0.111714 34.5344C0.120619 34.5477 0.130495 34.5604 0.140282 34.5731C0.14372 34.5775 0.146718 34.5821 0.150245 34.5864C0.164 34.603 0.17846 34.6192 0.193714 34.6344L6.36549 40.8062C6.38075 40.8214 6.39679 40.836 6.41355 40.8498C6.41787 40.8533 6.42254 40.8563 6.42686 40.8597C6.43947 40.8696 6.45217 40.8794 6.46548 40.8883C6.46962 40.8911 6.47403 40.8934 6.47826 40.896C6.49228 40.9049 6.50639 40.9138 6.52112 40.9217C6.52429 40.9235 6.52773 40.9248 6.53099 40.9265C6.54695 40.9347 6.56309 40.9426 6.57966 40.9495C6.58204 40.9504 6.58451 40.9512 6.5868 40.952C6.60435 40.9591 6.62216 40.9657 6.64041 40.9713C6.64306 40.972 6.64579 40.9726 6.64844 40.9733C6.66633 40.9786 6.6845 40.9833 6.70301 40.987C6.70857 40.9882 6.7143 40.9886 6.71985 40.9896C6.73555 40.9923 6.75116 40.9951 6.7672 40.9967C6.78907 40.9989 6.81111 41 6.83324 41H27.6306C27.9959 41 28.2919 40.7039 28.2919 40.3387V27.6075C28.292 27.2423 27.9959 26.9463 27.6307 26.9463ZM6.17204 38.7423L2.25773 34.828H6.17204V38.7423Z" fill="#FCC020"/>
<path d="M23.2215 35.7098C23.5867 35.7098 23.8828 35.4137 23.8828 35.0485C23.8828 34.6833 23.5867 34.3872 23.2215 34.3872H17.5431C17.1779 34.3872 16.8818 34.6833 16.8818 35.0485C16.8818 35.4137 17.1779 35.7098 17.5431 35.7098H23.2215Z" fill="#FCC020"/>
<path d="M23.2222 6.17188H5.06998C4.70477 6.17188 4.40869 6.46796 4.40869 6.83317C4.40869 7.19837 4.70477 7.49446 5.06998 7.49446H23.2222C23.5874 7.49446 23.8835 7.19837 23.8835 6.83317C23.8835 6.46796 23.5874 6.17188 23.2222 6.17188Z" fill="#FCC020"/>
<path d="M23.2222 9.69897H5.06998C4.70477 9.69897 4.40869 9.99506 4.40869 10.3603C4.40869 10.7255 4.70477 11.0216 5.06998 11.0216H23.2222C23.5874 11.0216 23.8835 10.7255 23.8835 10.3603C23.8835 9.99506 23.5874 9.69897 23.2222 9.69897Z" fill="#FCC020"/>
<path d="M23.2222 13.2256H5.06998C4.70477 13.2256 4.40869 13.5217 4.40869 13.8869C4.40869 14.2521 4.70477 14.5482 5.06998 14.5482H23.2222C23.5874 14.5482 23.8835 14.2521 23.8835 13.8869C23.8835 13.5217 23.5874 13.2256 23.2222 13.2256Z" fill="#FCC020"/>
<path d="M23.8835 17.414C23.8835 17.0488 23.5874 16.7527 23.2222 16.7527H5.06998C4.70477 16.7527 4.40869 17.0488 4.40869 17.414C4.40869 17.7792 4.70477 18.0753 5.06998 18.0753H23.2222C23.5874 18.0753 23.8835 17.7792 23.8835 17.414Z" fill="#FCC020"/>
<path d="M20.7436 20.9408C20.7436 20.5756 20.4475 20.2795 20.0823 20.2795H5.06998C4.70477 20.2795 4.40869 20.5756 4.40869 20.9408C4.40869 21.306 4.70477 21.6021 5.06998 21.6021H20.0824C20.4476 21.6021 20.7436 21.306 20.7436 20.9408Z" fill="#FCC020"/>
<path d="M5.06998 23.8064C4.70477 23.8064 4.40869 24.1025 4.40869 24.4677C4.40869 24.8329 4.70477 25.129 5.06998 25.129H14.1461C14.5114 25.129 14.8074 24.8329 14.8074 24.4677C14.8074 24.1025 14.5114 23.8064 14.1461 23.8064H5.06998Z" fill="#FCC020"/>
<path d="M40.1093 8.02054C39.5354 7.44671 38.7716 7.13062 37.9583 7.13062C37.145 7.13062 36.3812 7.44662 35.8073 8.02045L33.7499 10.0779H33.7498H33.7498L31.8795 11.9482C31.8795 11.9482 31.8794 11.9482 31.8794 11.9482L18.5113 25.3165C18.4927 25.3351 18.4759 25.3547 18.46 25.3748C18.456 25.38 18.4523 25.3855 18.4483 25.3908C18.4364 25.4068 18.4252 25.4232 18.415 25.44C18.4131 25.443 18.4109 25.4456 18.4091 25.4486L14.5146 32.0631C14.3501 32.2605 14.2607 32.5069 14.2607 32.767C14.2607 33.0614 14.3754 33.3382 14.5835 33.5463C14.7917 33.7545 15.0685 33.8691 15.3629 33.8691C15.623 33.8691 15.8694 33.7796 16.0668 33.6153L22.6813 29.7207C22.6843 29.7189 22.687 29.7167 22.6901 29.7148C22.7068 29.7046 22.7231 29.6935 22.739 29.6817C22.7444 29.6777 22.7499 29.6739 22.7551 29.6698C22.7753 29.6539 22.7948 29.6371 22.8133 29.6185L36.1813 16.2504C36.1813 16.2504 36.1814 16.2504 36.1814 16.2503C36.1814 16.2502 36.1815 16.2502 36.1815 16.2502L38.0518 14.3799H38.0519L40.1093 12.3225C41.2953 11.1364 41.2953 9.20654 40.1093 8.02054ZM35.7138 14.8475L33.2823 12.4159L34.2175 11.4808L36.6491 13.9123L35.7138 14.8475ZM22.3457 28.2156L19.9142 25.7841L32.3471 13.3512L34.7786 15.7827L22.3457 28.2156ZM18.5271 30.6318L17.4981 29.6028L19.1154 26.8558L21.274 29.0145L18.5271 30.6318ZM16.0246 32.1053L16.8049 30.7799L17.3499 31.3249L16.0246 32.1053ZM39.1741 11.3872L37.5843 12.977L35.1527 10.5455L36.7426 8.9556C37.0666 8.63157 37.4984 8.45311 37.9584 8.45311C38.4184 8.45311 38.8501 8.63157 39.1742 8.9556C39.4982 9.27963 39.6767 9.71141 39.6767 10.1714C39.6767 10.6314 39.4981 11.0633 39.1741 11.3872Z" fill="#FCC020"/>
</svg>
