<svg width="54" height="44" viewBox="0 0 54 44" fill="none" xmlns="http://www.w3.org/2000/svg">
<path d="M50.2031 0.90625H3.79688C3.01392 0.907115 2.26329 1.21853 1.70966 1.77216C1.15603 2.32579 0.844615 3.07642 0.84375 3.85938V40.1406C0.844615 40.9236 1.15603 41.6742 1.70966 42.2278C2.26329 42.7815 3.01392 43.0929 3.79688 43.0938H50.2031C50.9861 43.0929 51.7367 42.7815 52.2903 42.2278C52.844 41.6742 53.1554 40.9236 53.1562 40.1406V3.85938C53.1554 3.07642 52.844 2.32579 52.2903 1.77216C51.7367 1.21853 50.9861 0.907115 50.2031 0.90625ZM51.4688 40.1406C51.4685 40.4762 51.335 40.798 51.0977 41.0352C50.8605 41.2725 50.5387 41.406 50.2031 41.4062H3.79688C3.4613 41.406 3.13954 41.2725 2.90225 41.0352C2.66496 40.798 2.53153 40.4762 2.53125 40.1406V36.3438H51.4688V40.1406ZM51.4688 34.6562H2.53125V7.65625H51.4688V34.6562ZM51.4688 5.96875H2.53125V3.85938C2.53153 3.5238 2.66496 3.20204 2.90225 2.96475C3.13954 2.72746 3.4613 2.59403 3.79688 2.59375H50.2031C50.5387 2.59403 50.8605 2.72746 51.0977 2.96475C51.335 3.20204 51.4685 3.5238 51.4688 3.85938V5.96875Z" fill="#FCC020"/>
<path d="M4.21875 5.125H5.0625C5.28628 5.125 5.50089 5.03611 5.65912 4.87787C5.81735 4.71964 5.90625 4.50503 5.90625 4.28125C5.90625 4.05747 5.81735 3.84286 5.65912 3.68463C5.50089 3.5264 5.28628 3.4375 5.0625 3.4375H4.21875C3.99497 3.4375 3.78036 3.5264 3.62213 3.68463C3.4639 3.84286 3.375 4.05747 3.375 4.28125C3.375 4.50503 3.4639 4.71964 3.62213 4.87787C3.78036 5.03611 3.99497 5.125 4.21875 5.125Z" fill="#FCC020"/>
<path d="M7.59375 5.125H8.4375C8.66128 5.125 8.87589 5.03611 9.03412 4.87787C9.19235 4.71964 9.28125 4.50503 9.28125 4.28125C9.28125 4.05747 9.19235 3.84286 9.03412 3.68463C8.87589 3.5264 8.66128 3.4375 8.4375 3.4375H7.59375C7.36997 3.4375 7.15536 3.5264 6.99713 3.68463C6.8389 3.84286 6.75 4.05747 6.75 4.28125C6.75 4.50503 6.8389 4.71964 6.99713 4.87787C7.15536 5.03611 7.36997 5.125 7.59375 5.125Z" fill="#FCC020"/>
<path d="M10.9688 5.125H11.8125C12.0363 5.125 12.2509 5.03611 12.4091 4.87787C12.5674 4.71964 12.6562 4.50503 12.6562 4.28125C12.6562 4.05747 12.5674 3.84286 12.4091 3.68463C12.2509 3.5264 12.0363 3.4375 11.8125 3.4375H10.9688C10.745 3.4375 10.5304 3.5264 10.3721 3.68463C10.2139 3.84286 10.125 4.05747 10.125 4.28125C10.125 4.50503 10.2139 4.71964 10.3721 4.87787C10.5304 5.03611 10.745 5.125 10.9688 5.125Z" fill="#FCC020"/>
<path d="M27 12.7188C25.1643 12.7188 23.3699 13.2631 21.8436 14.2829C20.3173 15.3028 19.1277 16.7523 18.4252 18.4482C17.7228 20.1441 17.539 22.0103 17.8971 23.8107C18.2552 25.6111 19.1392 27.2648 20.4372 28.5628C21.7352 29.8608 23.3889 30.7448 25.1893 31.1029C26.9897 31.461 28.8559 31.2772 30.5518 30.5748C32.2477 29.8723 33.6972 28.6827 34.7171 27.1564C35.7369 25.6301 36.2813 23.8357 36.2813 22C36.2785 19.5393 35.2997 17.1802 33.5598 15.4402C31.8198 13.7003 29.4607 12.7215 27 12.7188ZM27 29.5937C25.4981 29.5937 24.0299 29.1484 22.7811 28.314C21.5324 27.4796 20.559 26.2936 19.9843 24.906C19.4095 23.5184 19.2592 21.9916 19.5522 20.5185C19.8452 19.0455 20.5684 17.6924 21.6304 16.6304C22.6924 15.5684 24.0455 14.8452 25.5185 14.5522C26.9916 14.2592 28.5184 14.4095 29.906 14.9843C31.2936 15.559 32.4796 16.5324 33.314 17.7811C34.1484 19.0299 34.5938 20.4981 34.5938 22C34.5914 24.0133 33.7906 25.9434 32.367 27.367C30.9434 28.7906 29.0133 29.5914 27 29.5937Z" fill="#FCC020"/>
<path d="M30.8433 21.2975L25.7808 17.9225C25.6536 17.8381 25.5059 17.7897 25.3534 17.7824C25.2009 17.7752 25.0494 17.8094 24.9148 17.8815C24.7802 17.9536 24.6676 18.0607 24.5891 18.1916C24.5106 18.3226 24.469 18.4723 24.4688 18.625V25.375C24.4689 25.5277 24.5104 25.6775 24.5889 25.8085C24.6674 25.9394 24.78 26.0467 24.9146 26.1187C25.0492 26.1908 25.2009 26.225 25.3534 26.2178C25.5059 26.2105 25.6536 26.162 25.7808 26.0774L30.8433 22.7024C30.9588 22.6252 31.0535 22.5207 31.119 22.3982C31.1845 22.2757 31.2187 22.1389 31.2187 22C31.2187 21.861 31.1845 21.7243 31.119 21.6017C31.0535 21.4792 30.9588 21.3747 30.8433 21.2975ZM26.1563 23.7982V20.2017L28.8541 22L26.1563 23.7982Z" fill="#FCC020"/>
<path d="M46.4062 38.0312H12.6562C12.6562 37.8075 12.5674 37.5929 12.4091 37.4346C12.2509 37.2764 12.0363 37.1875 11.8125 37.1875C11.5887 37.1875 11.3741 37.2764 11.2159 37.4346C11.0576 37.5929 10.9688 37.8075 10.9688 38.0312H7.59375C7.36997 38.0312 7.15536 38.1201 6.99713 38.2784C6.8389 38.4366 6.75 38.6512 6.75 38.875C6.75 39.0988 6.8389 39.3134 6.99713 39.4716C7.15536 39.6299 7.36997 39.7188 7.59375 39.7188H10.9688C10.9688 39.9425 11.0576 40.1571 11.2159 40.3154C11.3741 40.4736 11.5887 40.5625 11.8125 40.5625C12.0363 40.5625 12.2509 40.4736 12.4091 40.3154C12.5674 40.1571 12.6562 39.9425 12.6562 39.7188H46.4062C46.63 39.7188 46.8446 39.6299 47.0029 39.4716C47.1611 39.3134 47.25 39.0988 47.25 38.875C47.25 38.6512 47.1611 38.4366 47.0029 38.2784C46.8446 38.1201 46.63 38.0312 46.4062 38.0312Z" fill="#FCC020"/>
</svg>
