<svg width="96" height="93" viewBox="0 0 96 93" fill="none" xmlns="http://www.w3.org/2000/svg">
<path d="M68.25 29.5L67 43.5L55.25 50H37.5L28.75 41.5V29.5L16 22.75L17.25 17L48.75 1.5L57 5L79.25 17L80.5 22.75L68.25 29.5Z" fill="#FCB21D"/>
<path d="M93.6332 78.956H91.1962V29.476C91.1939 27.7334 90.5004 26.0629 89.268 24.8308C88.0356 23.5988 86.3649 22.9059 84.6222 22.904H81.3902C82.0142 21.6016 82.1102 20.1083 81.658 18.7368C81.2058 17.3653 80.2405 16.2219 78.9642 15.546L60.9552 6.00601C60.7954 5.92118 60.6205 5.86865 60.4403 5.85144C60.2602 5.83422 60.0785 5.85265 59.9055 5.90567C59.7325 5.95869 59.5716 6.04527 59.4321 6.16046C59.2925 6.27565 59.1771 6.41719 59.0922 6.57701C59.0074 6.73683 58.9549 6.91179 58.9377 7.09191C58.9204 7.27203 58.9389 7.45377 58.9919 7.62677C59.0449 7.79976 59.1315 7.96062 59.2467 8.10016C59.3619 8.23969 59.5034 8.35518 59.6632 8.44001L77.6722 17.98C78.1282 18.2218 78.5097 18.5832 78.7757 19.0254C79.0418 19.4676 79.1824 19.9739 79.1824 20.49C79.1824 21.0061 79.0418 21.5124 78.7757 21.9546C78.5097 22.3969 78.1282 22.7583 77.6722 23L60.1652 32.274L49.0362 19.582C48.917 19.446 48.7721 19.3349 48.6099 19.2549C48.4477 19.1749 48.2714 19.1276 48.0909 19.1157C47.9104 19.1039 47.7294 19.1277 47.5581 19.1859C47.3869 19.244 47.2287 19.3353 47.0927 19.4545C46.9568 19.5737 46.8456 19.7186 46.7656 19.8808C46.6856 20.043 46.6383 20.2194 46.6265 20.3999C46.6146 20.5803 46.6385 20.7614 46.6966 20.9326C46.7547 21.1039 46.846 21.262 46.9652 21.398L57.6652 33.598L51.0402 37.108C50.1037 37.6035 49.0602 37.8624 48.0007 37.8624C46.9412 37.8624 45.8978 37.6035 44.9612 37.108L18.3292 23C17.8733 22.7583 17.4918 22.3969 17.2257 21.9546C16.9597 21.5124 16.8191 21.0061 16.8191 20.49C16.8191 19.9739 16.9597 19.4676 17.2257 19.0254C17.4918 18.5832 17.8733 18.2218 18.3292 17.98L44.9602 3.87201C45.8965 3.37623 46.9398 3.11704 47.9992 3.11704C49.0587 3.11704 50.102 3.37623 51.0382 3.87201L54.8502 5.89201C55.0101 5.97671 55.185 6.02911 55.3651 6.0462C55.5451 6.0633 55.7268 6.04476 55.8997 5.99164C56.0726 5.93853 56.2333 5.85188 56.3728 5.73664C56.5122 5.6214 56.6275 5.47983 56.7122 5.32001C56.7969 5.16019 56.8493 4.98525 56.8664 4.80519C56.8835 4.62512 56.865 4.44345 56.8119 4.27055C56.7588 4.09764 56.6721 3.93689 56.5569 3.79748C56.4416 3.65806 56.3001 3.54271 56.1402 3.45801L52.3282 1.44001C50.9949 0.733745 49.509 0.364502 48.0002 0.364502C46.4914 0.364502 45.0055 0.733745 43.6722 1.44001L17.0392 15.547C15.7632 16.2231 14.7981 17.3665 14.3459 18.7379C13.8937 20.1094 13.9895 21.6026 14.6132 22.905H11.3782C9.63562 22.9069 7.96487 23.5998 6.73247 24.8318C5.50006 26.0639 4.80662 27.7344 4.80423 29.477V78.956H2.36723C2.1864 78.956 2.00734 78.9916 1.84028 79.0608C1.67321 79.13 1.52141 79.2315 1.39355 79.3593C1.26568 79.4872 1.16425 79.639 1.09505 79.8061C1.02585 79.9731 0.990234 80.1522 0.990234 80.333L0.990234 83.386C0.992881 85.7541 1.93478 88.0245 3.60928 89.699C5.28378 91.3735 7.55413 92.3154 9.92223 92.318H86.0782C88.4463 92.3154 90.7167 91.3735 92.3912 89.699C94.0657 88.0245 95.0076 85.7541 95.0102 83.386V80.333C95.0102 79.9678 94.8652 79.6176 94.6069 79.3593C94.3487 79.1011 93.9984 78.956 93.6332 78.956ZM59.8472 55.062L61.6472 58.172C61.7722 58.3886 61.8379 58.6343 61.8379 58.8843C61.8378 59.1344 61.7719 59.3801 61.6469 59.5966C61.5219 59.8131 61.342 59.993 61.1255 60.118C60.9089 60.2431 60.6633 60.3089 60.4132 60.309H59.2902C59.0402 60.3089 58.7945 60.2431 58.578 60.118C58.3614 59.993 58.1816 59.8131 58.0566 59.5966C57.9315 59.3801 57.8657 59.1344 57.8656 58.8843C57.8655 58.6343 57.9313 58.3886 58.0562 58.172L59.8472 55.062ZM61.2252 34.83L66.9252 31.811V37.28C66.9335 39.1834 66.4025 41.0503 65.3937 42.6645C64.385 44.2786 62.9397 45.5741 61.2252 46.401V34.83ZM48.0002 40.618C49.5092 40.617 50.9951 40.2469 52.3282 39.54L58.4702 36.287V47.467C50.8852 49.9695 42.6545 49.6715 35.2702 46.627C33.4268 45.8589 31.8532 44.5603 30.7493 42.8961C29.6453 41.2318 29.0609 39.2771 29.0702 37.28V31.81L43.6702 39.542C45.0041 40.2488 46.4907 40.6183 48.0002 40.618ZM7.55923 29.476C7.56056 28.4635 7.96351 27.4928 8.67967 26.777C9.39583 26.0612 10.3667 25.6588 11.3792 25.658H17.4642L24.3972 29.331H12.6082C12.243 29.331 11.8928 29.4761 11.6345 29.7343C11.3763 29.9926 11.2312 30.3428 11.2312 30.708V73.908C11.2312 74.2732 11.3763 74.6235 11.6345 74.8817C11.8928 75.1399 12.243 75.285 12.6082 75.285H19.8782C20.2436 75.285 20.5939 75.1399 20.8523 74.8816C21.1106 74.6232 21.2557 74.2729 21.2557 73.9075C21.2557 73.5422 21.1106 73.1918 20.8523 72.9335C20.5939 72.6751 20.2436 72.53 19.8782 72.53H13.9902V32.086H26.3222V37.28C26.3121 39.8219 27.0576 42.3094 28.4643 44.4267C29.8709 46.5439 31.8751 48.1953 34.2222 49.171C41.9274 52.3456 50.492 52.7645 58.4702 50.357V51.94L55.6702 56.797C55.3038 57.4323 55.111 58.1529 55.1112 58.8863C55.1115 59.6197 55.3047 60.3402 55.6715 60.9753C56.0384 61.6103 56.5659 62.1377 57.2011 62.5044C57.8363 62.871 58.5568 63.064 59.2902 63.064H60.4142C61.1479 63.064 61.8686 62.8709 62.5039 62.5041C63.1393 62.1373 63.6668 61.6097 64.0336 60.9743C64.4004 60.339 64.5935 59.6182 64.5934 58.8846C64.5933 58.151 64.4001 57.4303 64.0332 56.795L61.2332 51.938V49.394C61.4192 49.32 61.6062 49.247 61.7912 49.171C64.1384 48.1953 66.1426 46.5439 67.5492 44.4267C68.9558 42.3094 69.7014 39.8219 69.6912 37.28V32.086H82.0142V72.529H25.3902C25.0249 72.529 24.6745 72.6741 24.4162 72.9325C24.1579 73.1908 24.0127 73.5412 24.0127 73.9065C24.0127 74.2718 24.1579 74.6222 24.4162 74.8806C24.6745 75.1389 25.0249 75.284 25.3902 75.284H83.3902C83.7554 75.284 84.1057 75.1389 84.3639 74.8807C84.6222 74.6225 84.7672 74.2722 84.7672 73.907V30.707C84.767 30.342 84.6218 29.992 84.3636 29.734C84.1054 29.4759 83.7553 29.331 83.3902 29.331H71.6042L78.5372 25.658H84.6222C85.6348 25.6588 86.6056 26.0612 87.3218 26.777C88.038 27.4928 88.4409 28.4635 88.4422 29.476V78.956H7.55923V29.476ZM56.5172 81.711C56.2614 82.4539 55.7804 83.0986 55.1411 83.5552C54.5017 84.0119 53.7359 84.2579 52.9502 84.259H43.0502C42.2644 84.2581 41.4983 84.0122 40.8588 83.5555C40.2193 83.0988 39.7381 82.4541 39.4822 81.711H56.5172ZM92.2562 83.386C92.2544 85.024 91.6029 86.5943 90.4447 87.7525C89.2865 88.9107 87.7162 89.5622 86.0782 89.564H9.92223C8.2843 89.5622 6.71397 88.9107 5.55578 87.7525C4.39758 86.5943 3.74609 85.024 3.74423 83.386V81.71H36.6442C36.931 83.2001 37.7274 84.544 38.8968 85.5111C40.0663 86.4781 41.5358 87.0081 43.0532 87.01H52.9532C54.4707 87.0081 55.9402 86.4781 57.1096 85.5111C58.279 84.544 59.0755 83.2001 59.3622 81.71H92.2622L92.2562 83.386Z" fill="#F76818"/>
<path d="M48.4163 67.479C48.4163 67.1138 48.2713 66.7636 48.013 66.5054C47.7548 66.2471 47.4045 66.1021 47.0393 66.1021H19.4673C19.102 66.1021 18.7516 66.2472 18.4933 66.5055C18.235 66.7638 18.0898 67.1142 18.0898 67.4796C18.0898 67.8449 18.235 68.1953 18.4933 68.4536C18.7516 68.7119 19.102 68.8571 19.4673 68.8571H47.0393C47.2203 68.8571 47.3994 68.8214 47.5665 68.7521C47.7337 68.6829 47.8855 68.5813 48.0134 68.4534C48.1413 68.3254 48.2427 68.1735 48.3118 68.0063C48.381 67.8391 48.4165 67.6599 48.4163 67.479Z" fill="#F76818"/>
<path d="M19.4673 63.064H37.9023C38.2677 63.064 38.6181 62.9188 38.8764 62.6605C39.1347 62.4022 39.2798 62.0518 39.2798 61.6865C39.2798 61.3211 39.1347 60.9708 38.8764 60.7124C38.6181 60.4541 38.2677 60.309 37.9023 60.309H19.4673C19.102 60.309 18.7516 60.4541 18.4933 60.7124C18.235 60.9708 18.0898 61.3211 18.0898 61.6865C18.0898 62.0518 18.235 62.4022 18.4933 62.6605C18.7516 62.9188 19.102 63.064 19.4673 63.064Z" fill="#F76818"/>
</svg>
