<svg width="131" height="109" viewBox="0 0 131 109" fill="none" xmlns="http://www.w3.org/2000/svg">
<path d="M20.5 38C26.8513 38 32 32.8513 32 26.5C32 20.1487 26.8513 15 20.5 15C14.1487 15 9 20.1487 9 26.5C9 32.8513 14.1487 38 20.5 38Z" fill="#FCB21D"/>
<path d="M8.094 84.2119H69.54C70.7779 89.5641 73.4136 94.4921 77.1781 98.493C80.9425 102.494 85.701 105.425 90.968 106.986C96.235 108.547 101.822 108.683 107.159 107.38C112.495 106.077 117.391 103.382 121.346 99.5689C125.3 95.756 128.173 90.9622 129.67 85.6766C131.167 80.391 131.235 74.8029 129.867 69.4824C128.499 64.1619 125.744 59.2996 121.884 55.3915C118.023 51.4834 113.194 48.6695 107.891 47.2369V9.02491C107.889 6.87925 107.037 4.82189 105.52 3.3044C104.003 1.78691 101.946 0.933292 99.8 0.930908H8.094C5.94783 0.932497 3.89001 1.78577 2.37243 3.30334C0.854858 4.82092 0.00158917 6.87874 0 9.02491L0 76.1169C0.00158917 78.2631 0.854858 80.3209 2.37243 81.8385C3.89001 83.356 5.94783 84.2103 8.094 84.2119ZM93.14 46.8809C90.6538 47.4208 88.2436 48.2652 85.964 49.3949V32.1829H93.14V46.8809ZM98.251 49.2809V54.5369C92.7646 54.8974 87.5963 57.2396 83.7085 61.1274C79.8207 65.0152 77.4785 70.1836 77.118 75.6699H71.853C72.2209 68.7876 75.1205 62.2844 79.994 57.4109C84.8674 52.5374 91.3707 49.6379 98.253 49.2699L98.251 49.2809ZM99.784 96.8809C95.6744 96.8807 91.668 95.5932 88.3276 93.1993C84.9872 90.8054 82.4805 87.4253 81.1597 83.5338C79.8388 79.6422 79.77 75.4346 80.9631 71.502C82.1561 67.5693 84.551 64.1091 87.8114 61.6074C91.0718 59.1056 95.034 57.6879 99.1414 57.5534C103.249 57.419 107.295 58.5744 110.712 60.8576C114.129 63.1407 116.745 66.4368 118.193 70.283C119.641 74.1292 119.847 78.3323 118.784 82.3019C117.663 86.4845 115.194 90.1805 111.759 92.8165C108.323 95.4524 104.114 96.8811 99.784 96.8809ZM77.447 55.6369C74.1783 59.0126 71.7239 63.0903 70.271 67.5589V43.6149H77.447V55.6369ZM71.853 78.7369H77.117C77.4788 84.2243 79.821 89.3937 83.7081 93.2838C87.5953 97.1739 92.7628 99.52 98.25 99.8859V105.137C91.3677 104.769 84.8644 101.869 79.991 96.9959C75.1175 92.1225 72.2179 85.6192 71.85 78.7369H71.853ZM119.574 96.9939C114.704 101.871 108.2 104.772 101.317 105.135V99.8819C106.804 99.5144 111.972 97.1686 115.86 93.28C119.749 89.3914 122.095 84.224 122.463 78.7369H127.715C127.352 85.6199 124.452 92.1243 119.574 96.9939ZM127.715 75.6709H122.462C122.096 70.1841 119.751 65.0166 115.861 61.1293C111.972 57.242 106.803 54.8994 101.316 54.5369V49.2769C108.198 49.6449 114.702 52.5444 119.575 57.4179C124.449 62.2913 127.348 68.7946 127.716 75.6769L127.715 75.6709ZM3.066 9.02491C3.06759 7.69189 3.59783 6.41392 4.54042 5.47133C5.48301 4.52874 6.76098 3.9985 8.094 3.99691H99.8C101.133 3.9985 102.411 4.52874 103.354 5.47133C104.296 6.41392 104.826 7.69189 104.828 9.02491V46.5779C101.978 46.1144 99.0782 46.0471 96.21 46.3779V30.6489C96.21 30.2423 96.0485 29.8524 95.761 29.5649C95.4735 29.2774 95.0836 29.1159 94.677 29.1159H84.431C84.0248 29.1164 83.6354 29.2782 83.3483 29.5656C83.0612 29.8531 82.9 30.2427 82.9 30.6489V51.1439C82.084 51.6719 81.289 52.2426 80.515 52.8559V42.0819C80.515 41.6753 80.3535 41.2854 80.066 40.9979C79.7785 40.7104 79.3886 40.5489 78.982 40.5489H68.737C68.5353 40.5484 68.3356 40.5876 68.1491 40.6644C67.9627 40.7413 67.7932 40.8541 67.6504 40.9965C67.5076 41.1389 67.3944 41.3081 67.3171 41.4943C67.2398 41.6806 67.2 41.8803 67.2 42.0819V68.5149H64.818V36.3659C64.8169 35.96 64.655 35.5711 64.3676 35.2845C64.0802 34.9979 63.6909 34.8369 63.285 34.8369H53.043C52.6364 34.8369 52.2465 34.9984 51.959 35.2859C51.6715 35.5734 51.51 35.9633 51.51 36.3699V68.5189H49.125V47.7989C49.125 47.5976 49.0854 47.3982 49.0083 47.2123C48.9313 47.0263 48.8183 46.8573 48.676 46.7149C48.5336 46.5726 48.3646 46.4596 48.1787 46.3826C47.9927 46.3056 47.7933 46.2659 47.592 46.2659H37.349C36.9424 46.2659 36.5525 46.4274 36.265 46.7149C35.9775 47.0024 35.816 47.3923 35.816 47.7989V68.5149H31.95C31.5433 68.5149 31.1532 68.6765 30.8657 68.9641C30.5781 69.2517 30.4165 69.6417 30.4165 70.0484C30.4165 70.4551 30.5781 70.8452 30.8657 71.1328C31.1532 71.4203 31.5433 71.5819 31.95 71.5819H69.25C68.6737 74.7377 68.5856 77.9634 68.989 81.1459H8.094C6.76115 81.1443 5.48333 80.6142 4.54077 79.6718C3.59821 78.7295 3.06785 77.4518 3.066 76.1189V9.02491ZM61.751 68.5149H54.576V37.8989H61.752L61.751 68.5149ZM46.057 68.5149H38.882V49.3319H46.058L46.057 68.5149ZM42.471 42.0069C43.3615 42.0069 44.2389 41.7923 45.0288 41.3811C45.8187 40.9699 46.4979 40.3743 47.0086 39.6448C47.5194 38.9153 47.8467 38.0734 47.9629 37.1905C48.0791 36.3076 47.9807 35.4097 47.676 34.5729L54.769 29.4049C55.3542 29.8611 56.0253 30.1948 56.7423 30.3861C57.4593 30.5774 58.2074 30.6224 58.9421 30.5183C59.6769 30.4143 60.3831 30.1634 61.0188 29.7805C61.6544 29.3976 62.2065 28.8907 62.642 28.2899L68.335 30.3639C68.326 30.4919 68.32 30.6209 68.32 30.7509C68.32 31.5597 68.497 32.3588 68.8388 33.0918C69.1806 33.8249 69.6788 34.4742 70.2984 34.9942C70.918 35.5141 71.6439 35.8921 72.4252 36.1014C73.2064 36.3108 74.0241 36.3466 74.8206 36.2061C75.6172 36.0657 76.3733 35.7525 77.0359 35.2886C77.6984 34.8247 78.2514 34.2214 78.6558 33.5209C79.0603 32.8204 79.3064 32.0399 79.3769 31.2341C79.4474 30.4284 79.3406 29.617 79.064 28.8569L86.157 23.6899C87.2092 24.504 88.52 24.9108 89.8483 24.8355C91.1765 24.7603 92.433 24.208 93.3865 23.2803C94.3401 22.3526 94.9267 21.1118 95.0384 19.7861C95.1502 18.4604 94.7795 17.139 93.9947 16.0648C93.2098 14.9905 92.0636 14.2358 90.7666 13.9393C89.4697 13.6428 88.1093 13.8244 86.9357 14.4509C85.762 15.0774 84.854 16.1065 84.3786 17.3491C83.9031 18.5916 83.8923 19.964 84.348 21.2139L77.255 26.3809C76.6709 25.9252 76.0012 25.5915 75.2856 25.3998C74.57 25.208 73.8232 25.1621 73.0895 25.2647C72.3558 25.3673 71.6502 25.6164 71.0147 25.9971C70.3791 26.3778 69.8266 26.8824 69.39 27.4809L63.69 25.4049C63.698 25.2819 63.704 25.1569 63.704 25.0319C63.7036 24.2232 63.5261 23.4244 63.1841 22.6916C62.842 21.9588 62.3436 21.3098 61.7239 20.7902C61.1042 20.2706 60.3782 19.893 59.597 19.6839C58.8158 19.4748 57.9983 19.4393 57.2019 19.58C56.4055 19.7206 55.6496 20.0339 54.9872 20.4978C54.3248 20.9618 53.7721 21.5652 53.3678 22.2656C52.9635 22.966 52.7175 23.7464 52.6471 24.552C52.5766 25.3577 52.6834 26.169 52.96 26.9289L45.867 32.0969C45.1711 31.5558 44.356 31.1887 43.4896 31.026C42.6232 30.8633 41.7305 30.9099 40.8857 31.1617C40.0409 31.4135 39.2684 31.8634 38.6325 32.4739C37.9965 33.0844 37.5155 33.8379 37.2295 34.6717C36.9434 35.5056 36.8605 36.3956 36.9877 37.2679C37.1149 38.1403 37.4485 38.9696 37.9607 39.687C38.473 40.4045 39.1491 40.9892 39.9329 41.3927C40.7167 41.7962 41.5855 42.0068 42.467 42.0069H42.471ZM89.553 16.8459C90.0422 16.8457 90.5204 16.9906 90.9272 17.2622C91.334 17.5338 91.6511 17.92 91.8385 18.3718C92.0258 18.8237 92.0749 19.321 91.9796 19.8008C91.8843 20.2805 91.6488 20.7213 91.303 21.0672C90.9572 21.4132 90.5166 21.6488 90.0368 21.7443C89.5571 21.8398 89.0598 21.7909 88.6079 21.6038C88.1559 21.4166 87.7696 21.0996 87.4978 20.6929C87.2261 20.2862 87.081 19.8081 87.081 19.3189C87.081 18.6632 87.3414 18.0343 87.805 17.5706C88.2685 17.1068 88.8973 16.8462 89.553 16.8459ZM73.859 28.2789C74.3482 28.2787 74.8264 28.4236 75.2332 28.6952C75.64 28.9668 75.9571 29.353 76.1445 29.8048C76.3318 30.2567 76.3809 30.754 76.2856 31.2338C76.1903 31.7135 75.9548 32.1543 75.609 32.5002C75.2632 32.8462 74.8226 33.0818 74.3428 33.1773C73.8631 33.2728 73.3658 33.2239 72.9139 33.0368C72.4619 32.8496 72.0756 32.5326 71.8038 32.1259C71.5321 31.7192 71.387 31.2411 71.387 30.7519C71.387 30.0962 71.6474 29.4673 72.111 29.0036C72.5745 28.5398 73.2033 28.2792 73.859 28.2789ZM58.165 22.5619C58.6541 22.5617 59.1322 22.7065 59.539 22.9781C59.9458 23.2496 60.2629 23.6356 60.4503 24.0874C60.6377 24.5391 60.6869 25.0363 60.5917 25.516C60.4966 25.9957 60.2613 26.4365 59.9157 26.7825C59.5701 27.1286 59.1297 27.3643 58.6501 27.4601C58.1704 27.5558 57.6732 27.5072 57.2212 27.3203C56.7693 27.1335 56.3828 26.8168 56.1108 26.4104C55.8388 26.0039 55.6934 25.526 55.693 25.0369C55.693 24.3812 55.9534 23.7523 56.417 23.2886C56.8805 22.8248 57.5093 22.5642 58.165 22.5639V22.5619ZM42.471 33.9949C42.9602 33.9945 43.4385 34.1392 43.8455 34.4107C44.2524 34.6822 44.5697 35.0683 44.7572 35.5201C44.9447 35.972 44.9939 36.4693 44.8987 36.9491C44.8035 37.429 44.5682 37.8698 44.2224 38.2159C43.8766 38.5619 43.436 38.7977 42.9562 38.8932C42.4764 38.9888 41.9791 38.94 41.5271 38.7529C41.0751 38.5657 40.6887 38.2488 40.4169 37.842C40.1451 37.4353 40 36.9571 40 36.4679C40 35.812 40.2605 35.183 40.7243 34.7192C41.1881 34.2555 41.8171 33.9949 42.473 33.9949H42.471ZM16 39.3289C18.5462 40.0152 21.24 39.92 23.7314 39.0555C26.2228 38.191 28.3966 36.5972 29.9704 34.4813C31.5443 32.3653 32.4454 29.825 32.5568 27.1902C32.6682 24.5555 31.9847 21.9481 30.595 19.7069C29.2053 17.4657 27.1737 15.6941 24.7642 14.6225C22.3547 13.5508 19.6786 13.2285 17.0835 13.6975C14.4884 14.1665 12.0944 15.4051 10.2124 17.2523C8.33033 19.0995 7.04732 21.4701 6.53 24.0559C5.88323 27.3275 6.50077 30.7226 8.25815 33.5568C10.0155 36.3911 12.782 38.4537 16 39.3289ZM24.412 35.3639C22.3344 36.5632 19.8961 36.9791 17.5384 36.5365C15.1807 36.0939 13.0592 34.822 11.558 32.9509L19.414 28.4149L27.448 32.6659C26.631 33.7638 25.5978 34.6827 24.412 35.3659V35.3639ZM28.09 21.6489C28.7521 22.7897 29.1815 24.0505 29.3531 25.3582C29.5248 26.666 29.4353 27.9949 29.09 29.2679C29.027 29.5009 28.955 29.7279 28.877 29.9539L20.959 25.7629L21.29 16.8099C21.524 16.8549 21.758 16.9099 21.99 16.9699C23.2658 17.3075 24.4618 17.8949 25.5089 18.6981C26.556 19.5012 27.4333 20.5042 28.09 21.6489ZM9.7 24.0709C10.221 22.1291 11.3126 20.3882 12.8336 19.0734C14.3547 17.7586 16.2352 16.9304 18.232 16.6959L17.897 25.7539L10.03 30.2939C9.25761 28.3082 9.14196 26.1272 9.7 24.0709ZM6.286 49.4479C6.286 49.2465 6.32569 49.0471 6.40279 48.861C6.47989 48.675 6.5929 48.5059 6.73536 48.3636C6.87782 48.2212 7.04693 48.1083 7.23304 48.0313C7.41915 47.9543 7.6186 47.9148 7.82 47.9149H22.7C23.1066 47.9149 23.4965 48.0764 23.784 48.3639C24.0715 48.6514 24.233 49.0413 24.233 49.4479C24.233 49.8545 24.0715 50.2444 23.784 50.5319C23.4965 50.8194 23.1066 50.9809 22.7 50.9809H7.82C7.6186 50.981 7.41915 50.9415 7.23304 50.8645C7.04693 50.7875 6.87782 50.6746 6.73536 50.5323C6.5929 50.3899 6.47989 50.2209 6.40279 50.0348C6.32569 49.8487 6.286 49.6493 6.286 49.4479ZM30.44 55.2929C30.44 55.6995 30.2785 56.0894 29.991 56.3769C29.7035 56.6644 29.3136 56.8259 28.907 56.8259H7.82C7.41342 56.8259 7.0235 56.6644 6.73601 56.3769C6.44851 56.0894 6.287 55.6995 6.287 55.2929C6.287 54.8863 6.44851 54.4964 6.73601 54.2089C7.0235 53.9214 7.41342 53.7599 7.82 53.7599H28.908C29.3146 53.7599 29.7045 53.9214 29.992 54.2089C30.2795 54.4964 30.44 54.8863 30.44 55.2929ZM30.44 61.1379C30.44 61.3392 30.4003 61.5386 30.3233 61.7246C30.2463 61.9106 30.1333 62.0796 29.991 62.2219C29.8486 62.3643 29.6796 62.4772 29.4937 62.5542C29.3077 62.6313 29.1083 62.6709 28.907 62.6709H7.82C7.41342 62.6709 7.0235 62.5094 6.73601 62.2219C6.44851 61.9344 6.287 61.5445 6.287 61.1379C6.287 60.7313 6.44851 60.3414 6.73601 60.0539C7.0235 59.7664 7.41342 59.6049 7.82 59.6049H28.908C29.3146 59.6049 29.7045 59.7664 29.992 60.0539C30.2795 60.3414 30.44 60.7313 30.44 61.1379ZM92.84 70.2679C91.2576 71.871 90.2792 73.9725 90.0712 76.2153C89.8631 78.4582 90.4381 80.7039 91.6985 82.5707C92.959 84.4375 94.827 85.8102 96.9851 86.4554C99.1432 87.1006 101.458 86.9786 103.536 86.11C105.615 85.2415 107.328 83.68 108.385 81.691C109.442 79.702 109.778 77.4083 109.335 75.1998C108.893 72.9913 107.699 71.0042 105.956 69.5764C104.214 68.1487 102.031 67.3683 99.779 67.3679C98.4885 67.3713 97.2114 67.6292 96.0207 68.1268C94.83 68.6244 93.7491 69.352 92.84 70.2679ZM104.55 81.9779C103.446 83.0814 101.994 83.7682 100.441 83.9211C98.888 84.0741 97.3298 83.6838 96.0321 82.8167C94.7345 81.9497 93.7776 80.6595 93.3245 79.166C92.8715 77.6725 92.9502 76.0682 93.5474 74.6263C94.1446 73.1844 95.2233 71.9941 96.5996 71.2584C97.976 70.5226 99.5649 70.2868 101.096 70.5912C102.626 70.8955 104.004 71.7212 104.994 72.9275C105.985 74.1339 106.526 75.6462 106.526 77.2069C106.526 78.093 106.352 78.9704 106.013 79.789C105.674 80.6076 105.177 81.3514 104.55 81.9779Z" fill="#F76818"/>
</svg>
