<svg width="88" height="95" viewBox="0 0 88 95" fill="none" xmlns="http://www.w3.org/2000/svg">
<path d="M58.4233 34.6952L62.8237 30.1513L63.4546 18.914C63.4546 18.914 64.8432 17.6521 65.2222 18.1571C65.6012 18.6621 68.7573 22.9569 68.7573 22.9569L71.2807 31.036L67.7466 40.3778L62.8237 43.4062L61.688 59.8192H51.4604V43.4062L47.1684 41.5145L43.5073 36.5927C42.5798 35.4826 41.8925 34.1924 41.4878 32.8036C41.2358 31.1636 40.8568 27.376 41.4878 26.869C42.1188 26.362 44.644 21.8192 44.644 21.8192L50.5766 18.1591L52.5972 20.0526L51.4595 33.4354L58.4233 34.6952Z" fill="#FCB21D"/>
<path d="M83.4477 23.8381H82.4927C81.9295 21.8591 81.1388 19.9521 80.1367 18.1551L80.8157 17.4761C81.5871 16.7016 82.0202 15.6531 82.0202 14.5601C82.0202 13.467 81.5871 12.4185 80.8157 11.6441L76.2927 7.12706C75.9099 6.74361 75.4552 6.4394 74.9547 6.23184C74.4541 6.02428 73.9176 5.91745 73.3757 5.91745C72.8339 5.91745 72.2973 6.02428 71.7968 6.23184C71.2963 6.4394 70.8416 6.74361 70.4587 7.12706L69.7807 7.80506C67.984 6.80071 66.0765 6.00873 64.0967 5.44506V4.48706C64.0957 3.39354 63.6609 2.3451 62.8877 1.57177C62.1146 0.798438 61.0663 0.363384 59.9727 0.362061L53.5787 0.362061C52.485 0.36312 51.4364 0.798057 50.6631 1.57141C49.8897 2.34477 49.4548 3.39337 49.4537 4.48706V5.44206C47.4711 6.00573 45.5607 6.7977 43.7607 7.80206L43.0857 7.12706C42.7029 6.74361 42.2482 6.4394 41.7477 6.23184C41.2471 6.02428 40.7106 5.91745 40.1687 5.91745C39.6269 5.91745 39.0903 6.02428 38.5898 6.23184C38.0893 6.4394 37.6346 6.74361 37.2517 7.12706L32.7297 11.6491C31.9587 12.4234 31.5258 13.4718 31.5258 14.5646C31.5258 15.6574 31.9587 16.7057 32.7297 17.4801L33.4087 18.1591C32.4052 19.9555 31.6142 21.8627 31.0517 23.8421H30.0937C29.0002 23.8434 27.9519 24.2784 27.1787 25.0518C26.4056 25.8251 25.9708 26.8735 25.9697 27.9671V34.3621C25.9708 35.4556 26.4056 36.504 27.1787 37.2774C27.9519 38.0507 29.0002 38.4857 30.0937 38.4871H31.0517C31.6143 40.4664 32.4053 42.3736 33.4087 44.1701L32.7297 44.8491C31.9587 45.6234 31.5258 46.6718 31.5258 47.7646C31.5258 48.8574 31.9587 49.9057 32.7297 50.6801L37.2477 55.1981C37.6294 55.5838 38.0841 55.8897 38.5853 56.0978C39.0864 56.3059 39.6241 56.4121 40.1667 56.4101C40.7085 56.4121 41.2452 56.3063 41.7456 56.099C42.2461 55.8916 42.7002 55.5867 43.0817 55.2021L43.7607 54.5231C45.5587 55.5274 47.4675 56.3188 49.4487 56.8811V57.8391C49.4498 58.9328 49.8847 59.9813 50.6581 60.7547C51.4314 61.5281 52.48 61.963 53.5737 61.9641H59.9677C61.0614 61.963 62.11 61.5281 62.8834 60.7547C63.6567 59.9813 64.0917 58.9328 64.0927 57.8391V56.8811C66.0728 56.3195 67.9804 55.5285 69.7767 54.5241L70.4507 55.1981C70.8336 55.5815 71.2883 55.8857 71.7888 56.0933C72.2893 56.3008 72.8259 56.4077 73.3677 56.4077C73.9096 56.4077 74.4461 56.3008 74.9467 56.0933C75.4472 55.8857 75.9019 55.5815 76.2847 55.1981L80.8127 50.6751C81.5838 49.9007 82.0167 48.8524 82.0167 47.7596C82.0167 46.6668 81.5838 45.6184 80.8127 44.8441L80.1337 44.1651C81.1358 42.368 81.9264 40.461 82.4897 38.4821H83.4447C84.5381 38.4818 85.5867 38.0479 86.3605 37.2755C87.1344 36.5032 87.5704 35.4554 87.5727 34.3621V27.9621C87.5717 26.8685 87.1369 25.8201 86.3637 25.0468C85.5906 24.2734 84.5423 23.8384 83.4487 23.8371L83.4477 23.8381ZM60.4167 57.8381C60.4154 57.9557 60.3681 58.0681 60.285 58.1513C60.2018 58.2345 60.0893 58.2818 59.9717 58.2831H53.5777C53.4601 58.2818 53.3477 58.2345 53.2645 58.1513C53.1813 58.0681 53.134 57.9557 53.1327 57.8381V43.8501C53.1327 43.4744 53.0177 43.1078 52.8032 42.7994C52.5887 42.491 52.2849 42.2557 51.9327 42.1251C49.7533 41.3275 47.8365 39.9436 46.3937 38.1259C44.9509 36.3082 44.0382 34.1273 43.7561 31.8238C43.474 29.5203 43.8337 27.1836 44.7953 25.0715C45.7569 22.9594 47.2831 21.1538 49.2057 19.8541C49.3617 19.7481 49.4987 19.6611 49.6197 19.5901C49.6127 19.8291 49.5957 20.0571 49.5867 20.1751C49.5727 20.3621 49.5617 20.5091 49.5617 20.6551V29.3391C49.5658 31.2649 50.2995 33.1175 51.6151 34.5239C52.9308 35.9303 54.7305 36.7858 56.6517 36.9181C56.733 36.9234 56.8145 36.9234 56.8957 36.9181C58.8163 36.785 60.615 35.9291 61.9297 34.5228C63.2444 33.1165 63.9772 31.2642 63.9807 29.3391V20.6551C63.9807 20.5091 63.9697 20.3631 63.9557 20.1771C63.9467 20.0581 63.9297 19.8291 63.9237 19.5891C64.0437 19.6601 64.1807 19.7471 64.3357 19.8531C66.2587 21.1523 67.7856 22.9574 68.7478 25.0693C69.71 27.1812 70.0703 29.5178 69.7888 31.8215C69.5074 34.1251 68.5952 36.3063 67.1528 38.1244C65.7105 39.9426 63.794 41.327 61.6147 42.1251C61.2625 42.2557 60.9588 42.491 60.7443 42.7994C60.5297 43.1078 60.4148 43.4744 60.4147 43.8501V57.8391L60.4167 57.8381ZM83.8927 34.3621C83.8899 34.4792 83.8422 34.5908 83.7593 34.6736C83.6765 34.7565 83.5649 34.8043 83.4477 34.8071H81.0607C80.6432 34.807 80.2381 34.9489 79.9119 35.2095C79.5857 35.4701 79.3579 35.8339 79.2657 36.2411C78.6866 38.8068 77.6719 41.2542 76.2657 43.4771C76.0426 43.8301 75.9462 44.2485 75.9923 44.6636C76.0385 45.0787 76.2245 45.4657 76.5197 45.7611L78.2097 47.4511C78.2905 47.5352 78.3356 47.6474 78.3356 47.7641C78.3356 47.8807 78.2905 47.9929 78.2097 48.0771L73.6777 52.6041C73.595 52.686 73.4832 52.732 73.3667 52.732C73.2503 52.732 73.1385 52.686 73.0557 52.6041L71.3657 50.9141C71.0701 50.6185 70.6826 50.4324 70.2671 50.3864C69.8516 50.3404 69.4328 50.4373 69.0797 50.6611C67.5191 51.6497 65.8441 52.4451 64.0917 53.0301V45.0741C66.7108 43.8658 68.9618 41.9835 70.6146 39.6197C72.2673 37.2559 73.2625 34.4955 73.4982 31.6208C73.7339 28.7462 73.2017 25.8605 71.956 23.2591C70.7104 20.6576 68.796 18.4338 66.4087 16.8151C65.7237 16.3471 63.6397 14.9221 61.8177 15.9711C60.0277 17.0011 60.2067 19.4171 60.2827 20.4481C60.2897 20.5381 60.2957 20.6131 60.2967 20.6551V29.3391C60.3459 29.8321 60.2912 30.33 60.1362 30.8006C59.9812 31.2712 59.7293 31.7041 59.3968 32.0714C59.0643 32.4387 58.6585 32.7323 58.2056 32.9332C57.7527 33.1342 57.2627 33.238 56.7672 33.238C56.2718 33.238 55.7818 33.1342 55.3289 32.9332C54.876 32.7323 54.4702 32.4387 54.1376 32.0714C53.8051 31.7041 53.5533 31.2712 53.3983 30.8006C53.2433 30.33 53.1886 29.8321 53.2377 29.3391V20.6691C53.2377 20.6141 53.2457 20.5381 53.2527 20.4481C53.3297 19.4171 53.5097 17.0031 51.7207 15.9721C49.8987 14.9211 47.8117 16.3461 47.1207 16.8151C44.7329 18.4337 42.818 20.6579 41.5722 23.2598C40.3264 25.8617 39.7944 28.7479 40.0306 31.623C40.2668 34.4981 41.2628 37.2588 42.9167 39.6225C44.5705 41.9861 46.8227 43.8679 49.4427 45.0751V53.0261C47.6883 52.4403 46.0111 51.6445 44.4477 50.6561C44.0947 50.4329 43.6763 50.3365 43.2612 50.3826C42.8461 50.4288 42.4591 50.6148 42.1637 50.9101L40.4697 52.6041C40.387 52.686 40.2752 52.732 40.1587 52.732C40.0423 52.732 39.9305 52.686 39.8477 52.6041L35.3257 48.0821C35.2446 47.9978 35.1993 47.8855 35.1993 47.7686C35.1993 47.6516 35.2446 47.5393 35.3257 47.4551L37.0157 45.7651C37.311 45.4697 37.497 45.0827 37.5432 44.6676C37.5893 44.2525 37.4929 43.8341 37.2697 43.4811C35.8618 41.2602 34.8469 38.8135 34.2697 36.2481C34.178 35.8395 33.9497 35.4744 33.6224 35.2131C33.2951 34.9518 32.8885 34.81 32.4697 34.8111H30.0807C29.9636 34.8083 29.852 34.7605 29.7692 34.6776C29.6863 34.5948 29.6385 34.4832 29.6357 34.3661V27.9621C29.637 27.8444 29.6843 27.732 29.7675 27.6488C29.8507 27.5657 29.9631 27.5184 30.0807 27.5171H32.4697C32.8885 27.5181 33.2951 27.3763 33.6224 27.115C33.9497 26.8538 34.178 26.4887 34.2697 26.0801C34.8468 23.5146 35.8617 21.0678 37.2697 18.8471C37.4929 18.494 37.5893 18.0756 37.5432 17.6605C37.497 17.2455 37.311 16.8584 37.0157 16.5631L35.3257 14.8731C35.2446 14.7888 35.1993 14.6765 35.1993 14.5596C35.1993 14.4426 35.2446 14.3303 35.3257 14.2461L39.8607 9.72106C39.9435 9.63911 40.0553 9.59314 40.1717 9.59314C40.2882 9.59314 40.4 9.63911 40.4827 9.72106L42.1727 11.4111C42.4681 11.7063 42.8551 11.8923 43.2702 11.9385C43.6853 11.9846 44.1037 11.8882 44.4567 11.6651C46.681 10.2581 49.1302 9.24341 51.6977 8.66506C52.1051 8.57313 52.4691 8.34535 52.7299 8.01914C52.9907 7.69293 53.1328 7.2877 53.1327 6.87006V4.48706C53.134 4.36961 53.1812 4.25733 53.2641 4.17418C53.3471 4.09103 53.4593 4.04362 53.5767 4.04206H59.9707C60.0884 4.04336 60.2008 4.09066 60.284 4.17384C60.3671 4.25701 60.4144 4.36944 60.4157 4.48706V6.87006C60.4164 7.28732 60.5589 7.69196 60.8199 8.01757C61.0808 8.34319 61.4446 8.57045 61.8517 8.66206C64.4174 9.2394 66.8645 10.2542 69.0857 11.6621C69.4388 11.8859 69.8576 11.9827 70.2731 11.9367C70.6886 11.8908 71.0761 11.7046 71.3717 11.4091L73.0607 9.72206C73.1437 9.64005 73.2556 9.59405 73.3722 9.59405C73.4889 9.59405 73.6008 9.64005 73.6837 9.72206L78.2107 14.2431C78.2918 14.3273 78.3371 14.4396 78.3371 14.5566C78.3371 14.6735 78.2918 14.7858 78.2107 14.8701L76.5207 16.5601C76.2255 16.8554 76.0395 17.2425 75.9933 17.6575C75.9472 18.0726 76.0436 18.491 76.2667 18.8441C77.6728 21.0669 78.6875 23.5144 79.2667 26.0801C79.3589 26.4873 79.5867 26.8511 79.9129 27.1116C80.2391 27.3722 80.6442 27.5141 81.0617 27.5141H83.4457C83.5634 27.5154 83.6758 27.5627 83.759 27.6458C83.8421 27.729 83.8894 27.8414 83.8907 27.9591V34.3621H83.8927Z" fill="#F76818"/>
<path d="M67.5001 81.3801C67.3178 81.5481 67.1714 81.7513 67.0696 81.9773C66.9677 82.2034 66.9127 82.4477 66.9076 82.6956C66.9026 82.9434 66.9477 83.1898 67.0402 83.4198C67.1328 83.6498 67.2708 83.8587 67.4462 84.0341C67.6215 84.2094 67.8304 84.3475 68.0604 84.44C68.2904 84.5325 68.5368 84.5776 68.7847 84.5726C69.0325 84.5676 69.2768 84.5125 69.5029 84.4106C69.7289 84.3088 69.9321 84.1624 70.1001 83.9801L70.1051 83.9751C70.4499 83.6294 70.6432 83.1609 70.6426 82.6726C70.6419 82.1844 70.4473 81.7164 70.1016 81.3716C69.7559 81.0268 69.2874 80.8335 68.7992 80.8341C68.3109 80.8348 67.8429 81.0294 67.4982 81.3751L67.5001 81.3801Z" fill="#F76818"/>
<path d="M76.0206 63.5561L61.4126 71.0561C60.7793 70.3973 60.0194 69.8732 59.1786 69.5153C58.3378 69.1573 57.4334 68.9729 56.5196 68.9731H46.5106C46.2738 68.9875 46.0362 68.9713 45.8036 68.9251C45.6117 68.7785 45.43 68.6191 45.2596 68.4481L45.1686 68.3621C37.0686 60.7391 30.2306 61.2221 22.4526 64.2921C21.6627 64.6852 20.7873 64.875 19.9056 64.8441H17.6426C17.3191 63.8692 16.6972 63.0208 15.8648 62.419C15.0324 61.8172 14.0317 61.4926 13.0046 61.4911H5.64956C4.35482 61.4932 3.11379 62.0088 2.19874 62.9248C1.28369 63.8408 0.769347 65.0824 0.768555 66.3771V85.6911C0.768554 86.9861 1.28264 88.2281 2.19786 89.1443C3.11308 90.0604 4.35457 90.5758 5.64956 90.5771H13.0086C14.0353 90.5761 15.0356 90.2521 15.868 89.651C16.7004 89.05 17.3226 88.2023 17.6466 87.2281H21.7866C22.0557 87.2132 22.325 87.2541 22.5776 87.3481C22.7326 87.3921 22.9206 87.4481 23.1626 87.5101L42.2056 92.6051C43.0446 92.8321 43.8146 93.0551 44.5596 93.2711C46.6966 94.0147 48.928 94.4524 51.1876 94.5711C53.6036 94.5711 56.1296 93.8121 59.4516 91.5981L59.4996 91.5651L63.1346 88.9731C63.5324 88.6899 63.8014 88.2602 63.8824 87.7786C63.9634 87.297 63.8498 86.8029 63.5666 86.4051C63.2833 86.0073 62.8536 85.7383 62.372 85.6573C61.8904 85.5762 61.3964 85.6899 60.9986 85.9731L57.3876 88.5481C52.5666 91.7551 50.5186 91.1621 45.5876 89.7321C44.8276 89.5121 44.0416 89.2841 43.1656 89.0471L24.1216 83.9521C23.8986 83.8921 23.7216 83.8431 23.5796 83.8021C23.0032 83.6108 22.3975 83.5235 21.7906 83.5441H17.8916V68.5301H19.8796H19.9586H20.0586C21.3502 68.5449 22.6286 68.2695 23.7996 67.7241C30.6316 65.0241 35.9046 64.7081 42.6446 71.0531L42.7356 71.1391C43.198 71.6739 43.7811 72.0909 44.4367 72.3558C45.0922 72.6206 45.8014 72.7256 46.5056 72.6621H56.5196C57.0776 72.6627 57.6253 72.8125 58.1059 73.0961C58.5865 73.3798 58.9824 73.7869 59.2526 74.2751L59.2706 74.3061C59.5268 74.7817 59.6552 75.3158 59.6431 75.8559C59.6311 76.396 59.4789 76.9238 59.2016 77.3875C58.9243 77.8512 58.5313 78.2349 58.0612 78.5011C57.5911 78.7673 57.0598 78.9069 56.5196 78.9061H40.2996C39.8116 78.9061 39.3435 79.1 38.9985 79.445C38.6534 79.7901 38.4596 80.2581 38.4596 80.7461C38.4596 81.2341 38.6534 81.7021 38.9985 82.0472C39.3435 82.3922 39.8116 82.5861 40.2996 82.5861H56.5196C57.5389 82.5867 58.5454 82.3581 59.4645 81.9172C60.3836 81.4763 61.1918 80.8344 61.8294 80.039C62.4669 79.2436 62.9175 78.3151 63.1477 77.322C63.378 76.329 63.382 75.2969 63.1596 74.3021L77.7006 66.8341C78.03 66.6079 78.4017 66.4507 78.7935 66.3719C79.1853 66.2932 79.5889 66.2946 79.9801 66.376C80.3714 66.4574 80.7421 66.6171 81.0699 66.8456C81.3977 67.0741 81.6759 67.3666 81.8877 67.7054C82.0995 68.0443 82.2406 68.4225 82.3023 68.8173C82.3641 69.2121 82.3453 69.6153 82.2471 70.0027C82.1489 70.39 81.9733 70.7534 81.7309 71.0711C81.4884 71.3888 81.1842 71.6541 80.8366 71.8511L74.4576 76.3941C74.2606 76.5343 74.0931 76.7119 73.9648 76.9168C73.8364 77.1217 73.7497 77.3499 73.7096 77.5883C73.6694 77.8267 73.6766 78.0707 73.7307 78.3063C73.7849 78.5419 73.8849 78.7646 74.0251 78.9616C74.1652 79.1586 74.3429 79.326 74.5478 79.4544C74.7526 79.5827 74.9808 79.6694 75.2192 79.7096C75.4576 79.7498 75.7016 79.7426 75.9373 79.6884C76.1729 79.6343 76.3956 79.5343 76.5926 79.3941L82.9716 74.8511C84.4286 73.9107 85.4592 72.4369 85.8425 70.7457C86.2257 69.0544 85.931 67.2803 85.0216 65.8037C84.1123 64.3271 82.6605 63.2657 80.9777 62.8468C79.2949 62.428 77.515 62.6851 76.0196 63.5631L76.0206 63.5561ZM14.2116 85.6961C14.2066 86.0139 14.0778 86.3171 13.8525 86.5413C13.6272 86.7654 13.3233 86.8928 13.0056 86.8961H5.64956C5.33266 86.8917 5.02999 86.7639 4.80589 86.5398C4.58179 86.3157 4.45395 86.013 4.44955 85.6961V66.3821C4.44876 66.224 4.47922 66.0673 4.53917 65.9211C4.59912 65.7748 4.68739 65.6418 4.7989 65.5297C4.91041 65.4176 5.04296 65.3287 5.18895 65.268C5.33493 65.2073 5.49146 65.1761 5.64956 65.1761H13.0086C13.3271 65.1803 13.6315 65.3086 13.8567 65.5339C14.082 65.7592 14.2104 66.0635 14.2146 66.3821L14.2116 85.6961Z" fill="#F76818"/>
<path d="M83.4477 23.8381H82.4927C81.9295 21.8591 81.1388 19.9521 80.1367 18.1551L80.8157 17.4761C81.5871 16.7016 82.0202 15.6531 82.0202 14.5601C82.0202 13.467 81.5871 12.4185 80.8157 11.6441L76.2927 7.12706C75.9099 6.74361 75.4552 6.4394 74.9547 6.23184C74.4541 6.02428 73.9176 5.91745 73.3757 5.91745C72.8339 5.91745 72.2973 6.02428 71.7968 6.23184C71.2963 6.4394 70.8416 6.74361 70.4587 7.12706L69.7807 7.80506C67.984 6.80071 66.0765 6.00873 64.0967 5.44506V4.48706C64.0957 3.39354 63.6609 2.3451 62.8877 1.57177C62.1146 0.798438 61.0663 0.363384 59.9727 0.362061L53.5787 0.362061C52.485 0.36312 51.4364 0.798057 50.6631 1.57141C49.8897 2.34477 49.4548 3.39337 49.4537 4.48706V5.44206C47.4711 6.00573 45.5607 6.7977 43.7607 7.80206L43.0857 7.12706C42.7029 6.74361 42.2482 6.4394 41.7477 6.23184C41.2471 6.02428 40.7106 5.91745 40.1687 5.91745C39.6269 5.91745 39.0903 6.02428 38.5898 6.23184C38.0893 6.4394 37.6346 6.74361 37.2517 7.12706L32.7297 11.6491C31.9587 12.4234 31.5258 13.4718 31.5258 14.5646C31.5258 15.6574 31.9587 16.7057 32.7297 17.4801L33.4087 18.1591C32.4052 19.9555 31.6142 21.8627 31.0517 23.8421H30.0937C29.0002 23.8434 27.9519 24.2784 27.1787 25.0518C26.4056 25.8251 25.9708 26.8735 25.9697 27.9671V34.3621C25.9708 35.4556 26.4056 36.504 27.1787 37.2774C27.9519 38.0507 29.0002 38.4857 30.0937 38.4871H31.0517C31.6143 40.4664 32.4053 42.3736 33.4087 44.1701L32.7297 44.8491C31.9587 45.6234 31.5258 46.6718 31.5258 47.7646C31.5258 48.8574 31.9587 49.9057 32.7297 50.6801L37.2477 55.1981C37.6294 55.5838 38.0841 55.8897 38.5853 56.0978C39.0864 56.3059 39.6241 56.4121 40.1667 56.4101C40.7085 56.4121 41.2452 56.3063 41.7456 56.099C42.2461 55.8916 42.7002 55.5867 43.0817 55.2021L43.7607 54.5231C45.5587 55.5274 47.4675 56.3188 49.4487 56.8811V57.8391C49.4498 58.9328 49.8847 59.9813 50.6581 60.7547C51.4314 61.5281 52.48 61.963 53.5737 61.9641H59.9677C61.0614 61.963 62.11 61.5281 62.8834 60.7547C63.6567 59.9813 64.0917 58.9328 64.0927 57.8391V56.8811C66.0728 56.3195 67.9804 55.5285 69.7767 54.5241L70.4507 55.1981C70.8336 55.5815 71.2883 55.8857 71.7888 56.0933C72.2893 56.3008 72.8259 56.4077 73.3677 56.4077C73.9096 56.4077 74.4461 56.3008 74.9467 56.0933C75.4472 55.8857 75.9019 55.5815 76.2847 55.1981L80.8127 50.6751C81.5838 49.9007 82.0167 48.8524 82.0167 47.7596C82.0167 46.6668 81.5838 45.6184 80.8127 44.8441L80.1337 44.1651C81.1358 42.368 81.9264 40.461 82.4897 38.4821H83.4447C84.5381 38.4818 85.5867 38.0479 86.3605 37.2755C87.1344 36.5032 87.5704 35.4554 87.5727 34.3621V27.9621C87.5717 26.8685 87.1369 25.8201 86.3637 25.0468C85.5906 24.2734 84.5423 23.8384 83.4487 23.8371L83.4477 23.8381ZM60.4167 57.8381C60.4154 57.9557 60.3681 58.0681 60.285 58.1513C60.2018 58.2345 60.0893 58.2818 59.9717 58.2831H53.5777C53.4601 58.2818 53.3477 58.2345 53.2645 58.1513C53.1813 58.0681 53.134 57.9557 53.1327 57.8381V43.8501C53.1327 43.4744 53.0177 43.1078 52.8032 42.7994C52.5887 42.491 52.2849 42.2557 51.9327 42.1251C49.7533 41.3275 47.8365 39.9436 46.3937 38.1259C44.9509 36.3082 44.0382 34.1273 43.7561 31.8238C43.474 29.5203 43.8337 27.1836 44.7953 25.0715C45.7569 22.9594 47.2831 21.1538 49.2057 19.8541C49.3617 19.7481 49.4987 19.6611 49.6197 19.5901C49.6127 19.8291 49.5957 20.0571 49.5867 20.1751C49.5727 20.3621 49.5617 20.5091 49.5617 20.6551V29.3391C49.5658 31.2649 50.2995 33.1175 51.6151 34.5239C52.9308 35.9303 54.7305 36.7858 56.6517 36.9181C56.733 36.9234 56.8145 36.9234 56.8957 36.9181C58.8163 36.785 60.615 35.9291 61.9297 34.5228C63.2444 33.1165 63.9772 31.2642 63.9807 29.3391V20.6551C63.9807 20.5091 63.9697 20.3631 63.9557 20.1771C63.9467 20.0581 63.9297 19.8291 63.9237 19.5891C64.0437 19.6601 64.1807 19.7471 64.3357 19.8531C66.2587 21.1523 67.7856 22.9574 68.7478 25.0693C69.71 27.1812 70.0703 29.5178 69.7888 31.8215C69.5074 34.1251 68.5952 36.3063 67.1528 38.1244C65.7105 39.9426 63.794 41.327 61.6147 42.1251C61.2625 42.2557 60.9588 42.491 60.7443 42.7994C60.5297 43.1078 60.4148 43.4744 60.4147 43.8501V57.8391L60.4167 57.8381ZM83.8927 34.3621C83.8899 34.4792 83.8422 34.5908 83.7593 34.6736C83.6765 34.7565 83.5649 34.8043 83.4477 34.8071H81.0607C80.6432 34.807 80.2381 34.9489 79.9119 35.2095C79.5857 35.4701 79.3579 35.8339 79.2657 36.2411C78.6866 38.8068 77.6719 41.2542 76.2657 43.4771C76.0426 43.8301 75.9462 44.2485 75.9923 44.6636C76.0385 45.0787 76.2245 45.4657 76.5197 45.7611L78.2097 47.4511C78.2905 47.5352 78.3356 47.6474 78.3356 47.7641C78.3356 47.8807 78.2905 47.9929 78.2097 48.0771L73.6777 52.6041C73.595 52.686 73.4832 52.732 73.3667 52.732C73.2503 52.732 73.1385 52.686 73.0557 52.6041L71.3657 50.9141C71.0701 50.6185 70.6826 50.4324 70.2671 50.3864C69.8516 50.3404 69.4328 50.4373 69.0797 50.6611C67.5191 51.6497 65.8441 52.4451 64.0917 53.0301V45.0741C66.7108 43.8658 68.9618 41.9835 70.6146 39.6197C72.2673 37.2559 73.2625 34.4955 73.4982 31.6208C73.7339 28.7462 73.2017 25.8605 71.956 23.2591C70.7104 20.6576 68.796 18.4338 66.4087 16.8151C65.7237 16.3471 63.6397 14.9221 61.8177 15.9711C60.0277 17.0011 60.2067 19.4171 60.2827 20.4481C60.2897 20.5381 60.2957 20.6131 60.2967 20.6551V29.3391C60.3459 29.8321 60.2912 30.33 60.1362 30.8006C59.9812 31.2712 59.7293 31.7041 59.3968 32.0714C59.0643 32.4387 58.6585 32.7323 58.2056 32.9332C57.7527 33.1342 57.2627 33.238 56.7672 33.238C56.2718 33.238 55.7818 33.1342 55.3289 32.9332C54.876 32.7323 54.4702 32.4387 54.1376 32.0714C53.8051 31.7041 53.5533 31.2712 53.3983 30.8006C53.2433 30.33 53.1886 29.8321 53.2377 29.3391V20.6691C53.2377 20.6141 53.2457 20.5381 53.2527 20.4481C53.3297 19.4171 53.5097 17.0031 51.7207 15.9721C49.8987 14.9211 47.8117 16.3461 47.1207 16.8151C44.7329 18.4337 42.818 20.6579 41.5722 23.2598C40.3264 25.8617 39.7944 28.7479 40.0306 31.623C40.2668 34.4981 41.2628 37.2588 42.9167 39.6225C44.5705 41.9861 46.8227 43.8679 49.4427 45.0751V53.0261C47.6883 52.4403 46.0111 51.6445 44.4477 50.6561C44.0947 50.4329 43.6763 50.3365 43.2612 50.3826C42.8461 50.4288 42.4591 50.6148 42.1637 50.9101L40.4697 52.6041C40.387 52.686 40.2752 52.732 40.1587 52.732C40.0423 52.732 39.9305 52.686 39.8477 52.6041L35.3257 48.0821C35.2446 47.9978 35.1993 47.8855 35.1993 47.7686C35.1993 47.6516 35.2446 47.5393 35.3257 47.4551L37.0157 45.7651C37.311 45.4697 37.497 45.0827 37.5432 44.6676C37.5893 44.2525 37.4929 43.8341 37.2697 43.4811C35.8618 41.2602 34.8469 38.8135 34.2697 36.2481C34.178 35.8395 33.9497 35.4744 33.6224 35.2131C33.2951 34.9518 32.8885 34.81 32.4697 34.8111H30.0807C29.9636 34.8083 29.852 34.7605 29.7692 34.6776C29.6863 34.5948 29.6385 34.4832 29.6357 34.3661V27.9621C29.637 27.8444 29.6843 27.732 29.7675 27.6488C29.8507 27.5657 29.9631 27.5184 30.0807 27.5171H32.4697C32.8885 27.5181 33.2951 27.3763 33.6224 27.115C33.9497 26.8538 34.178 26.4887 34.2697 26.0801C34.8468 23.5146 35.8617 21.0678 37.2697 18.8471C37.4929 18.494 37.5893 18.0756 37.5432 17.6605C37.497 17.2455 37.311 16.8584 37.0157 16.5631L35.3257 14.8731C35.2446 14.7888 35.1993 14.6765 35.1993 14.5596C35.1993 14.4426 35.2446 14.3303 35.3257 14.2461L39.8607 9.72106C39.9435 9.63911 40.0553 9.59314 40.1717 9.59314C40.2882 9.59314 40.4 9.63911 40.4827 9.72106L42.1727 11.4111C42.4681 11.7063 42.8551 11.8923 43.2702 11.9385C43.6853 11.9846 44.1037 11.8882 44.4567 11.6651C46.681 10.2581 49.1302 9.24341 51.6977 8.66506C52.1051 8.57313 52.4691 8.34535 52.7299 8.01914C52.9907 7.69293 53.1328 7.2877 53.1327 6.87006V4.48706C53.134 4.36961 53.1812 4.25733 53.2641 4.17418C53.3471 4.09103 53.4593 4.04362 53.5767 4.04206H59.9707C60.0884 4.04336 60.2008 4.09066 60.284 4.17384C60.3671 4.25701 60.4144 4.36944 60.4157 4.48706V6.87006C60.4164 7.28732 60.5589 7.69196 60.8199 8.01757C61.0808 8.34319 61.4446 8.57045 61.8517 8.66206C64.4174 9.2394 66.8645 10.2542 69.0857 11.6621C69.4388 11.8859 69.8576 11.9827 70.2731 11.9367C70.6886 11.8908 71.0761 11.7046 71.3717 11.4091L73.0607 9.72206C73.1437 9.64005 73.2556 9.59405 73.3722 9.59405C73.4889 9.59405 73.6008 9.64005 73.6837 9.72206L78.2107 14.2431C78.2918 14.3273 78.3371 14.4396 78.3371 14.5566C78.3371 14.6735 78.2918 14.7858 78.2107 14.8701L76.5207 16.5601C76.2255 16.8554 76.0395 17.2425 75.9933 17.6575C75.9472 18.0726 76.0436 18.491 76.2667 18.8441C77.6728 21.0669 78.6875 23.5144 79.2667 26.0801C79.3589 26.4873 79.5867 26.8511 79.9129 27.1116C80.2391 27.3722 80.6442 27.5141 81.0617 27.5141H83.4457C83.5634 27.5154 83.6758 27.5627 83.759 27.6458C83.8421 27.729 83.8894 27.8414 83.8907 27.9591V34.3621H83.8927Z" fill="#F76818"/>
</svg>
