<svg width="92" height="80" viewBox="0 0 92 80" fill="none" xmlns="http://www.w3.org/2000/svg">
<path d="M65.5 45C75.7173 45 84 36.7173 84 26.5C84 16.2827 75.7173 8 65.5 8C55.2827 8 47 16.2827 47 26.5C47 36.7173 55.2827 45 65.5 45Z" fill="#FCB21D"/>
<path d="M83.7422 0.175049H7.6432C5.62564 0.177431 3.69139 0.979961 2.26475 2.4066C0.838115 3.83323 0.035585 5.76748 0.0332031 7.78505L0.0332031 62.5751C0.035585 64.5926 0.838115 66.5269 2.26475 67.9535C3.69139 69.3801 5.62564 70.1827 7.6432 70.1851H53.3022V77.7951C53.3019 78.0964 53.3911 78.3911 53.5584 78.6417C53.7257 78.8924 53.9637 79.0877 54.2422 79.2029C54.5207 79.3182 54.8271 79.3482 55.1226 79.2891C55.4181 79.23 55.6895 79.0845 55.9022 78.871L60.9142 73.859L65.9242 78.875C66.1369 79.0885 66.4083 79.234 66.7038 79.2931C66.9993 79.3522 67.3057 79.3222 67.5842 79.2069C67.8627 79.0917 68.1007 78.8964 68.268 78.6457C68.4353 78.3951 68.5245 78.1004 68.5242 77.799V70.189H83.7442C85.7618 70.1867 87.696 69.3841 89.1227 67.9575C90.5493 66.5309 91.3518 64.5966 91.3542 62.579V7.78505C91.3518 5.76714 90.549 3.83258 89.1219 2.40589C87.6949 0.979198 85.7601 0.176901 83.7422 0.175049ZM49.2082 29.953C49.0922 29.8995 48.9904 29.8194 48.9113 29.719C48.8322 29.6187 48.7779 29.5011 48.753 29.3757C48.728 29.2504 48.7331 29.121 48.7677 28.998C48.8023 28.875 48.8655 28.7619 48.9522 28.668C49.6091 27.9542 49.9737 27.0196 49.9737 26.0495C49.9737 25.0795 49.6091 24.1449 48.9522 23.431C48.8654 23.3371 48.802 23.2239 48.7673 23.1007C48.7327 22.9776 48.7277 22.848 48.7527 22.7225C48.7778 22.597 48.8322 22.4793 48.9116 22.3789C48.9909 22.2786 49.0929 22.1984 49.2092 22.145C50.0881 21.7353 50.7812 21.0107 51.1516 20.1145C51.5219 19.2182 51.5425 18.2157 51.2092 17.305C51.1649 17.1851 51.1496 17.0564 51.1646 16.9294C51.1796 16.8025 51.2245 16.6809 51.2955 16.5745C51.3665 16.4682 51.4616 16.3802 51.5732 16.3177C51.6847 16.2553 51.8095 16.2201 51.9372 16.215C52.9051 16.1734 53.8222 15.7702 54.5073 15.0851C55.1923 14.4001 55.5955 13.483 55.6372 12.515C55.6422 12.3872 55.6774 12.2623 55.7399 12.1507C55.8025 12.039 55.8906 11.9438 55.997 11.8727C56.1034 11.8017 56.2252 11.7569 56.3523 11.742C56.4794 11.7271 56.6082 11.7426 56.7282 11.787C57.639 12.1184 58.6408 12.0969 59.5365 11.7268C60.4322 11.3566 61.157 10.6647 61.5682 9.78705C61.6213 9.67089 61.7012 9.56899 61.8013 9.48972C61.9015 9.41046 62.019 9.3561 62.1443 9.33111C62.2695 9.30611 62.3989 9.31121 62.5218 9.34597C62.6447 9.38073 62.7576 9.44416 62.8512 9.53105C63.5654 10.1881 64.5003 10.5527 65.4707 10.5527C66.4411 10.5527 67.3761 10.1881 68.0902 9.53105C68.184 9.44399 68.2971 9.38044 68.4202 9.34564C68.5433 9.31083 68.673 9.30577 68.7984 9.33086C68.9239 9.35596 69.0416 9.41049 69.1419 9.48997C69.2422 9.56946 69.3221 9.67162 69.3752 9.78805C69.7851 10.6663 70.5094 11.359 71.4051 11.7292C72.3008 12.0995 73.3028 12.1205 74.2132 11.788C74.3332 11.7436 74.462 11.7281 74.5891 11.743C74.7162 11.7579 74.838 11.8027 74.9444 11.8737C75.0508 11.9448 75.139 12.04 75.2015 12.1517C75.264 12.2633 75.2992 12.3882 75.3042 12.516C75.3453 13.4868 75.7497 14.4066 76.4373 15.0931C77.1249 15.7796 78.0454 16.1825 79.0162 16.222C79.1438 16.2269 79.2684 16.2619 79.3798 16.3242C79.4913 16.3866 79.5864 16.4744 79.6573 16.5806C79.7282 16.6867 79.773 16.8082 79.7879 16.935C79.8029 17.0618 79.7875 17.1903 79.7432 17.31C79.4095 18.2207 79.4298 19.2234 79.8002 20.1197C80.1706 21.0161 80.864 21.7406 81.7432 22.15C81.8592 22.2036 81.961 22.2837 82.0401 22.3841C82.1192 22.4844 82.1735 22.602 82.1984 22.7274C82.2234 22.8527 82.2184 22.9821 82.1837 23.1051C82.1491 23.2281 82.0859 23.3412 81.9992 23.435C81.3423 24.1489 80.9778 25.0835 80.9778 26.0535C80.9778 27.0236 81.3423 27.9582 81.9992 28.672C82.0861 28.766 82.1494 28.8792 82.1841 29.0024C82.2188 29.1255 82.2237 29.2551 82.1987 29.3806C82.1736 29.5061 82.1192 29.6238 82.0398 29.7242C81.9605 29.8245 81.8585 29.9047 81.7422 29.958C80.8633 30.3678 80.1702 31.0924 79.7999 31.9886C79.4295 32.8849 79.4089 33.8874 79.7422 34.798C79.7865 34.918 79.8018 35.0467 79.7868 35.1737C79.7718 35.3006 79.727 35.4222 79.6559 35.5286C79.5849 35.6349 79.4898 35.7229 79.3782 35.7853C79.2667 35.8478 79.142 35.883 79.0142 35.8881C78.0422 35.927 77.1205 36.3306 76.4326 37.0184C75.7447 37.7063 75.3411 38.628 75.3022 39.6C75.2972 39.7279 75.262 39.8528 75.1995 39.9644C75.137 40.0761 75.0489 40.1713 74.9424 40.2423C74.836 40.3134 74.7142 40.3582 74.5871 40.3731C74.46 40.388 74.3312 40.3725 74.2112 40.328C73.3005 39.9962 72.2985 40.0175 71.4026 40.3877C70.5068 40.7579 69.782 41.4501 69.3712 42.328C69.3202 42.4454 69.2412 42.5484 69.1411 42.628C69.0411 42.7077 68.923 42.7616 68.7972 42.785C68.6716 42.811 68.5417 42.8063 68.4183 42.7715C68.2949 42.7367 68.1817 42.6728 68.0882 42.585C67.3739 41.9283 66.439 41.5638 65.4687 41.5638C64.4984 41.5638 63.5635 41.9283 62.8492 42.585C62.7557 42.6728 62.6425 42.7367 62.5191 42.7715C62.3957 42.8063 62.2658 42.811 62.1402 42.785C62.0144 42.7615 61.8962 42.7076 61.796 42.6279C61.6957 42.5483 61.6165 42.4453 61.5652 42.328C61.1555 41.4496 60.4312 40.7568 59.5354 40.3865C58.6397 40.0162 57.6376 39.9954 56.7272 40.328C56.6072 40.3725 56.4784 40.388 56.3513 40.3731C56.2242 40.3582 56.1024 40.3134 55.996 40.2423C55.8896 40.1713 55.8014 40.0761 55.7389 39.9644C55.6764 39.8528 55.6412 39.7279 55.6362 39.6C55.5984 38.6285 55.1967 37.7067 54.5106 37.0177C53.8246 36.3288 52.9046 35.923 51.9332 35.8811C51.8055 35.8764 51.6808 35.8414 51.5692 35.7792C51.4577 35.7169 51.3624 35.6291 51.2914 35.5229C51.2203 35.4168 51.1755 35.2952 51.1605 35.1684C51.1455 35.0415 51.1608 34.9129 51.2052 34.793C51.5389 33.8824 51.5186 32.8797 51.1482 31.9834C50.7778 31.087 50.0844 30.3625 49.2052 29.953H49.2082ZM65.9252 58.453L65.4782 58.9V44.5961C65.6818 44.5957 65.878 44.6725 66.0272 44.8111C66.7316 45.472 67.6613 45.84 68.6272 45.84C68.8857 45.8396 69.1436 45.8141 69.3972 45.764C69.9942 45.648 70.5547 45.3904 71.0315 45.0128C71.5083 44.6352 71.8875 44.1486 72.1372 43.594C72.2235 43.4086 72.3765 43.2624 72.5657 43.1848C72.755 43.1071 72.9665 43.1036 73.1582 43.175C73.6212 43.3392 74.1114 43.4132 74.6022 43.393V58.9021L71.1122 55.412C70.8268 55.1268 70.4398 54.9665 70.0362 54.9665C69.6326 54.9665 69.2456 55.1268 68.9602 55.412L65.9252 58.453ZM65.4782 74.12L61.9882 70.6301C61.7028 70.3447 61.3158 70.1845 60.9122 70.1845C60.5087 70.1845 60.1216 70.3447 59.8362 70.6301L56.3462 74.12V43.3871C56.837 43.4073 57.3272 43.3333 57.7902 43.169C57.9813 43.0981 58.1922 43.1018 58.3807 43.1795C58.5692 43.2571 58.7215 43.403 58.8072 43.588C59.0575 44.1441 59.438 44.6317 59.9165 45.0098C60.3949 45.3878 60.9573 45.6451 61.5562 45.76C61.8452 45.8174 62.1397 45.8425 62.4342 45.835V62.5751C62.4339 62.8763 62.523 63.1709 62.6902 63.4214C62.8574 63.672 63.0952 63.8673 63.3735 63.9827C63.6518 64.098 63.9581 64.1281 64.2536 64.0693C64.549 64.0104 64.8203 63.8652 65.0332 63.6521L65.4792 63.206L65.4782 74.12ZM88.3082 62.5751C88.3082 63.786 87.8271 64.9474 86.9709 65.8037C86.1146 66.66 84.9532 67.1411 83.7422 67.1411H68.5222V60.161L70.0442 58.639L75.0562 63.6511C75.269 63.8645 75.5403 64.01 75.8358 64.0691C76.1313 64.1282 76.4377 64.0982 76.7162 63.9829C76.9947 63.8677 77.2327 63.6724 77.4 63.4217C77.5673 63.1711 77.6565 62.8764 77.6562 62.5751V41.736C78.0815 41.1397 78.3247 40.4328 78.3562 39.701C78.365 39.4974 78.45 39.3044 78.5942 39.1604C78.7385 39.0163 78.9315 38.9316 79.1352 38.923C79.7434 38.8996 80.3375 38.7323 80.8686 38.4351C81.3998 38.1378 81.853 37.719 82.1911 37.2129C82.5293 36.7067 82.7427 36.1277 82.814 35.5232C82.8853 34.9187 82.8123 34.3059 82.6012 33.7351C82.5311 33.544 82.5354 33.3336 82.6132 33.1456C82.691 32.9576 82.8366 32.8057 83.0212 32.72C83.5742 32.4652 84.059 32.083 84.4358 31.6047C84.8126 31.1263 85.0707 30.5655 85.189 29.9682C85.3072 29.3709 85.2822 28.7541 85.1161 28.1683C84.95 27.5825 84.6474 27.0444 84.2332 26.598C84.0954 26.448 84.0189 26.2518 84.0189 26.048C84.0189 25.8443 84.0954 25.6481 84.2332 25.498C84.6472 25.0515 84.9495 24.5132 85.1152 23.9272C85.2809 23.3413 85.3053 22.7244 85.1865 22.1271C85.0676 21.5299 84.8089 20.9693 84.4314 20.4915C84.054 20.0136 83.5687 19.632 83.0152 19.378C82.8301 19.2929 82.6839 19.1412 82.6057 18.9531C82.5275 18.765 82.523 18.5543 82.5932 18.363C82.8042 17.7926 82.8772 17.1803 82.8063 16.5763C82.7353 15.9722 82.5224 15.3936 82.1849 14.8876C81.8475 14.3816 81.395 13.9626 80.8646 13.665C80.3342 13.3673 79.7409 13.1994 79.1332 13.175C78.9295 13.1665 78.7365 13.0818 78.5922 12.9377C78.448 12.7937 78.363 12.6007 78.3542 12.397C78.3316 11.7885 78.1649 11.194 77.8681 10.6623C77.5712 10.1307 77.1525 9.67694 76.6463 9.33841C76.1401 8.99988 75.5609 8.78618 74.9561 8.71485C74.3513 8.64351 73.7383 8.71658 73.1672 8.92805C72.9762 9.00025 72.7648 8.99713 72.576 8.91933C72.3871 8.84153 72.2349 8.69487 72.1502 8.50905C71.8959 7.95574 71.5142 7.47056 71.0362 7.09327C70.5582 6.71598 69.9977 6.45731 69.4004 6.33847C68.8032 6.21963 68.1863 6.244 67.6003 6.40958C67.0143 6.57516 66.4759 6.87723 66.0292 7.29105C65.8794 7.42929 65.683 7.50604 65.4792 7.50604C65.2754 7.50604 65.079 7.42929 64.9292 7.29105C64.4827 6.87702 63.9443 6.57475 63.3584 6.40904C62.7724 6.24333 62.1555 6.2189 61.5583 6.33776C60.961 6.45662 60.4005 6.71539 59.9226 7.09282C59.4448 7.47025 59.0632 7.9556 58.8092 8.50905C58.7241 8.6948 58.5717 8.8414 58.3828 8.91933C58.1939 8.99726 57.9825 9.00073 57.7912 8.92905C57.2201 8.71758 56.6071 8.64451 56.0023 8.71585C55.3976 8.78718 54.8183 9.00088 54.3121 9.33941C53.8059 9.67794 53.3872 10.1317 53.0903 10.6633C52.7935 11.195 52.6269 11.7895 52.6042 12.398C52.5951 12.6019 52.5098 12.7948 52.3651 12.9387C52.2205 13.0826 52.0271 13.167 51.8232 13.175C51.215 13.1985 50.6209 13.3658 50.0898 13.663C49.5586 13.9603 49.1054 14.3791 48.7673 14.8852C48.4291 15.3914 48.2157 15.9704 48.1444 16.5749C48.0731 17.1794 48.1461 17.7922 48.3572 18.363C48.4262 18.5542 48.4208 18.7642 48.3423 18.9516C48.2638 19.139 48.1178 19.2901 47.9332 19.375C47.3799 19.6293 46.8947 20.0111 46.5174 20.4891C46.1401 20.967 45.8815 21.5276 45.7626 22.1248C45.6438 22.722 45.6682 23.3389 45.8337 23.9249C45.9993 24.5109 46.3014 25.0493 46.7152 25.496C46.853 25.6461 46.9295 25.8423 46.9295 26.046C46.9295 26.2498 46.853 26.446 46.7152 26.596C46.3012 27.0426 45.9989 27.5809 45.8332 28.1669C45.6675 28.7528 45.6431 29.3697 45.7619 29.967C45.8808 30.5642 46.1395 31.1247 46.517 31.6026C46.8944 32.0805 47.3798 32.4621 47.9332 32.716C48.1183 32.8012 48.2645 32.9529 48.3427 33.141C48.4209 33.3291 48.4254 33.5398 48.3552 33.731C48.1441 34.3019 48.0711 34.9147 48.1424 35.5192C48.2137 36.1237 48.4271 36.7027 48.7653 37.2089C49.1034 37.715 49.5566 38.1338 50.0878 38.4311C50.6189 38.7283 51.213 38.8956 51.8212 38.919C52.0249 38.9276 52.2179 39.0123 52.3622 39.1564C52.5064 39.3004 52.5914 39.4934 52.6002 39.697C52.6321 40.4281 52.8752 41.1343 53.3002 41.73V67.1421H7.6432C7.0435 67.1421 6.44968 67.0239 5.89564 66.7944C5.3416 66.5649 4.83821 66.2284 4.4142 65.8043C3.99019 65.3802 3.65389 64.8768 3.42448 64.3227C3.19508 63.7686 3.07707 63.1748 3.0772 62.5751V7.78505C3.0772 6.57407 3.55826 5.41269 4.41455 4.5564C5.27084 3.70011 6.43222 3.21905 7.6432 3.21905H83.7432C84.954 3.21931 86.1151 3.70049 86.9712 4.55675C87.8273 5.41301 88.3082 6.57424 88.3082 7.78505V62.5751Z" fill="#F76818"/>
<path d="M16.775 54.9661C15.5642 54.9661 14.403 54.4852 13.5467 53.6291C12.6905 52.773 12.2093 51.6119 12.209 50.4011V19.9611C12.209 18.7501 12.6901 17.5887 13.5464 16.7324C14.4027 15.8761 15.5641 15.3951 16.775 15.3951H44.175C44.5787 15.3951 44.9658 15.2347 45.2513 14.9493C45.5367 14.6639 45.697 14.2767 45.697 13.8731C45.697 13.4694 45.5367 13.0823 45.2513 12.7969C44.9658 12.5114 44.5787 12.3511 44.175 12.3511H16.775C14.7575 12.3535 12.8232 13.156 11.3966 14.5826C9.96995 16.0093 9.16742 17.9435 9.16504 19.9611V50.4011C9.16742 52.4186 9.96995 54.3529 11.3966 55.7795C12.8232 57.2062 14.7575 58.0087 16.775 58.0111H45.693C46.0967 58.0111 46.4838 57.8507 46.7693 57.5653C47.0547 57.2799 47.215 56.8927 47.215 56.4891C47.215 56.0854 47.0547 55.6983 46.7693 55.4129C46.4838 55.1274 46.0967 54.9671 45.693 54.9671L16.775 54.9661Z" fill="#F76818"/>
<path d="M18.2974 36.7031H39.6054C39.8053 36.7031 40.0032 36.6637 40.1878 36.5872C40.3725 36.5107 40.5403 36.3986 40.6816 36.2573C40.8229 36.1159 40.935 35.9482 41.0115 35.7635C41.088 35.5788 41.1274 35.3809 41.1274 35.1811C41.1274 34.9812 41.088 34.7833 41.0115 34.5986C40.935 34.414 40.8229 34.2462 40.6816 34.1048C40.5403 33.9635 40.3725 33.8514 40.1878 33.7749C40.0032 33.6984 39.8053 33.6591 39.6054 33.6591H18.2974C18.0975 33.6591 17.8996 33.6984 17.7149 33.7749C17.5303 33.8514 17.3625 33.9635 17.2212 34.1048C17.0798 34.2462 16.9677 34.414 16.8912 34.5986C16.8148 34.7833 16.7754 34.9812 16.7754 35.1811C16.7754 35.3809 16.8148 35.5788 16.8912 35.7635C16.9677 35.9482 17.0798 36.1159 17.2212 36.2573C17.3625 36.3986 17.5303 36.5107 17.7149 36.5872C17.8996 36.6637 18.0975 36.7031 18.2974 36.7031Z" fill="#F76818"/>
<path d="M18.2974 30.615H39.6054C40.0091 30.615 40.3962 30.4547 40.6816 30.1693C40.967 29.8838 41.1274 29.4967 41.1274 29.093C41.1274 28.6894 40.967 28.3023 40.6816 28.0168C40.3962 27.7314 40.0091 27.571 39.6054 27.571H18.2974C17.8937 27.571 17.5066 27.7314 17.2212 28.0168C16.9357 28.3023 16.7754 28.6894 16.7754 29.093C16.7754 29.4967 16.9357 29.8838 17.2212 30.1693C17.5066 30.4547 17.8937 30.615 18.2974 30.615Z" fill="#F76818"/>
<path d="M18.2974 24.527H39.6054C40.0091 24.527 40.3962 24.3667 40.6816 24.0812C40.967 23.7958 41.1274 23.4087 41.1274 23.005C41.1274 22.6014 40.967 22.2142 40.6816 21.9288C40.3962 21.6434 40.0091 21.483 39.6054 21.483H18.2974C17.8937 21.483 17.5066 21.6434 17.2212 21.9288C16.9357 22.2142 16.7754 22.6014 16.7754 23.005C16.7754 23.4087 16.9357 23.7958 17.2212 24.0812C17.5066 24.3667 17.8937 24.527 18.2974 24.527Z" fill="#F76818"/>
<path d="M16.9012 51.009C17.0201 51.2812 17.2159 51.5127 17.4647 51.6749C17.7135 51.8371 18.0042 51.923 18.3012 51.922C18.5108 51.923 18.7183 51.8801 18.9102 51.796C20.3192 51.2726 21.6142 50.4825 22.7242 49.469C23.1363 49.0577 23.4967 48.5977 23.7972 48.099C24.3785 48.7525 25.0616 49.3077 25.8202 49.743C26.3423 50.0844 26.935 50.303 27.5537 50.3821C28.1724 50.4613 28.801 50.399 29.3922 50.2C29.8515 50.0217 30.267 49.7465 30.6102 49.393C31.299 49.8236 32.0577 50.1302 32.8522 50.299L34.0032 50.571C36.3516 51.2589 38.7917 51.5824 41.2382 51.53C41.4388 51.5173 41.6348 51.465 41.8151 51.376C41.9953 51.2871 42.1561 51.1634 42.2883 51.012C42.4205 50.8606 42.5213 50.6845 42.5851 50.4939C42.6489 50.3034 42.6742 50.102 42.6598 49.9016C42.6453 49.7011 42.5913 49.5055 42.5009 49.3261C42.4104 49.1466 42.2853 48.9868 42.1328 48.856C41.9803 48.7251 41.8033 48.6258 41.6122 48.5636C41.4211 48.5015 41.2195 48.4779 41.0192 48.494C38.8842 48.5218 36.7575 48.2241 34.7122 47.611L33.5362 47.332C32.1162 47.005 31.7512 46.432 31.6002 46.032C31.4722 45.689 31.2248 45.4037 30.9034 45.2283C30.5821 45.0529 30.2083 44.9993 29.8505 45.0772C29.4928 45.155 29.1751 45.3593 28.9558 45.6524C28.7364 45.9455 28.6301 46.3079 28.6562 46.673C28.6645 46.807 28.6376 46.9408 28.5781 47.0612C28.5186 47.1815 28.4287 47.2842 28.3172 47.359C27.9631 47.4033 27.6054 47.3107 27.3172 47.1C26.0863 46.3337 25.1606 45.1627 24.6992 43.788C24.5728 43.4453 24.3272 43.1594 24.0074 42.9827C23.6877 42.806 23.315 42.7502 22.9575 42.8256C22.6 42.9009 22.2815 43.1023 22.0602 43.393C21.8389 43.6838 21.7296 44.0444 21.7522 44.409C21.7646 44.9473 21.6664 45.4823 21.4638 45.9811C21.2612 46.4799 20.9584 46.9319 20.5742 47.309C19.7293 48.0498 18.7536 48.6263 17.6972 49.009C17.3281 49.1704 17.0379 49.4715 16.8904 49.8464C16.7428 50.2213 16.75 50.6394 16.9102 51.009H16.9012Z" fill="#F76818"/>
<path d="M65.4782 38.2251C67.8864 38.2251 70.2405 37.5109 72.2429 36.173C74.2452 34.8351 75.8058 32.9335 76.7274 30.7086C77.649 28.4837 77.8901 26.0355 77.4203 23.6736C76.9505 21.3117 75.7908 19.1422 74.088 17.4393C72.3851 15.7365 70.2156 14.5768 67.8537 14.107C65.4918 13.6372 63.0436 13.8783 60.8187 14.7999C58.5938 15.7215 56.6922 17.2821 55.3543 19.2844C54.0164 21.2868 53.3022 23.6409 53.3022 26.0491C53.3022 29.2783 54.5851 32.3753 56.8685 34.6588C59.152 36.9422 62.249 38.2251 65.4782 38.2251ZM65.4782 16.9171C67.2844 16.9171 69.05 17.4526 70.5517 18.4561C72.0535 19.4595 73.2239 20.8857 73.9151 22.5544C74.6063 24.223 74.7871 26.0592 74.4348 27.8306C74.0824 29.6021 73.2127 31.2292 71.9355 32.5064C70.6584 33.7835 69.0312 34.6532 67.2598 35.0056C65.4884 35.3579 63.6522 35.1771 61.9836 34.4859C60.3149 33.7947 58.8887 32.6243 57.8853 31.1225C56.8818 29.6208 56.3462 27.8552 56.3462 26.0491C56.3462 23.6271 57.3084 21.3043 59.0209 19.5918C60.7335 17.8792 63.0563 16.9171 65.4782 16.9171Z" fill="#F76818"/>
</svg>
