<svg width="604" height="673" viewBox="0 0 604 673" fill="none" xmlns="http://www.w3.org/2000/svg">
<path d="M507.259 5.263H269.199V605.065H507.259V5.263Z" fill="#E0E0E0"/>
<path d="M507.26 0V610.329H551.112V0H507.26Z" fill="#E6E6E6"/>
<path d="M227.431 0V610.329H271.283V0H227.431Z" fill="#E6E6E6"/>
<path d="M220 0V610.329H512.524V0H220ZM501.997 10.5273V119.966H230.527V10.5273H501.997ZM230.527 359.898V250.459H501.997V359.898H230.527ZM501.997 370.425V479.864H230.527V370.425H501.997ZM230.527 239.932V130.493H501.997V239.932H230.527ZM230.527 599.83V490.391H501.997V599.83H230.527Z" fill="#F5F5F5"/>
<path d="M407.171 120.979H417.276V36.0566H407.171V120.979Z" fill="#E6E6E6"/>
<path d="M417.276 120.979H427.38V36.0566H417.276V120.979Z" fill="#E0E0E0"/>
<path d="M386.936 120.979H407.173V42.0239H386.936V120.979Z" fill="#E6E6E6"/>
<path d="M363.714 120.979H376.802V36.0566H363.714V120.979Z" fill="#F0F0F0"/>
<path d="M376.802 120.979H386.907V36.0566H376.802V120.979Z" fill="#EBEBEB"/>
<path d="M286.96 120.979H300.048V36.0566H286.96V120.979Z" fill="#E6E6E6"/>
<path d="M300.076 120.979H310.181V36.0566H300.076V120.979Z" fill="#EBEBEB"/>
<path d="M330.39 120.979H343.478V36.0566H330.39V120.979Z" fill="#E6E6E6"/>
<path d="M343.504 120.979H353.609V36.0566H343.504V120.979Z" fill="#E0E0E0"/>
<path d="M266.722 120.979H286.959V38.0832H266.722V120.979Z" fill="#EBEBEB"/>
<path d="M256.618 120.979H266.751V38.0832H256.618V120.979Z" fill="#E0E0E0"/>
<path d="M316.935 120.979H330.417V38.0832H316.935V120.979Z" fill="#E0E0E0"/>
<path d="M310.153 120.979H316.908V38.0832H310.153V120.979Z" fill="#F0F0F0"/>
<path d="M343.506 120.979H363.743V42.0239H343.506V120.979Z" fill="#F5F5F5"/>
<path d="M457.723 120.979H470.811V36.0566H457.723V120.979Z" fill="#EBEBEB"/>
<path d="M470.839 120.979H480.943V36.0566H470.839V120.979Z" fill="#E6E6E6"/>
<path d="M437.513 120.979H457.75V38.0832H437.513V120.979Z" fill="#E0E0E0"/>
<path d="M427.382 120.979H437.515V38.0832H427.382V120.979Z" fill="#EBEBEB"/>
<path d="M487.699 120.979H501.181V38.0832H487.699V120.979Z" fill="#EBEBEB"/>
<path d="M480.943 120.979H487.698V38.0832H480.943V120.979Z" fill="#FAFAFA"/>
<path d="M350.628 154.955H340.523V239.877H350.628V154.955Z" fill="#E6E6E6"/>
<path d="M340.523 154.955H330.418V239.877H340.523V154.955Z" fill="#E0E0E0"/>
<path d="M370.893 160.923H350.656V239.878H370.893V160.923Z" fill="#E6E6E6"/>
<path d="M394.086 154.955H380.998V239.877H394.086V154.955Z" fill="#F0F0F0"/>
<path d="M381.025 154.955H370.893V239.877H381.025V154.955Z" fill="#EBEBEB"/>
<path d="M470.84 154.955H457.752V239.877H470.84V154.955Z" fill="#E6E6E6"/>
<path d="M457.724 154.955H447.62V239.877H457.724V154.955Z" fill="#EBEBEB"/>
<path d="M427.411 154.955H414.323V239.877H427.411V154.955Z" fill="#E6E6E6"/>
<path d="M414.294 154.955H404.19V239.877H414.294V154.955Z" fill="#E0E0E0"/>
<path d="M491.049 156.983H470.812V239.878H491.049V156.983Z" fill="#EBEBEB"/>
<path d="M501.182 156.983H491.049V239.878H501.182V156.983Z" fill="#E0E0E0"/>
<path d="M440.864 156.983H427.382V239.878H440.864V156.983Z" fill="#E0E0E0"/>
<path d="M447.647 156.983H440.892V239.878H447.647V156.983Z" fill="#F0F0F0"/>
<path d="M414.323 160.923H394.085V239.878H414.323V160.923Z" fill="#F5F5F5"/>
<path d="M300.077 154.955H286.989V239.877H300.077V154.955Z" fill="#EBEBEB"/>
<path d="M286.96 154.955H276.856V239.877H286.96V154.955Z" fill="#E6E6E6"/>
<path d="M320.286 156.983H300.049V239.878H320.286V156.983Z" fill="#E0E0E0"/>
<path d="M330.419 156.983H320.286V239.878H330.419V156.983Z" fill="#EBEBEB"/>
<path d="M270.101 156.983H256.619V239.878H270.101V156.983Z" fill="#EBEBEB"/>
<path d="M276.856 156.983H270.101V239.878H276.856V156.983Z" fill="#FAFAFA"/>
<path d="M350.626 275.991H340.522V360.913H350.626V275.991Z" fill="#E6E6E6"/>
<path d="M340.521 275.991H330.417V360.913H340.521V275.991Z" fill="#E0E0E0"/>
<path d="M370.891 281.959H350.654V360.913H370.891V281.959Z" fill="#E6E6E6"/>
<path d="M394.085 275.991H380.997V360.913H394.085V275.991Z" fill="#F0F0F0"/>
<path d="M381.024 275.991H370.891V360.913H381.024V275.991Z" fill="#EBEBEB"/>
<path d="M470.838 275.991H457.75V360.913H470.838V275.991Z" fill="#E6E6E6"/>
<path d="M457.723 275.991H447.619V360.913H457.723V275.991Z" fill="#EBEBEB"/>
<path d="M427.409 275.991H414.321V360.913H427.409V275.991Z" fill="#E6E6E6"/>
<path d="M414.292 275.991H404.188V360.913H414.292V275.991Z" fill="#E0E0E0"/>
<path d="M491.047 277.99H470.81V360.885H491.047V277.99Z" fill="#EBEBEB"/>
<path d="M501.18 277.99H491.047V360.885H501.18V277.99Z" fill="#E0E0E0"/>
<path d="M440.862 277.99H427.38V360.885H440.862V277.99Z" fill="#E0E0E0"/>
<path d="M447.645 277.99H440.89V360.885H447.645V277.99Z" fill="#F0F0F0"/>
<path d="M414.321 281.959H394.083V360.913H414.321V281.959Z" fill="#F5F5F5"/>
<path d="M300.076 275.991H286.988V360.913H300.076V275.991Z" fill="#EBEBEB"/>
<path d="M286.96 275.991H276.855V360.913H286.96V275.991Z" fill="#E6E6E6"/>
<path d="M320.285 277.99H300.048V360.885H320.285V277.99Z" fill="#E0E0E0"/>
<path d="M330.417 277.99H320.285V360.885H330.417V277.99Z" fill="#EBEBEB"/>
<path d="M270.1 277.99H256.618V360.885H270.1V277.99Z" fill="#EBEBEB"/>
<path d="M276.855 277.99H270.1V360.885H276.855V277.99Z" fill="#FAFAFA"/>
<path d="M407.171 481.919H417.276V396.997H407.171V481.919Z" fill="#E6E6E6"/>
<path d="M417.276 481.919H427.38V396.997H417.276V481.919Z" fill="#E0E0E0"/>
<path d="M386.936 475.952H407.173V396.998H386.936V475.952Z" fill="#E6E6E6"/>
<path d="M363.714 481.919H376.802V396.997H363.714V481.919Z" fill="#F0F0F0"/>
<path d="M376.802 481.919H386.907V396.997H376.802V481.919Z" fill="#EBEBEB"/>
<path d="M286.96 481.919H300.048V396.997H286.96V481.919Z" fill="#E6E6E6"/>
<path d="M300.076 481.919H310.181V396.997H300.076V481.919Z" fill="#EBEBEB"/>
<path d="M330.39 481.919H343.478V396.997H330.39V481.919Z" fill="#E6E6E6"/>
<path d="M343.504 481.919H353.609V396.997H343.504V481.919Z" fill="#E0E0E0"/>
<path d="M266.722 479.894H286.959V396.998H266.722V479.894Z" fill="#EBEBEB"/>
<path d="M256.618 479.894H266.751V396.998H256.618V479.894Z" fill="#E0E0E0"/>
<path d="M316.935 479.894H330.417V396.998H316.935V479.894Z" fill="#E0E0E0"/>
<path d="M310.153 479.894H316.908V396.998H310.153V479.894Z" fill="#F0F0F0"/>
<path d="M343.506 475.952H363.743V396.998H343.506V475.952Z" fill="#F5F5F5"/>
<path d="M457.723 481.919H470.811V396.997H457.723V481.919Z" fill="#EBEBEB"/>
<path d="M470.839 481.919H480.943V396.997H470.839V481.919Z" fill="#E6E6E6"/>
<path d="M437.513 479.894H457.75V396.998H437.513V479.894Z" fill="#E0E0E0"/>
<path d="M427.382 479.894H437.515V396.998H427.382V479.894Z" fill="#EBEBEB"/>
<path d="M487.699 479.894H501.181V396.998H487.699V479.894Z" fill="#EBEBEB"/>
<path d="M480.943 479.894H487.698V396.998H480.943V479.894Z" fill="#FAFAFA"/>
<path d="M350.626 518.004H340.522V602.926H350.626V518.004Z" fill="#E6E6E6"/>
<path d="M340.521 518.004H330.417V602.926H340.521V518.004Z" fill="#E0E0E0"/>
<path d="M370.891 518.004H350.654V596.959H370.891V518.004Z" fill="#E6E6E6"/>
<path d="M394.085 518.004H380.997V602.926H394.085V518.004Z" fill="#F0F0F0"/>
<path d="M381.024 518.004H370.891V602.926H381.024V518.004Z" fill="#EBEBEB"/>
<path d="M470.838 518.004H457.75V602.926H470.838V518.004Z" fill="#E6E6E6"/>
<path d="M457.723 518.004H447.619V602.926H457.723V518.004Z" fill="#EBEBEB"/>
<path d="M427.409 518.004H414.321V602.926H427.409V518.004Z" fill="#E6E6E6"/>
<path d="M414.292 518.004H404.188V602.926H414.292V518.004Z" fill="#E0E0E0"/>
<path d="M491.047 518.004H470.81V600.899H491.047V518.004Z" fill="#EBEBEB"/>
<path d="M501.18 518.004H491.047V600.899H501.18V518.004Z" fill="#E0E0E0"/>
<path d="M440.862 518.004H427.38V600.899H440.862V518.004Z" fill="#E0E0E0"/>
<path d="M447.645 518.004H440.89V600.899H447.645V518.004Z" fill="#F0F0F0"/>
<path d="M414.321 518.004H394.083V596.959H414.321V518.004Z" fill="#F5F5F5"/>
<path d="M300.076 518.004H286.988V602.926H300.076V518.004Z" fill="#EBEBEB"/>
<path d="M286.96 518.004H276.855V602.926H286.96V518.004Z" fill="#E6E6E6"/>
<path d="M320.285 518.004H300.048V600.899H320.285V518.004Z" fill="#E0E0E0"/>
<path d="M330.417 518.004H320.285V600.899H330.417V518.004Z" fill="#EBEBEB"/>
<path d="M270.1 518.004H256.618V600.899H270.1V518.004Z" fill="#EBEBEB"/>
<path d="M276.855 518.004H270.1V600.899H276.855V518.004Z" fill="#FAFAFA"/>
<g filter="url(#filter0_b_641_772)">
<path d="M247.175 199.869H84.5991V609.485H247.175V199.869Z" fill="#E0E0E0"/>
<path d="M247.176 196.275V613.08H277.123V196.275H247.176Z" fill="#E6E6E6"/>
<path d="M56.0747 196.275V613.08H86.0219V196.275H56.0747Z" fill="#E6E6E6"/>
<path d="M51 196.275V613.08H250.77V196.275H51ZM243.581 203.464V278.202H58.1889V203.464H243.581ZM58.1889 442.056V367.318H243.581V442.056H58.1889ZM243.581 449.245V523.983H58.1889V449.245H243.581ZM58.1889 360.129V285.391H243.581V360.129H58.1889ZM58.1889 605.91V531.172H243.581V605.91H58.1889Z" fill="#F5F5F5"/>
<path d="M178.824 278.895H185.725V220.9H178.824V278.895Z" fill="#E6E6E6"/>
<path d="M185.724 278.895H192.625V220.9H185.724V278.895Z" fill="#E0E0E0"/>
<path d="M165.004 278.895H178.824V224.975H165.004V278.895Z" fill="#E6E6E6"/>
<path d="M149.145 278.895H158.083V220.9H149.145V278.895Z" fill="#F0F0F0"/>
<path d="M158.084 278.895H164.984V220.9H158.084V278.895Z" fill="#EBEBEB"/>
<path d="M96.7285 278.895H105.667V220.9H96.7285V278.895Z" fill="#E6E6E6"/>
<path d="M105.685 278.895H112.586V220.9H105.685V278.895Z" fill="#EBEBEB"/>
<path d="M126.388 278.895H135.326V220.9H126.388V278.895Z" fill="#E6E6E6"/>
<path d="M135.344 278.895H142.245V220.9H135.344V278.895Z" fill="#E0E0E0"/>
<path d="M82.9077 278.895H96.728V222.284H82.9077V278.895Z" fill="#EBEBEB"/>
<path d="M76.008 278.895H82.9277V222.284H76.008V278.895Z" fill="#E0E0E0"/>
<path d="M117.199 278.895H126.406V222.284H117.199V278.895Z" fill="#E0E0E0"/>
<path d="M112.567 278.895H117.181V222.284H112.567V278.895Z" fill="#F0F0F0"/>
<path d="M135.345 278.895H149.165V224.975H135.345V278.895Z" fill="#F5F5F5"/>
<path d="M213.346 278.895H222.284V220.9H213.346V278.895Z" fill="#EBEBEB"/>
<path d="M222.303 278.895H229.204V220.9H222.303V278.895Z" fill="#E6E6E6"/>
<path d="M199.544 278.895H213.365V222.284H199.544V278.895Z" fill="#E0E0E0"/>
<path d="M192.625 278.895H199.544V222.284H192.625V278.895Z" fill="#EBEBEB"/>
<path d="M233.817 278.895H243.024V222.284H233.817V278.895Z" fill="#EBEBEB"/>
<path d="M229.203 278.895H233.816V222.284H229.203V278.895Z" fill="#FAFAFA"/>
<path d="M140.208 302.096H133.307V360.091H140.208V302.096Z" fill="#E6E6E6"/>
<path d="M133.307 302.096H126.406V360.091H133.307V302.096Z" fill="#E0E0E0"/>
<path d="M154.047 306.171H140.227V360.091H154.047V306.171Z" fill="#E6E6E6"/>
<path d="M169.886 302.096H160.948V360.091H169.886V302.096Z" fill="#F0F0F0"/>
<path d="M160.967 302.096H154.047V360.091H160.967V302.096Z" fill="#EBEBEB"/>
<path d="M222.303 302.096H213.365V360.091H222.303V302.096Z" fill="#E6E6E6"/>
<path d="M213.346 302.096H206.445V360.091H213.346V302.096Z" fill="#EBEBEB"/>
<path d="M192.644 302.096H183.706V360.091H192.644V302.096Z" fill="#E6E6E6"/>
<path d="M183.688 302.096H176.787V360.091H183.688V302.096Z" fill="#E0E0E0"/>
<path d="M236.104 303.48H222.284V360.091H236.104V303.48Z" fill="#EBEBEB"/>
<path d="M243.023 303.48H236.104V360.091H243.023V303.48Z" fill="#E0E0E0"/>
<path d="M201.832 303.48H192.625V360.091H201.832V303.48Z" fill="#E0E0E0"/>
<path d="M206.464 303.48H201.851V360.091H206.464V303.48Z" fill="#F0F0F0"/>
<path d="M183.706 306.171H169.886V360.091H183.706V306.171Z" fill="#F5F5F5"/>
<path d="M105.686 302.096H96.748V360.091H105.686V302.096Z" fill="#EBEBEB"/>
<path d="M96.7282 302.096H89.8276V360.091H96.7282V302.096Z" fill="#E6E6E6"/>
<path d="M119.487 303.48H105.667V360.091H119.487V303.48Z" fill="#E0E0E0"/>
<path d="M126.407 303.48H119.487V360.091H126.407V303.48Z" fill="#EBEBEB"/>
<path d="M85.2145 303.48H76.0073V360.091H85.2145V303.48Z" fill="#EBEBEB"/>
<path d="M89.828 303.48H85.2148V360.091H89.828V303.48Z" fill="#FAFAFA"/>
<path d="M140.208 384.754H133.307V442.748H140.208V384.754Z" fill="#E6E6E6"/>
<path d="M133.307 384.754H126.406V442.748H133.307V384.754Z" fill="#E0E0E0"/>
<path d="M154.047 388.829H140.227V442.749H154.047V388.829Z" fill="#E6E6E6"/>
<path d="M169.886 384.754H160.948V442.748H169.886V384.754Z" fill="#F0F0F0"/>
<path d="M160.967 384.754H154.047V442.748H160.967V384.754Z" fill="#EBEBEB"/>
<path d="M222.303 384.754H213.365V442.748H222.303V384.754Z" fill="#E6E6E6"/>
<path d="M213.346 384.754H206.445V442.748H213.346V384.754Z" fill="#EBEBEB"/>
<path d="M192.644 384.754H183.706V442.748H192.644V384.754Z" fill="#E6E6E6"/>
<path d="M183.688 384.754H176.787V442.748H183.688V384.754Z" fill="#E0E0E0"/>
<path d="M236.104 386.119H222.284V442.73H236.104V386.119Z" fill="#EBEBEB"/>
<path d="M243.023 386.119H236.104V442.73H243.023V386.119Z" fill="#E0E0E0"/>
<path d="M201.832 386.119H192.625V442.73H201.832V386.119Z" fill="#E0E0E0"/>
<path d="M206.464 386.119H201.851V442.73H206.464V386.119Z" fill="#F0F0F0"/>
<path d="M183.706 388.829H169.886V442.749H183.706V388.829Z" fill="#F5F5F5"/>
<path d="M105.686 384.754H96.748V442.748H105.686V384.754Z" fill="#EBEBEB"/>
<path d="M96.7282 384.754H89.8276V442.748H96.7282V384.754Z" fill="#E6E6E6"/>
<path d="M119.487 386.119H105.667V442.73H119.487V386.119Z" fill="#E0E0E0"/>
<path d="M126.407 386.119H119.487V442.73H126.407V386.119Z" fill="#EBEBEB"/>
<path d="M85.2145 386.119H76.0073V442.73H85.2145V386.119Z" fill="#EBEBEB"/>
<path d="M89.828 386.119H85.2148V442.73H89.828V386.119Z" fill="#FAFAFA"/>
<path d="M178.824 525.387H185.725V467.392H178.824V525.387Z" fill="#E6E6E6"/>
<path d="M185.724 525.387H192.625V467.392H185.724V525.387Z" fill="#E0E0E0"/>
<path d="M165.004 521.311H178.824V467.392H165.004V521.311Z" fill="#E6E6E6"/>
<path d="M149.145 525.387H158.083V467.392H149.145V525.387Z" fill="#F0F0F0"/>
<path d="M158.084 525.387H164.984V467.392H158.084V525.387Z" fill="#EBEBEB"/>
<path d="M96.7285 525.387H105.667V467.392H96.7285V525.387Z" fill="#E6E6E6"/>
<path d="M105.685 525.387H112.586V467.392H105.685V525.387Z" fill="#EBEBEB"/>
<path d="M126.388 525.387H135.326V467.392H126.388V525.387Z" fill="#E6E6E6"/>
<path d="M135.344 525.387H142.245V467.392H135.344V525.387Z" fill="#E0E0E0"/>
<path d="M82.9077 524.002H96.728V467.392H82.9077V524.002Z" fill="#EBEBEB"/>
<path d="M76.008 524.002H82.9277V467.392H76.008V524.002Z" fill="#E0E0E0"/>
<path d="M117.199 524.002H126.406V467.392H117.199V524.002Z" fill="#E0E0E0"/>
<path d="M112.567 524.002H117.181V467.392H112.567V524.002Z" fill="#F0F0F0"/>
<path d="M135.345 521.311H149.165V467.392H135.345V521.311Z" fill="#F5F5F5"/>
<path d="M213.346 525.387H222.284V467.392H213.346V525.387Z" fill="#EBEBEB"/>
<path d="M222.303 525.387H229.204V467.392H222.303V525.387Z" fill="#E6E6E6"/>
<path d="M199.544 524.002H213.365V467.392H199.544V524.002Z" fill="#E0E0E0"/>
<path d="M192.625 524.002H199.544V467.392H192.625V524.002Z" fill="#EBEBEB"/>
<path d="M233.817 524.002H243.024V467.392H233.817V524.002Z" fill="#EBEBEB"/>
<path d="M229.203 524.002H233.816V467.392H229.203V524.002Z" fill="#FAFAFA"/>
<path d="M140.208 550.03H133.307V608.025H140.208V550.03Z" fill="#E6E6E6"/>
<path d="M133.307 550.03H126.406V608.025H133.307V550.03Z" fill="#E0E0E0"/>
<path d="M154.047 550.03H140.227V603.95H154.047V550.03Z" fill="#E6E6E6"/>
<path d="M169.886 550.03H160.948V608.025H169.886V550.03Z" fill="#F0F0F0"/>
<path d="M160.967 550.03H154.047V608.025H160.967V550.03Z" fill="#EBEBEB"/>
<path d="M222.303 550.03H213.365V608.025H222.303V550.03Z" fill="#E6E6E6"/>
<path d="M213.346 550.03H206.445V608.025H213.346V550.03Z" fill="#EBEBEB"/>
<path d="M192.644 550.03H183.706V608.025H192.644V550.03Z" fill="#E6E6E6"/>
<path d="M183.688 550.03H176.787V608.025H183.688V550.03Z" fill="#E0E0E0"/>
<path d="M236.104 550.03H222.284V606.641H236.104V550.03Z" fill="#EBEBEB"/>
<path d="M243.023 550.03H236.104V606.641H243.023V550.03Z" fill="#E0E0E0"/>
<path d="M201.832 550.03H192.625V606.641H201.832V550.03Z" fill="#E0E0E0"/>
<path d="M206.464 550.03H201.851V606.641H206.464V550.03Z" fill="#F0F0F0"/>
<path d="M183.706 550.03H169.886V603.95H183.706V550.03Z" fill="#F5F5F5"/>
<path d="M105.686 550.03H96.748V608.025H105.686V550.03Z" fill="#EBEBEB"/>
<path d="M96.7282 550.03H89.8276V608.025H96.7282V550.03Z" fill="#E6E6E6"/>
<path d="M119.487 550.03H105.667V606.641H119.487V550.03Z" fill="#E0E0E0"/>
<path d="M126.407 550.03H119.487V606.641H126.407V550.03Z" fill="#EBEBEB"/>
<path d="M85.2145 550.03H76.0073V606.641H85.2145V550.03Z" fill="#EBEBEB"/>
<path d="M89.828 550.03H85.2148V606.641H89.828V550.03Z" fill="#FAFAFA"/>
</g>
<g clip-path="url(#clip0_641_772)">
<path d="M604 672.663C604 672.845 468.776 673 302.013 673C135.25 673 0 672.845 0 672.663C0 672.482 135.199 672.327 302.013 672.327C468.827 672.327 604 672.482 604 672.663Z" fill="#263238"/>
<path d="M590.671 608.412H54.0952V672.456H590.671V608.412Z" fill="#980CF7"/>
<path d="M581.922 616.414H54.0952V664.195H581.922V616.414Z" fill="#F5F5F5"/>
<path opacity="0.3" d="M590.671 608.412H486.402V672.456H590.671V608.412Z" fill="black"/>
<path d="M581.909 626.864C581.909 626.864 581.443 626.89 580.55 626.903C579.632 626.903 578.299 626.916 576.551 626.942C573.018 626.955 567.829 626.98 561.151 627.006C547.77 627.032 528.422 627.071 504.533 627.11C456.714 627.136 390.674 627.175 317.737 627.213C244.773 627.175 178.733 627.136 130.902 627.11C107.012 627.071 87.665 627.032 74.2836 627.006C67.6059 626.98 62.4293 626.955 58.8963 626.942C57.1492 626.929 55.8163 626.916 54.8974 626.903C53.9915 626.903 53.5386 626.864 53.5386 626.864C53.5386 626.864 54.0045 626.838 54.8974 626.825C55.8163 626.825 57.1492 626.812 58.8963 626.786C62.4293 626.773 67.6188 626.747 74.2836 626.721C87.665 626.696 106.999 626.657 130.902 626.618C178.721 626.592 244.773 626.553 317.737 626.514C390.674 626.553 456.714 626.592 504.533 626.618C528.422 626.657 547.77 626.696 561.151 626.721C567.829 626.747 573.005 626.773 576.551 626.786C578.299 626.799 579.632 626.812 580.55 626.825C581.456 626.825 581.909 626.864 581.909 626.864Z" fill="#263238"/>
<path d="M581.909 639.631C581.909 639.631 581.443 639.657 580.55 639.67C579.632 639.67 578.299 639.683 576.551 639.709C573.018 639.722 567.829 639.748 561.151 639.774C547.77 639.8 528.422 639.838 504.533 639.877C456.714 639.903 390.674 639.942 317.737 639.981C244.773 639.942 178.733 639.903 130.902 639.877C107.012 639.838 87.665 639.8 74.2836 639.774C67.6059 639.748 62.4293 639.722 58.8963 639.709C57.1492 639.696 55.8163 639.683 54.8974 639.67C53.9915 639.67 53.5386 639.631 53.5386 639.631C53.5386 639.631 54.0045 639.605 54.8974 639.592C55.8163 639.592 57.1492 639.579 58.8963 639.554C62.4293 639.541 67.6188 639.515 74.2836 639.489C87.665 639.463 106.999 639.424 130.902 639.385C178.721 639.359 244.773 639.32 317.737 639.282C390.674 639.32 456.714 639.359 504.533 639.385C528.422 639.424 547.77 639.463 561.151 639.489C567.829 639.515 573.005 639.541 576.551 639.554C578.299 639.567 579.632 639.579 580.55 639.592C581.456 639.592 581.909 639.631 581.909 639.631Z" fill="#263238"/>
<path d="M581.909 652.412C581.909 652.412 581.443 652.438 580.55 652.45C579.632 652.45 578.299 652.463 576.551 652.489C573.018 652.502 567.829 652.528 561.151 652.554C547.77 652.58 528.422 652.619 504.533 652.658C456.714 652.684 390.674 652.722 317.737 652.761C244.773 652.722 178.733 652.684 130.902 652.658C107.012 652.619 87.665 652.58 74.2836 652.554C67.6059 652.528 62.4293 652.502 58.8963 652.489C57.1492 652.476 55.8163 652.463 54.8974 652.45C53.9915 652.45 53.5386 652.412 53.5386 652.412C53.5386 652.412 54.0045 652.386 54.8974 652.373C55.8163 652.373 57.1492 652.36 58.8963 652.334C62.4293 652.321 67.6188 652.295 74.2836 652.269C87.665 652.243 106.999 652.204 130.902 652.166C178.721 652.14 244.773 652.101 317.737 652.062C390.674 652.101 456.714 652.14 504.533 652.166C528.422 652.204 547.77 652.243 561.151 652.269C567.829 652.295 573.005 652.321 576.551 652.334C578.299 652.347 579.632 652.36 580.55 652.373C581.456 652.373 581.909 652.412 581.909 652.412Z" fill="#263238"/>
<path d="M486.712 671.394C486.531 671.394 486.376 657.449 486.376 640.266C486.376 623.083 486.531 609.124 486.712 609.124C486.894 609.124 487.049 623.057 487.049 640.266C487.049 657.475 486.894 671.394 486.712 671.394Z" fill="#263238"/>
<path d="M513.876 549.159H142.795V608.412H513.876V549.159Z" fill="#FCB21D"/>
<path d="M546.178 549.496H445.197V608.062H546.178V549.496Z" fill="#FCB21D"/>
<path d="M546.178 557.524H454.696V599.607H546.178V557.524Z" fill="#F5F5F5"/>
<path opacity="0.3" d="M546.178 549.496H445.197V608.062H546.178V549.496Z" fill="black"/>
<path d="M418.046 595.412C418.046 595.412 418.033 594.855 418.02 593.78C418.02 592.692 418.007 591.1 417.981 589.015C417.968 584.82 417.942 578.643 417.903 570.628L418.046 570.77C375.041 570.809 278.149 570.887 165.585 570.964H165.572L165.909 570.628C165.909 579.122 165.909 587.513 165.909 595.412L165.572 595.075C236.388 595.127 299.451 595.178 344.836 595.217C367.548 595.256 385.822 595.295 398.439 595.321C404.742 595.347 409.634 595.36 412.96 595.373C414.616 595.373 415.872 595.386 416.739 595.399C417.593 595.399 418.046 595.424 418.046 595.424C418.046 595.424 417.632 595.437 416.79 595.45C415.936 595.45 414.694 595.463 413.05 595.476C409.737 595.476 404.884 595.502 398.608 595.528C386.003 595.554 367.755 595.58 345.082 595.632C299.632 595.671 236.491 595.722 165.572 595.774H165.236V595.437C165.236 587.552 165.236 579.148 165.236 570.654V570.317H165.572H165.585C278.149 570.408 375.041 570.485 418.046 570.511H418.188V570.654C418.149 578.708 418.123 584.91 418.11 589.118C418.097 591.19 418.084 592.77 418.072 593.845C418.072 594.907 418.046 595.424 418.046 595.424V595.412Z" fill="#263238"/>
<path d="M445.326 608.024C445.145 608.024 444.99 594.751 444.99 578.371C444.99 561.991 445.145 548.719 445.326 548.719C445.507 548.719 445.663 561.991 445.663 578.371C445.663 594.751 445.507 608.024 445.326 608.024Z" fill="#263238"/>
<path d="M491.022 480H119.941V526.369H491.022V480Z" fill="#980CF7"/>
<path d="M409.09 517.227C409.09 517.227 409.064 517.033 409.051 516.697C409.051 516.308 409.026 515.816 409.013 515.22C408.987 513.874 408.961 512.022 408.935 509.73C408.896 505.004 408.844 498.426 408.78 490.722L409.09 491.032C403.72 491.032 397.767 491.045 391.529 491.058C391.451 491.136 392.163 490.424 391.865 490.722V491.654V492.586C391.865 493.208 391.865 493.816 391.865 494.438C391.865 495.655 391.865 496.872 391.865 498.063C391.865 500.446 391.865 502.764 391.852 505.004C391.839 509.458 391.813 513.589 391.801 517.24L391.529 516.968C396.796 517.033 401.131 517.072 404.25 517.111C405.725 517.137 406.916 517.163 407.809 517.176C408.637 517.202 409.077 517.214 409.103 517.24C409.116 517.253 408.715 517.279 407.913 517.305C407.033 517.318 405.868 517.344 404.418 517.37C401.261 517.409 396.861 517.448 391.529 517.512H391.257V517.24C391.244 513.576 391.231 509.458 391.205 505.004C391.205 502.764 391.205 500.446 391.192 498.063C391.192 496.872 391.192 495.655 391.192 494.438C391.192 493.829 391.192 493.208 391.192 492.586V491.654V491.188V490.747V490.722C390.895 491.019 391.606 490.307 391.529 490.385C397.779 490.385 403.72 490.398 409.09 490.411H409.401V490.722C409.336 498.517 409.284 505.159 409.246 509.937C409.207 512.203 409.181 514.029 409.168 515.363C409.155 515.933 409.142 516.399 409.129 516.774C409.129 517.098 409.103 517.253 409.09 517.24V517.227Z" fill="#263238"/>
<path d="M491.022 487.251H433.782V518.613H491.022V487.251Z" fill="white"/>
<path opacity="0.3" d="M491.009 480H426.237V526.369H491.009V480Z" fill="black"/>
<path d="M425.966 526.097C425.785 526.097 425.629 515.868 425.629 503.243C425.629 490.618 425.785 480.388 425.966 480.388C426.147 480.388 426.302 490.618 426.302 503.243C426.302 515.868 426.147 526.097 425.966 526.097Z" fill="#263238"/>
<path d="M491.449 494.671C491.449 494.852 478.443 495.007 462.396 495.007C446.348 495.007 433.342 494.852 433.342 494.671C433.342 494.49 446.348 494.334 462.396 494.334C478.443 494.334 491.449 494.49 491.449 494.671Z" fill="#263238"/>
<path d="M491.449 502.932C491.449 503.113 478.443 503.269 462.396 503.269C446.348 503.269 433.342 503.113 433.342 502.932C433.342 502.751 446.348 502.595 462.396 502.595C478.443 502.595 491.449 502.751 491.449 502.932Z" fill="#263238"/>
<path d="M491.449 511.297C491.449 511.478 478.443 511.634 462.396 511.634C446.348 511.634 433.342 511.478 433.342 511.297C433.342 511.116 446.348 510.96 462.396 510.96C478.443 510.96 491.449 511.116 491.449 511.297Z" fill="#263238"/>
<path d="M554.694 526.369H183.613V549.25H554.694V526.369Z" fill="#980CF7"/>
<path d="M554.693 529.231H471.739V546.556H554.693V529.231Z" fill="#E0E0E0"/>
<path opacity="0.3" d="M554.68 526.369H467.042V549.25H554.68V526.369Z" fill="black"/>
<path d="M467.042 549.25C466.861 549.25 466.718 544.316 466.731 538.243C466.744 532.157 466.912 527.237 467.094 527.237C467.275 527.237 467.417 532.17 467.404 538.243C467.391 544.316 467.223 549.25 467.042 549.25Z" fill="#263238"/>
<path d="M433.783 535.187H210.298V540.652H433.783V535.187Z" fill="#E0E0E0"/>
<path d="M458.022 549.068C458.022 549.25 396.524 549.405 320.688 549.405C244.851 549.405 183.341 549.25 183.341 549.068C183.341 548.887 244.825 548.732 320.688 548.732C396.55 548.732 458.022 548.887 458.022 549.068Z" fill="#263238"/>
<path d="M467.961 549.172C467.961 549.353 406.463 549.508 330.627 549.508C254.79 549.508 193.28 549.353 193.28 549.172C193.28 548.991 254.764 548.835 330.627 548.835C406.489 548.835 467.961 548.991 467.961 549.172Z" fill="#263238"/>
<path d="M554.694 526.201C554.694 526.382 473.784 526.538 373.993 526.538C274.202 526.538 193.28 526.382 193.28 526.201C193.28 526.02 274.176 525.864 373.993 525.864C473.81 525.864 554.694 526.02 554.694 526.201Z" fill="#263238"/>
</g>
<defs>
<filter id="filter0_b_641_772" x="3" y="148.275" width="322.123" height="512.805" filterUnits="userSpaceOnUse" color-interpolation-filters="sRGB">
<feFlood flood-opacity="0" result="BackgroundImageFix"/>
<feGaussianBlur in="BackgroundImageFix" stdDeviation="24"/>
<feComposite in2="SourceAlpha" operator="in" result="effect1_backgroundBlur_641_772"/>
<feBlend mode="normal" in="SourceGraphic" in2="effect1_backgroundBlur_641_772" result="shape"/>
</filter>
<clipPath id="clip0_641_772">
<rect width="604" height="193" fill="white" transform="translate(0 480)"/>
</clipPath>
</defs>
</svg>
