<svg width="156" height="72" viewBox="0 0 156 72" fill="none" xmlns="http://www.w3.org/2000/svg">
<path d="M70.2972 0.00674485C74.415 0.0729999 93.898 0.490608 98.5379 18.3213C101.819 30.9238 91.543 40.3742 85.2066 45.0702C69.7149 56.5525 70.4538 62.5475 70.3734 65.2459C70.2008 70.99 74.5295 73.6342 68.5203 70.8274C55.7411 64.8544 24.6313 51.7861 25.4545 30.2331C26.0849 13.6995 47.6841 -0.352639 70.2972 0.00674485Z" fill="#FCB21D"/>
<path d="M66.6758 12.6634L68.1816 4.95166L72.5745 6.83893L68.019 13.2416L66.6758 12.6634Z" fill="#980CF7"/>
<path d="M70.0225 14.9165L75.3068 9.1001L78.0875 12.9891L70.8737 16.1051L70.0225 14.9165Z" fill="#980CF7"/>
<path d="M70.7214 25.77C70.7214 23.4169 70.3199 21.3971 69.5148 19.7127C68.7097 18.0302 67.5854 16.7251 66.1398 15.8016C64.6942 14.878 63.0178 14.4163 61.1104 14.4163C59.5002 14.4163 58.0627 14.7736 56.7958 15.4884C55.529 16.2031 54.5833 17.1588 53.9569 18.3494L52.3828 14.862H48.5039V72H54.0914V55.9321C54.7459 57.0645 55.6936 57.9659 56.9303 58.6365C58.1671 59.3071 59.5605 59.6424 61.1104 59.6424C63.0479 59.6424 64.7324 59.1806 66.1619 58.2571C67.5934 57.3335 68.7097 56.0144 69.5148 54.2998C70.3179 52.5912 70.7194 50.5795 70.7214 48.2646V25.7921C70.7214 25.7921 70.7214 25.778 70.7214 25.77ZM65.0878 48.2646C65.0837 50.6076 64.5778 52.3804 63.5679 53.5851C62.554 54.7917 61.2128 55.396 59.5444 55.396C57.876 55.396 56.5328 54.7917 55.5209 53.5851C54.511 52.3824 54.0051 50.6076 54.0011 48.2646V25.7921C54.0011 25.7921 54.0011 25.778 54.0011 25.77C54.0011 23.3868 54.507 21.6059 55.5209 20.4274C56.5328 19.2509 57.874 18.6606 59.5444 18.6606C61.2148 18.6606 62.554 19.2489 63.5679 20.4274C64.5798 21.6059 65.0878 23.3848 65.0878 25.77C65.0878 25.778 65.0878 25.784 65.0878 25.7921V48.2646Z" fill="#F76818"/>
<path d="M10.4136 37.1698C8.56444 37.1698 6.83779 36.947 5.22759 36.4992C3.61739 36.0515 2.27623 35.411 1.2041 34.5778L2.63561 30.9117C3.73786 31.6566 4.97462 32.2308 6.3459 32.6323C7.71718 33.0339 9.08846 33.2367 10.4597 33.2367C11.831 33.2367 12.9553 32.9917 13.656 32.4998C14.3567 32.0079 14.7061 31.3594 14.7061 30.5543C14.7061 29.3035 13.7825 28.4984 11.9334 28.141L7.4622 27.2918C3.67763 26.577 1.78434 24.6095 1.78434 21.3911C1.78434 19.9595 2.17986 18.7248 2.9689 17.6808C3.75793 16.6388 4.85416 15.8337 6.25555 15.2675C7.65695 14.7013 9.26514 14.4182 11.0841 14.4182C12.6341 14.4182 14.1238 14.635 15.5554 15.0667C16.9869 15.4984 18.2076 16.1469 19.2215 17.0122L17.7016 20.6783C16.8363 19.9636 15.8023 19.3974 14.5937 18.9798C13.387 18.5622 12.2306 18.3534 11.1283 18.3534C9.66669 18.3534 8.58653 18.6063 7.88784 19.1143C7.18714 19.6222 6.83779 20.2928 6.83779 21.126C6.83779 22.4371 7.68706 23.2422 9.3856 23.5393L13.8568 24.3886C15.7943 24.746 17.2619 25.4025 18.2598 26.3562C19.2576 27.3098 19.7575 28.5908 19.7575 30.201C19.7575 32.3774 18.9083 34.0839 17.2097 35.3207C15.5112 36.5575 13.2465 37.1758 10.4136 37.1758V37.1698Z" fill="#F76818"/>
<path d="M31.337 37.1697C25.9724 37.1697 23.29 34.1601 23.29 28.1389V14.8618H28.8776V28.2293C28.8776 29.7793 29.1908 30.9277 29.8172 31.6725C30.4436 32.4174 31.4414 32.7908 32.8127 32.7908C34.3024 32.7908 35.5251 32.2769 36.4788 31.2489C37.4325 30.221 37.9103 28.8577 37.9103 27.1592V14.8658H43.4978V36.728H38.0428V33.4654C36.5812 35.939 34.3466 37.1757 31.337 37.1757V37.1697Z" fill="#F76818"/>
<path d="M85.2966 37.1699C82.8231 37.1699 80.6929 36.7081 78.904 35.7845C77.1151 34.861 75.7378 33.5499 74.768 31.8514C73.7983 30.1528 73.3145 28.1411 73.3145 25.8162C73.3145 23.4912 73.7843 21.5698 74.7219 19.8713C75.6615 18.1727 76.9565 16.8396 78.6108 15.8699C80.2652 14.9021 82.1505 14.4163 84.2666 14.4163C87.3666 14.4163 89.818 15.4 91.6209 17.3676C93.4239 19.3352 94.3253 22.0175 94.3253 25.4146V27.069H78.6791C79.0967 30.974 81.3313 32.9255 85.3849 32.9255C86.6076 32.9255 87.8283 32.7388 89.051 32.3674C90.2737 31.9959 91.39 31.4057 92.4039 30.6006L93.968 34.355C92.924 35.2204 91.6129 35.905 90.0348 36.4109C88.4547 36.9169 86.8747 37.1719 85.2966 37.1719V37.1699ZM84.4915 18.2149C82.8512 18.2149 81.5261 18.7228 80.5122 19.7347C79.4983 20.7486 78.8879 22.1199 78.6791 23.8486H89.6775C89.559 22.0316 89.0591 20.6382 88.1797 19.6685C87.3003 18.7008 86.0716 18.2149 84.4915 18.2149Z" fill="#F76818"/>
<path d="M97.9482 36.7222V14.862H103.403V18.7068C104.475 16.1148 106.77 14.6833 110.288 14.4143L111.986 14.2798L112.344 19.018L109.125 19.3312C105.459 19.6886 103.626 21.5658 103.626 24.9649V36.7222H97.9482Z" fill="#F76818"/>
<path d="M23.29 71.9999V42.0907H28.745V45.5782C29.3715 44.3856 30.3171 43.4319 31.584 42.7171C32.8509 42.0024 34.2884 41.645 35.8986 41.645C37.8059 41.645 39.4824 42.1068 40.9279 43.0304C42.3735 43.9539 43.4978 45.2589 44.3029 46.9414C45.108 48.6259 45.5096 50.6457 45.5096 52.9987C45.5096 55.3518 45.108 57.3435 44.3029 59.0561C43.4978 60.7707 42.3815 62.0897 40.95 63.0133C39.5185 63.9368 37.836 64.3986 35.8986 64.3986C34.3486 64.3986 32.9553 64.0633 31.7185 63.3927C30.4817 62.7222 29.5341 61.8207 28.8796 60.6883V71.9999H23.292H23.29ZM34.3326 60.1523C36.001 60.1523 37.3421 59.5479 38.356 58.3413C39.3679 57.1347 39.8759 55.3538 39.8759 52.9987C39.8759 50.6437 39.3679 48.8347 38.356 47.6562C37.3421 46.4796 36.001 45.8894 34.3326 45.8894C32.6641 45.8894 31.321 46.4776 30.3091 47.6562C29.2952 48.8347 28.7892 50.6135 28.7892 52.9987C28.7892 55.3839 29.2952 57.1347 30.3091 58.3413C31.321 59.5479 32.6621 60.1523 34.3326 60.1523Z" fill="#F76818"/>
<path d="M8.17949 64.3987C6.59941 64.3987 5.19199 64.0936 3.95523 63.4832C2.71847 62.8729 1.74873 62.0457 1.05004 61.0017C0.349345 59.9596 0 58.7811 0 57.4701C0 55.8599 0.417608 54.587 1.25082 53.6473C2.08402 52.7077 3.44125 52.0311 5.31848 51.6135C7.1957 51.1959 9.7134 50.9871 12.8736 50.9871H14.4376V50.0475C14.4376 48.5577 14.1083 47.4836 13.4538 46.8291C12.7973 46.1746 11.695 45.8453 10.1451 45.8453C8.92235 45.8453 7.67154 46.032 6.3906 46.4034C5.10967 46.7769 3.81268 47.3491 2.50163 48.1241L0.891432 44.3234C1.66642 43.7874 2.58194 43.3176 3.64001 42.916C4.69809 42.5145 5.81439 42.2013 6.99292 41.9764C8.16945 41.7535 9.27973 41.6411 10.3237 41.6411C13.512 41.6411 15.8811 42.378 17.4311 43.8536C18.9811 45.3293 19.7561 47.6161 19.7561 50.7161V63.949H14.5259V60.4616C14.018 61.6843 13.2149 62.646 12.1126 63.3447C11.0104 64.0454 9.69934 64.3947 8.17949 64.3947V64.3987ZM9.34197 60.5539C10.8016 60.5539 12.0163 60.048 12.986 59.0341C13.9537 58.0222 14.4396 56.7392 14.4396 55.1893V54.2055H12.9197C10.119 54.2055 8.17347 54.4223 7.08528 54.854C5.99709 55.2856 5.453 56.0687 5.453 57.201C5.453 58.1848 5.79431 58.9899 6.48095 59.6143C7.16559 60.2407 8.11926 60.5539 9.34197 60.5539Z" fill="#F76818"/>
<path d="M143.681 64.3987C142.101 64.3987 140.694 64.0936 139.457 63.4832C138.22 62.8729 137.251 62.0457 136.552 61.0017C135.851 59.9596 135.502 58.7811 135.502 57.4701C135.502 55.8599 135.92 54.587 136.753 53.6473C137.586 52.7077 138.943 52.0311 140.82 51.6135C142.698 51.1959 145.215 50.9871 148.376 50.9871H149.94V50.0475C149.94 48.5577 149.61 47.4836 148.956 46.8291C148.299 46.1746 147.197 45.8453 145.647 45.8453C144.424 45.8453 143.173 46.032 141.893 46.4034C140.612 46.7769 139.315 47.3491 138.004 48.1241L136.393 44.3234C137.168 43.7874 138.084 43.3176 139.142 42.916C140.2 42.5145 141.316 42.2013 142.495 41.9764C143.671 41.7535 144.782 41.6411 145.826 41.6411C149.014 41.6411 151.383 42.378 152.933 43.8536C154.483 45.3293 155.258 47.6161 155.258 50.7161V63.949H150.028V60.4616C149.52 61.6843 148.717 62.646 147.615 63.3447C146.512 64.0454 145.201 64.3947 143.681 64.3947V64.3987ZM144.844 60.5539C146.304 60.5539 147.518 60.048 148.488 59.0341C149.456 58.0222 149.942 56.7392 149.942 55.1893V54.2055H148.422C145.621 54.2055 143.675 54.4223 142.587 54.854C141.499 55.2856 140.955 56.0687 140.955 57.201C140.955 58.1848 141.296 58.9899 141.983 59.6143C142.668 60.2407 143.621 60.5539 144.844 60.5539Z" fill="#F76818"/>
<path d="M73.3135 63.953V42.0908H78.7685V45.9356C79.8406 43.3436 82.1354 41.9121 85.653 41.6431L87.3515 41.5085L87.7089 46.2468L84.4905 46.56C80.8244 46.9174 78.9913 48.7946 78.9913 52.1937V63.9509H73.3135V63.953Z" fill="#F76818"/>
<path d="M105.548 43.0304C103.88 42.1068 101.912 41.645 99.6477 41.645C97.383 41.645 95.4154 42.1068 93.747 43.0304C92.0766 43.9539 90.7816 45.265 89.856 46.9655C88.9325 48.664 88.4707 50.6758 88.4707 53.0007C88.4707 55.3257 88.9325 57.3455 89.856 59.0581C90.7796 60.7727 92.0766 62.0917 93.747 63.0153C95.4154 63.9389 97.383 64.4006 99.6477 64.4006C101.912 64.4006 103.88 63.9389 105.548 63.0153C107.217 62.0917 108.514 60.7727 109.437 59.0581C110.361 57.3455 110.823 55.3257 110.823 53.0007C110.823 50.6758 110.361 48.664 109.437 46.9655C108.514 45.267 107.217 43.9559 105.548 43.0304ZM103.671 58.3433C102.659 59.55 101.316 60.1543 99.6477 60.1543C97.9793 60.1543 96.6381 59.552 95.6242 58.3433C94.6103 57.1367 94.1044 55.3558 94.1044 53.0007C94.1044 50.6457 94.6103 48.8367 95.6242 47.6582C96.6361 46.4816 97.9773 45.8914 99.6477 45.8914C101.318 45.8914 102.657 46.4796 103.671 47.6582C104.683 48.8367 105.191 50.6156 105.191 53.0007C105.191 55.3859 104.683 57.1367 103.671 58.3433Z" fill="#F76818"/>
<path d="M120.612 63.953L111.134 42.0908H117.079L123.158 57.3797L129.462 42.0908H135.05L125.439 63.953H120.61H120.612Z" fill="#F76818"/>
</svg>
