<svg width="41" height="41" viewBox="0 0 41 41" fill="none" xmlns="http://www.w3.org/2000/svg">
<path d="M38.1022 20.3266L36.3125 18.5362V5.83594C36.3125 4.0482 34.8581 2.59375 33.0703 2.59375H8.85117C8.31556 1.08484 6.87798 0 5.1875 0H3.89062C1.74495 0 0 1.74495 0 3.89062V22.8483L3.02042 28.8892C3.20717 29.2627 3.52166 29.5305 3.89062 29.6842V35.6641C3.89062 37.4518 5.34507 38.9062 7.13281 38.9062H28.5312V40.2031H37.6094V37.0861L38.4089 35.087C38.7253 34.2965 38.9568 33.4691 39.0969 32.6274L40.1059 26.5762C40.1707 26.1865 40.2031 25.7903 40.2031 25.3974C40.2031 23.4819 39.4574 21.6812 38.1022 20.3266ZM33.0703 3.89062C34.1428 3.89062 35.0156 4.76342 35.0156 5.83594V29.2744C35.0156 29.5791 34.7673 29.8281 34.4619 29.8281C34.2505 29.8281 34.0605 29.7108 33.9665 29.5214C33.8789 29.347 33.8011 29.168 33.7188 28.9903V9.07812C33.7188 8.3629 33.1371 7.78125 32.4219 7.78125H9.07812V3.89062H33.0703ZM27.7765 24.0486L27.3323 29.8281H7.78125V25.4421L9.07812 22.8483V9.07812H32.4219V25.2093L32.0419 23.6894C31.8007 22.7225 30.9357 22.0469 29.9384 22.0469C28.8127 22.0469 27.8627 22.9262 27.7765 24.0486ZM1.29688 22.0469V6.48438H2.59375V22.0469H1.29688ZM3.89062 6.48438H5.1875V22.0469H3.89062V6.48438ZM6.48438 6.48438H7.78125V22.0469H6.48438V6.48438ZM3.89062 1.29688H5.1875C6.61795 1.29688 7.78125 2.46017 7.78125 3.89062V5.1875H1.29688V3.89062C1.29688 2.46017 2.46017 1.29688 3.89062 1.29688ZM1.69761 23.3438H7.38052L4.89765 28.3095C4.76083 28.5831 4.3173 28.5831 4.18113 28.3095L1.69761 23.3438ZM7.13281 37.6094C6.0603 37.6094 5.1875 36.7366 5.1875 35.6641V29.6842C5.55646 29.5305 5.87095 29.2627 6.0577 28.8898L6.48438 28.0358V29.8281C6.48438 30.5434 7.06602 31.125 7.78125 31.125H27.2506C27.2454 31.269 27.2344 31.4123 27.2344 31.5562C27.2344 33.0742 27.5203 34.5585 28.0838 35.9675L28.5312 37.0861V37.6094H7.13281ZM36.3125 38.9062H29.8281V37.6094H36.3125V38.9062ZM38.8265 26.3635L37.8175 32.4147C37.6924 33.1643 37.4862 33.901 37.2048 34.6052L36.5219 36.3125H29.6187L29.288 35.4864C28.7861 34.2304 28.5312 32.9082 28.5312 31.5562C28.5312 31.2852 28.5416 31.0141 28.5624 30.745L29.0701 24.1478C29.1045 23.6971 29.4864 23.3438 29.939 23.3438C30.3397 23.3438 30.6873 23.6154 30.7839 24.0039L31.2702 25.9479C31.6288 27.3822 32.1456 28.7796 32.807 30.1018C33.1222 30.7333 33.7564 31.125 34.4619 31.125C35.4825 31.125 36.3125 30.295 36.3125 29.2744V20.37L37.1853 21.2428C38.2954 22.3536 38.9062 23.8281 38.9062 25.3974C38.9062 25.7196 38.879 26.0445 38.8265 26.3635Z" fill="#FCC020"/>
<path d="M24.6411 32.4219H15.563C14.8478 32.4219 14.2661 33.0035 14.2661 33.7188C14.2661 35.1492 15.4294 36.3125 16.8599 36.3125H23.3442C24.7747 36.3125 25.938 35.1492 25.938 33.7188C25.938 33.0035 25.3563 32.4219 24.6411 32.4219ZM23.3442 35.0156H16.8599C16.1446 35.0156 15.563 34.434 15.563 33.7188H24.6411C24.6411 34.434 24.0595 35.0156 23.3442 35.0156Z" fill="#FCC020"/>
<path d="M16.2109 5.1875H23.9922V6.48438H16.2109V5.1875Z" fill="#FCC020"/>
<path d="M16.4682 22.0468C16.8307 22.0468 17.1912 21.956 17.5122 21.7841L25.0263 17.7372C25.5885 17.4344 25.938 16.8489 25.938 16.2108C25.938 15.5728 25.5885 14.9872 25.0263 14.6844L17.5115 10.6381C17.1912 10.4657 16.8307 10.3749 16.4682 10.3749C15.2537 10.3749 14.2661 11.3624 14.2661 12.577V19.8453C14.2661 21.0592 15.2537 22.0468 16.4682 22.0468ZM15.563 12.577C15.563 12.0777 15.9689 11.6718 16.4682 11.6718C16.6173 11.6718 16.7658 11.7094 16.8975 11.78L24.4116 15.8263C24.5529 15.9022 24.6411 16.05 24.6411 16.2108C24.6411 16.3716 24.5529 16.5195 24.4116 16.5953L16.8981 20.6416C16.7658 20.7123 16.6173 20.7499 16.4682 20.7499C15.9689 20.7499 15.563 20.344 15.563 19.8447V12.577Z" fill="#FCC020"/>
<path d="M14.2656 23.3438C13.0608 23.3438 12.0538 24.1731 11.764 25.2891H9.07812V26.5859H11.764C12.0538 27.7019 13.0608 28.5312 14.2656 28.5312C15.4704 28.5312 16.4774 27.7019 16.7673 26.5859H26.5859V25.2891H16.7673C16.4774 24.1731 15.4704 23.3438 14.2656 23.3438ZM14.2656 27.2344C13.5504 27.2344 12.9688 26.6527 12.9688 25.9375C12.9688 25.2223 13.5504 24.6406 14.2656 24.6406C14.9809 24.6406 15.5625 25.2223 15.5625 25.9375C15.5625 26.6527 14.9809 27.2344 14.2656 27.2344Z" fill="#FCC020"/>
</svg>
