<svg width="26" height="27" viewBox="0 0 26 27" fill="none" xmlns="http://www.w3.org/2000/svg">
<path d="M12.1623 0C7.96896 0 4.54825 3.43242 4.54825 7.62572C4.54825 10.1891 5.8309 12.4602 7.78292 13.8417C3.22993 15.666 0 20.1177 0 25.312C0.00696679 25.6259 0.136558 25.9246 0.361027 26.1441C0.585495 26.3637 0.886999 26.4867 1.20098 26.4867C1.51496 26.4867 1.81647 26.3637 2.04094 26.1441C2.2654 25.9246 2.395 25.6259 2.40196 25.312C2.40196 19.7994 6.84673 15.357 12.3593 15.357C14.2836 15.357 16.0698 15.9056 17.5902 16.8465C17.7248 16.9302 17.8746 16.9863 18.0309 17.0119C18.1873 17.0376 18.3472 17.0321 18.5015 16.9959C18.6558 16.9596 18.8014 16.8933 18.93 16.8007C19.0585 16.7081 19.1676 16.5911 19.2509 16.4563C19.3342 16.3215 19.3901 16.1716 19.4154 16.0151C19.4406 15.8587 19.4348 15.6987 19.3982 15.5446C19.3616 15.3904 19.2949 15.2449 19.202 15.1165C19.1091 14.9881 18.9918 14.8794 18.8568 14.7964C18.1717 14.3724 17.4281 14.0405 16.6613 13.755C18.5503 12.3664 19.788 10.1379 19.788 7.62572C19.788 3.43242 16.3556 0 12.1623 0ZM12.1623 2.40422C15.0575 2.40422 17.3861 4.73052 17.3861 7.62572C17.3861 10.5209 15.0575 12.8378 12.1623 12.8378C9.26708 12.8378 6.95021 10.5209 6.95021 7.62572C6.95021 4.73052 9.26708 2.40422 12.1623 2.40422ZM24.3175 16.8184C24.1223 16.8241 23.9314 16.8771 23.7614 16.9732C23.5914 17.0692 23.4473 17.2053 23.3417 17.3696L19.2016 23.5739L16.605 21.8357C16.4733 21.7472 16.3254 21.6856 16.1699 21.6543C16.0143 21.623 15.8542 21.6227 15.6985 21.6535C15.5428 21.6842 15.3948 21.7455 15.2628 21.8335C15.1308 21.9216 15.0175 22.0349 14.9294 22.1668C14.8413 22.2988 14.7801 22.4467 14.7493 22.6023C14.7185 22.758 14.7187 22.9183 14.75 23.0739C14.7812 23.2294 14.8428 23.3773 14.9313 23.509C15.0198 23.6407 15.1334 23.7536 15.2656 23.8413L18.8756 26.2433C19.0071 26.3305 19.1545 26.3911 19.3094 26.4213C19.4643 26.4515 19.6236 26.4509 19.7783 26.4195C19.9329 26.3881 20.0799 26.3266 20.2108 26.2384C20.3417 26.1503 20.4539 26.0372 20.541 25.9056L25.3473 18.6974C25.4726 18.5142 25.5448 18.2999 25.5557 18.0783C25.5667 17.8566 25.516 17.6363 25.4094 17.4416C25.3027 17.247 25.1442 17.0858 24.9515 16.9758C24.7588 16.8658 24.5393 16.8113 24.3175 16.8184Z" fill="#FCC020"/>
</svg>
