<svg width="5" height="20" viewBox="0 0 5 20" fill="none" xmlns="http://www.w3.org/2000/svg">
<g id="Group 895">
<path id="XMLID_294_" d="M0 9.99995C0 11.2723 1.03538 12.3076 2.30769 12.3076C3.58 12.3076 4.61538 11.2723 4.61538 9.99995C4.61538 8.72765 3.58 7.69226 2.30769 7.69226C1.03538 7.69226 0 8.72765 0 9.99995Z" fill="#FCC020"/>
<path id="XMLID_295_" d="M0 17.6923C0 18.9646 1.03538 20 2.30769 20C3.58 20 4.61538 18.9646 4.61538 17.6923C4.61538 16.42 3.58 15.3846 2.30769 15.3846C1.03538 15.3846 0 16.42 0 17.6923Z" fill="#FCC020"/>
<path id="XMLID_297_" d="M0 2.30769C0 3.58 1.03538 4.61538 2.30769 4.61538C3.58 4.61538 4.61538 3.58 4.61538 2.30769C4.61538 1.03538 3.58 0 2.30769 0C1.03538 0 0 1.03538 0 2.30769Z" fill="#FCC020"/>
</g>
</svg>
