<svg width="11" height="7" viewBox="0 0 11 7" fill="none" xmlns="http://www.w3.org/2000/svg">
<g id="Group">
<g id="Group_2">
<path id="Vector" d="M5.59661 5.93411L10.2169 1.31369C10.3239 1.20683 10.3828 1.06417 10.3828 0.912064C10.3828 0.759955 10.3239 0.6173 10.2169 0.510435L9.87677 0.170173C9.6551 -0.0512376 9.29484 -0.0512376 9.07351 0.170173L5.19363 4.05005L1.30944 0.165868C1.20249 0.0590031 1.05992 -4.07516e-07 0.907898 -4.14162e-07C0.755704 -4.20814e-07 0.613134 0.0590031 0.5061 0.165868L0.166007 0.50613C0.0590578 0.613079 0.00013903 0.75565 0.000139023 0.907759C0.000139017 1.05987 0.0590578 1.20252 0.166007 1.30939L4.79056 5.93411C4.89785 6.04123 5.0411 6.10007 5.19337 6.09973C5.34624 6.10007 5.48941 6.04123 5.59661 5.93411Z" fill="#FCC020"/>
</g>
</g>
</svg>
