<svg width="8" height="12" viewBox="0 0 8 12" fill="none" xmlns="http://www.w3.org/2000/svg">
<g id="Group 916">
<path id="Vector" d="M3.92734 11.8835L7.16973 8.64108C7.24479 8.56609 7.28613 8.46598 7.28613 8.35923C7.28613 8.25249 7.24479 8.15238 7.16973 8.07738L6.93101 7.8386C6.77545 7.68322 6.52263 7.68322 6.36731 7.8386L3.64454 10.5614L0.918756 7.83558C0.843703 7.76058 0.743651 7.71918 0.636966 7.71918C0.530161 7.71918 0.43011 7.76058 0.354998 7.83558L0.116332 8.07436C0.041279 8.14941 -6.82018e-05 8.24947 -6.82065e-05 8.35621C-6.82111e-05 8.46296 0.0412789 8.56307 0.116332 8.63806L3.36169 11.8835C3.43698 11.9587 3.5375 12 3.64436 11.9998C3.75164 12 3.85211 11.9587 3.92734 11.8835Z" fill="#FCC020"/>
<path id="Vector_2" d="M3.92734 0.1161L7.16973 3.35855C7.24479 3.43355 7.28613 3.53366 7.28613 3.6404C7.28613 3.74715 7.24479 3.84726 7.16973 3.92225L6.93101 4.16103C6.77545 4.31641 6.52263 4.31641 6.36731 4.16103L3.64454 1.43827L0.918756 4.16406C0.843703 4.23905 0.743651 4.28046 0.636966 4.28046C0.530161 4.28046 0.43011 4.23905 0.354998 4.16406L0.116332 3.92527C0.041279 3.85022 -6.82018e-05 3.75017 -6.82065e-05 3.64342C-6.82111e-05 3.53668 0.0412789 3.43657 0.116332 3.36157L3.36169 0.1161C3.43698 0.0409288 3.5375 -0.000359253 3.64436 -0.00012231C3.75164 -0.000359262 3.85211 0.0409288 3.92734 0.1161Z" fill="#FCC020"/>
</g>
</svg>
