<svg width="36" height="36" viewBox="0 0 36 36" fill="none" xmlns="http://www.w3.org/2000/svg">
<g id="strategy (1) 1">
<g id="Group">
<g id="Group_2">
<path id="Vector" d="M27.6738 6.89094C29.5666 6.89094 31.1045 5.34566 31.1045 3.44547C31.1045 1.54529 29.5666 0 27.6738 0C25.7811 0 24.2432 1.55268 24.2432 3.44547C24.2432 5.33826 25.7811 6.89094 27.6738 6.89094ZM27.6738 1.78189C28.5833 1.78189 29.33 2.52865 29.33 3.45287C29.33 4.37708 28.5907 5.12385 27.6738 5.12385C26.757 5.12385 26.0177 4.36969 26.0177 3.44547C26.0177 2.52126 26.757 1.78189 27.6738 1.78189Z" fill="#FCC020"/>
<path id="Vector_2" d="M7.44436 29.1091C5.55157 29.1091 4.01367 30.6544 4.01367 32.5545C4.01367 34.4547 5.55157 36 7.44436 36C9.33715 36 10.875 34.4547 10.875 32.5545C10.875 30.6544 9.32975 29.1091 7.44436 29.1091ZM7.44436 34.2255C6.53493 34.2255 5.78816 33.4788 5.78816 32.5545C5.78816 31.6377 6.52754 30.8836 7.44436 30.8836C8.36118 30.8836 9.10055 31.6303 9.10055 32.5545C9.09315 33.4714 8.35378 34.2255 7.44436 34.2255Z" fill="#FCC020"/>
<path id="Vector_3" d="M15.9254 15.268C16.0954 15.4381 16.3246 15.5268 16.5538 15.5268C16.783 15.5268 17.0048 15.4381 17.1823 15.268C17.5298 14.9205 17.5298 14.3586 17.1823 14.0111L15.3339 12.1627L17.1823 10.3143C17.5298 9.96675 17.5298 9.40482 17.1823 9.05732C16.8348 8.70982 16.2729 8.70982 15.9254 9.05732L14.0769 10.9057L12.2285 9.05732C11.881 8.70982 11.3191 8.70982 10.9716 9.05732C10.6241 9.40482 10.6241 9.96675 10.9716 10.3143L12.82 12.1627L10.9716 14.0111C10.6241 14.3586 10.6241 14.9205 10.9716 15.268C11.1416 15.4381 11.3708 15.5268 11.6 15.5268C11.8292 15.5268 12.051 15.4381 12.2285 15.268L14.0769 13.4196L15.9254 15.268Z" fill="#FCC020"/>
<path id="Vector_4" d="M30.779 23.2902C30.4315 22.9427 29.8695 22.9427 29.522 23.2902L27.6736 25.1387L25.8252 23.2902C25.4777 22.9427 24.9158 22.9427 24.5682 23.2902C24.2207 23.6377 24.2207 24.1997 24.5682 24.5472L26.4167 26.3956L24.5682 28.244C24.2207 28.5915 24.2207 29.1534 24.5682 29.501C24.7383 29.671 24.9675 29.7597 25.1967 29.7597C25.4259 29.7597 25.6477 29.671 25.8252 29.501L27.6736 27.6525L29.522 29.501C29.6921 29.671 29.9213 29.7597 30.1505 29.7597C30.3797 29.7597 30.6015 29.671 30.779 29.501C31.1265 29.1534 31.1265 28.5915 30.779 28.244L28.9305 26.3956L30.779 24.5472C31.1265 24.1923 31.1265 23.6377 30.779 23.2902Z" fill="#FCC020"/>
<path id="Vector_5" d="M20.2653 27.8669C19.9178 27.5194 19.3559 27.5194 19.0084 27.8669L17.1599 29.7153L15.3115 27.8669C14.964 27.5194 14.4021 27.5194 14.0546 27.8669C13.7071 28.2144 13.7071 28.7763 14.0546 29.1238L15.903 30.9723L14.0546 32.8207C13.7071 33.1682 13.7071 33.7301 14.0546 34.0776C14.2246 34.2477 14.4538 34.3364 14.683 34.3364C14.9122 34.3364 15.1341 34.2477 15.3115 34.0776L17.1599 32.2292L19.0084 34.0776C19.1784 34.2477 19.4076 34.3364 19.6368 34.3364C19.866 34.3364 20.0878 34.2477 20.2653 34.0776C20.6128 33.7301 20.6128 33.1682 20.2653 32.8207L18.4169 30.9723L20.2653 29.1238C20.6054 28.7763 20.6054 28.2144 20.2653 27.8669Z" fill="#FCC020"/>
<path id="Vector_6" d="M14.5201 21.1978C15.008 21.1978 15.4073 20.7985 15.4073 20.3105C15.4073 19.8225 15.008 19.4233 14.5201 19.4233C14.0321 19.4233 13.6328 19.8225 13.6328 20.3105C13.6328 20.7985 14.0247 21.1978 14.5201 21.1978Z" fill="#FCC020"/>
<path id="Vector_7" d="M7.94716 23.8152C8.09504 23.9113 8.26509 23.963 8.43515 23.963C8.7235 23.963 9.00446 23.8226 9.17452 23.5638C9.44069 23.1571 9.32979 22.6026 8.92313 22.3364C8.51648 22.0703 7.96195 22.1812 7.69577 22.5878C7.42221 22.9945 7.53311 23.549 7.94716 23.8152Z" fill="#FCC020"/>
<path id="Vector_8" d="M10.7198 20.0222C10.2688 20.2218 10.0691 20.7468 10.2688 21.1904C10.4166 21.5231 10.742 21.7153 11.0821 21.7153C11.2004 21.7153 11.3261 21.6932 11.4444 21.6414C11.8954 21.4418 12.095 20.9168 11.8954 20.4732C11.6883 20.0222 11.1634 19.8225 10.7198 20.0222Z" fill="#FCC020"/>
<path id="Vector_9" d="M18.0318 21.1978C18.5218 21.1978 18.919 20.8005 18.919 20.3105C18.919 19.8205 18.5218 19.4233 18.0318 19.4233C17.5418 19.4233 17.1445 19.8205 17.1445 20.3105C17.1445 20.8005 17.5418 21.1978 18.0318 21.1978Z" fill="#FCC020"/>
<path id="Vector_10" d="M7.44389 27.2828C7.68049 27.2828 7.90969 27.1867 8.07235 27.024C8.23501 26.8614 8.33113 26.6321 8.33113 26.3955C8.33113 26.1589 8.23501 25.9297 8.07235 25.7671C7.90969 25.6044 7.68049 25.5083 7.44389 25.5083C7.20729 25.5083 6.97808 25.6044 6.81542 25.7671C6.65276 25.9297 6.55664 26.1589 6.55664 26.3955C6.55664 26.6321 6.65276 26.8614 6.81542 27.024C6.97808 27.1867 7.20729 27.2828 7.44389 27.2828Z" fill="#FCC020"/>
<path id="Vector_11" d="M31.7252 12.5841L28.2945 9.15339C27.947 8.80589 27.3851 8.80589 27.0376 9.15339L23.6069 12.5841C23.2594 12.9316 23.2594 13.4935 23.6069 13.841C23.9544 14.1885 24.5163 14.1885 24.8638 13.841L26.7788 11.926V14.2181C26.7788 17.0868 24.4276 19.4159 21.5367 19.4159C21.0487 19.4159 20.6494 19.8151 20.6494 20.3031C20.6494 20.7911 21.0487 21.1904 21.5367 21.1904C25.4036 21.1904 28.5533 18.0628 28.5533 14.2181V11.9186L30.4683 13.8336C30.6383 14.0037 30.8675 14.0924 31.0967 14.0924C31.3259 14.0924 31.5478 14.0037 31.7252 13.8336C32.0727 13.4935 32.0727 12.9316 31.7252 12.5841Z" fill="#FCC020"/>
</g>
</g>
</g>
</svg>
