<svg width="16" height="19" viewBox="0 0 16 19" fill="none" xmlns="http://www.w3.org/2000/svg">
<g id="Group 904">
<g id="Group">
<g id="Group_2">
<path id="Vector" d="M15.6801 1.80185C15.4223 1.49866 15.0463 1.32484 14.6486 1.32484H13.3431V0.916471C13.3431 0.41114 12.9319 0 12.4266 0H3.57348C3.06811 0 2.65704 0.41114 2.65704 0.916434V1.3248H1.3514C0.953654 1.3248 0.577621 1.49866 0.319829 1.80181C0.0646635 2.10183 -0.045621 2.49589 0.0173309 2.88291C0.360373 4.99225 1.68784 6.85574 3.57183 7.8779C3.74398 8.29177 3.93893 8.68379 4.15603 9.04902C4.84948 10.2159 5.71158 11.0224 6.66049 11.4124C6.75665 12.3847 6.10965 13.3058 5.13527 13.5254C5.13319 13.5258 5.13173 13.5266 5.12968 13.527C4.93952 13.5725 4.79796 13.7431 4.79796 13.9472V15.9311H3.9956C3.28025 15.9311 2.69828 16.5131 2.69828 17.2284V18.2524C2.69828 18.4912 2.89188 18.6848 3.13073 18.6848H12.9106C13.1495 18.6848 13.3431 18.4912 13.3431 18.2524V17.2284C13.3431 16.5131 12.7611 15.9311 12.0457 15.9311H11.2433V13.9472C11.2433 13.7428 11.1012 13.5719 10.9106 13.5268C10.9088 13.5264 10.9071 13.5258 10.9053 13.5254C9.92352 13.3044 9.27532 12.374 9.38159 11.3943C10.3139 10.998 11.1609 10.1988 11.8442 9.04909C12.0613 8.68383 12.2562 8.29177 12.4283 7.87782C14.3122 6.85563 15.6396 4.99218 15.9827 2.88291C16.0456 2.49589 15.9353 2.10186 15.6801 1.80185ZM0.870996 2.74405C0.848515 2.60584 0.886725 2.4702 0.978616 2.3621C1.07186 2.25247 1.20769 2.18963 1.35136 2.18963H2.65701V2.98527C2.65701 4.23285 2.81623 5.44131 3.118 6.54645C1.93209 5.60933 1.11558 4.248 0.870996 2.74405ZM12.0457 16.796C12.2842 16.796 12.4782 16.99 12.4782 17.2285V17.82H3.56315V17.2285C3.56315 16.99 3.75715 16.796 3.9956 16.796H12.0457ZM10.3784 14.3797V15.9311H5.66293V14.3797H10.3784ZM6.79705 13.5148C6.90394 13.3972 7.00167 13.2696 7.08908 13.1331C7.37727 12.6828 7.52854 12.1712 7.53532 11.6487C7.68893 11.6696 7.84395 11.6808 8.00029 11.6808C8.17039 11.6808 8.33892 11.6678 8.50581 11.643C8.51566 12.3451 8.78893 13.0097 9.24842 13.5148H6.79705V13.5148ZM12.4781 2.98531C12.4781 5.11578 11.9889 7.11236 11.1006 8.60715C10.2542 10.0315 9.15313 10.8159 8.00022 10.8159C6.84712 10.8159 5.74596 10.0315 4.89948 8.60723C4.01115 7.1124 3.52191 5.11582 3.52191 2.98538V0.916434C3.52191 0.887969 3.54505 0.864868 3.57344 0.864868H12.4265C12.455 0.864868 12.4781 0.888005 12.4781 0.916434V2.98531ZM15.129 2.74405C14.8844 4.24789 14.068 5.60918 12.8821 6.54638C13.1838 5.44124 13.3431 4.23285 13.3431 2.98531V2.18967H14.6486C14.7923 2.18967 14.9281 2.25255 15.0213 2.36214C15.1132 2.4702 15.1514 2.60584 15.129 2.74405Z" fill="#1E1E1E" fill-opacity="0.7"/>
</g>
</g>
<g id="Group_3">
<g id="Group_4">
<path id="Vector_2" d="M10.6235 4.43974C10.5726 4.28326 10.4373 4.16918 10.2744 4.14546L8.96949 3.95583L8.38591 2.77336C8.31304 2.62578 8.16272 2.53232 7.99813 2.53232C7.83351 2.53232 7.68319 2.62578 7.61035 2.77336L7.02677 3.95583L5.72182 4.14546C5.55892 4.1691 5.4236 4.28322 5.37272 4.43978C5.32189 4.59637 5.36429 4.76819 5.48217 4.88311L6.42645 5.80352L6.20351 7.10318C6.17566 7.26543 6.24234 7.42936 6.37554 7.52614C6.50867 7.62288 6.68526 7.63562 6.83095 7.55906L7.99813 6.94549L9.16528 7.55906C9.22856 7.5923 9.29764 7.60869 9.36643 7.60869C9.45606 7.60869 9.54532 7.58084 9.62065 7.5261C9.75385 7.42932 9.82052 7.26539 9.79268 7.10314L9.56974 5.80348L10.514 4.88307C10.632 4.76819 10.6744 4.59634 10.6235 4.43974ZM8.80333 5.34286C8.7014 5.44219 8.65487 5.58532 8.67896 5.72564L8.79216 6.38582L8.19932 6.07412C8.13637 6.04098 8.06721 6.02449 7.99809 6.02449C7.92897 6.02449 7.85985 6.04106 7.79687 6.07412L7.20402 6.38582L7.31723 5.72564C7.34131 5.58536 7.29478 5.44223 7.19286 5.34286L6.71329 4.87537L7.37609 4.77903C7.51692 4.75859 7.6387 4.67009 7.70169 4.54247L7.99813 3.94186L8.29453 4.54247C8.35756 4.67009 8.47927 4.75855 8.62013 4.77903L9.28293 4.87537L8.80333 5.34286Z" fill="#1E1E1E" fill-opacity="0.7"/>
</g>
</g>
</g>
</svg>
