<svg width="16" height="15" viewBox="0 0 16 15" fill="none" xmlns="http://www.w3.org/2000/svg">
<path fill-rule="evenodd" clip-rule="evenodd" d="M8.14033 0.135999C6.98348 0.133841 5.84241 0.404416 4.80969 0.925772C3.77698 1.44713 2.8817 2.20458 2.1965 3.13668C1.5113 4.06878 1.05547 5.14928 0.865994 6.29051C0.676516 7.43174 0.758726 8.60157 1.10595 9.70508C1.45318 10.8086 2.05565 11.8147 2.86448 12.6418C3.67331 13.4689 4.66572 14.0937 5.7612 14.4655C6.85669 14.8373 8.02438 14.9456 9.16956 14.7817C10.3147 14.6178 11.4052 14.1862 12.3523 13.522C12.3943 13.4976 12.4307 13.4648 12.4594 13.4256C12.488 13.3865 12.5082 13.3418 12.5187 13.2944C12.5292 13.247 12.5297 13.198 12.5203 13.1504C12.5109 13.1028 12.4917 13.0576 12.464 13.0178C12.4362 12.978 12.4005 12.9444 12.3591 12.9191C12.3177 12.8938 12.2715 12.8773 12.2235 12.8707C12.1754 12.8642 12.1265 12.8676 12.0798 12.8809C12.0331 12.8942 11.9897 12.9171 11.9523 12.948C10.5897 13.8945 8.92196 14.2962 7.27782 14.074C5.63368 13.8518 4.13242 13.0218 3.06993 11.7475C2.00744 10.4733 1.4608 8.84726 1.53776 7.18995C1.61472 5.53265 2.3097 3.96429 3.4857 2.794C4.66171 1.62371 6.23344 0.936387 7.89109 0.867502C9.54875 0.798617 11.1721 1.35317 12.4411 2.42185C13.7102 3.49054 14.5329 4.99583 14.7471 6.64103C14.9613 8.28624 14.5514 9.952 13.5983 11.31C13.5703 11.3476 13.55 11.3905 13.5389 11.436C13.5277 11.4816 13.5258 11.529 13.5333 11.5753C13.5408 11.6216 13.5575 11.666 13.5825 11.7057C13.6075 11.7454 13.6402 11.7797 13.6787 11.8065C13.7172 11.8334 13.7607 11.8522 13.8066 11.8619C13.8525 11.8715 13.8999 11.8719 13.946 11.8629C13.992 11.8539 14.0358 11.8357 14.0747 11.8094C14.1136 11.7832 14.1468 11.7494 14.1723 11.71C14.9442 10.6072 15.3986 9.31381 15.4862 7.97062C15.5738 6.62743 15.2911 5.28595 14.669 4.09229C14.0469 2.89863 13.1092 1.89854 11.9581 1.20095C10.8069 0.503355 9.48637 0.135 8.14033 0.135999ZM8.14033 1.536C7.37405 1.5365 6.61511 1.68523 5.90533 1.974C5.86107 1.99019 5.82052 2.01513 5.7861 2.04733C5.75168 2.07953 5.7241 2.11833 5.70501 2.16142C5.68591 2.20451 5.67569 2.25101 5.67495 2.29813C5.67421 2.34526 5.68297 2.39205 5.70071 2.43572C5.71844 2.47939 5.74479 2.51904 5.77818 2.5523C5.81157 2.58556 5.85132 2.61176 5.89505 2.62933C5.93879 2.64691 5.98561 2.65549 6.03273 2.65457C6.07986 2.65366 6.12631 2.64326 6.16933 2.624C7.20071 2.20635 8.33803 2.12681 9.4175 2.39683C10.497 2.66684 11.4629 3.27248 12.1762 4.12653C12.8895 4.98058 13.3133 6.03897 13.3867 7.14929C13.46 8.2596 13.1791 9.36454 12.5843 10.305C12.2934 9.97031 11.9336 9.70241 11.5296 9.51964C11.1255 9.33686 10.6868 9.24352 10.2433 9.246H6.03833C5.59451 9.24362 5.1554 9.3371 4.75103 9.52004C4.34666 9.70298 3.98655 9.97108 3.69533 10.306C3.24897 9.60067 2.97753 8.79892 2.9036 7.9675C2.82968 7.13607 2.95541 6.29902 3.27033 5.526C3.28959 5.48298 3.29999 5.43653 3.3009 5.3894C3.30182 5.34228 3.29324 5.29546 3.27566 5.25172C3.25809 5.20799 3.23189 5.16824 3.19863 5.13485C3.16537 5.10146 3.12572 5.07511 3.08205 5.05738C3.03838 5.03964 2.99159 5.03088 2.94446 5.03162C2.89734 5.03236 2.85084 5.04258 2.80775 5.06168C2.76466 5.08077 2.72586 5.10835 2.69366 5.14277C2.66146 5.17719 2.63652 5.21774 2.62033 5.262C2.14227 6.44471 2.05658 7.74966 2.37587 8.98473C2.69516 10.2198 3.40256 11.3197 4.39392 12.1226C5.38527 12.9254 6.60821 13.3887 7.88267 13.4443C9.15713 13.4999 10.4158 13.1449 11.4733 12.4315C12.5308 11.718 13.3313 10.6839 13.757 9.48132C14.1826 8.27875 14.2109 6.97129 13.8377 5.75144C13.4645 4.53159 12.7094 3.46379 11.6838 2.70527C10.6581 1.94675 9.416 1.53758 8.14033 1.538V1.536ZM8.14033 3.636C7.6553 3.63541 7.18098 3.77862 6.77733 4.04753C6.37367 4.31645 6.05879 4.69899 5.8725 5.14682C5.6862 5.59464 5.63684 6.08764 5.73067 6.56351C5.8245 7.03938 6.05729 7.47675 6.39963 7.82035C6.74196 8.16394 7.17848 8.39834 7.654 8.49391C8.12952 8.58948 8.6227 8.54193 9.07121 8.35728C9.51971 8.17262 9.90341 7.85915 10.1738 7.45649C10.4442 7.05382 10.5891 6.58003 10.5903 6.095C10.5893 5.44517 10.3309 4.82221 9.87182 4.36234C9.4127 3.90246 8.79015 3.64311 8.14033 3.641V3.636ZM8.14033 4.336C8.48663 4.33561 8.82528 4.43785 9.1135 4.62981C9.40172 4.82178 9.6266 5.09485 9.75971 5.41454C9.89282 5.73424 9.92821 6.08621 9.8614 6.426C9.79459 6.7658 9.62858 7.07817 9.38434 7.32367C9.1401 7.56916 8.82858 7.73678 8.48913 7.80533C8.14969 7.87388 7.79754 7.8403 7.47717 7.70883C7.1568 7.57735 6.88257 7.35389 6.68913 7.06665C6.49569 6.77942 6.39171 6.4413 6.39033 6.095C6.3902 5.8652 6.43538 5.63762 6.52329 5.4253C6.6112 5.21298 6.74012 5.02007 6.90266 4.85762C7.0652 4.69517 7.25818 4.56637 7.47055 4.47858C7.68293 4.39079 7.91053 4.34574 8.14033 4.346V4.336ZM6.03833 9.946H10.2443C10.6148 9.94294 10.9811 10.0247 11.3151 10.185C11.6491 10.3454 11.942 10.58 12.1713 10.871C11.6774 11.4596 11.0606 11.933 10.3642 12.2577C9.6678 12.5825 8.90873 12.7507 8.14033 12.7507C7.37193 12.7507 6.61286 12.5825 5.91646 12.2577C5.22006 11.933 4.60323 11.4596 4.10933 10.871C4.33973 10.5806 4.6333 10.3465 4.96773 10.1866C5.30216 10.0267 5.66864 9.94506 6.03933 9.948L6.03833 9.946ZM13.1033 12.099C13.0221 12.0985 12.9433 12.1263 12.8803 12.1776C12.8174 12.2289 12.7742 12.3005 12.7582 12.3801C12.7422 12.4598 12.7545 12.5425 12.7928 12.6141C12.8311 12.6857 12.8931 12.7418 12.9682 12.7727C13.0433 12.8036 13.1268 12.8074 13.2044 12.7835C13.282 12.7596 13.3489 12.7094 13.3936 12.6416C13.4383 12.5738 13.458 12.4926 13.4494 12.4118C13.4408 12.3311 13.4043 12.2558 13.3463 12.199C13.2814 12.1354 13.1942 12.0995 13.1033 12.099Z" fill="#F76818"/>
</svg>
