<svg width="49" height="49" viewBox="0 0 49 49" fill="none" xmlns="http://www.w3.org/2000/svg">
<g clip-path="url(#clip0_25_1772)">
<path d="M33.2296 28.8267L26.3976 23.7028V13.2652C26.3976 12.2157 25.5493 11.3674 24.4998 11.3674C23.4504 11.3674 22.6021 12.2157 22.6021 13.2652V24.6518C22.6021 25.2496 22.8829 25.8132 23.3612 26.17L30.9521 31.8633C31.2937 32.1195 31.6923 32.2429 32.0889 32.2429C32.6677 32.2429 33.2371 31.9828 33.6091 31.4818C34.2393 30.6448 34.0684 29.4549 33.2296 28.8267Z" fill="#F76818"/>
<path d="M24.5 0C10.9899 0 0 10.9899 0 24.5C0 38.0101 10.9899 49 24.5 49C38.0101 49 49 38.0101 49 24.5C49 10.9899 38.0101 0 24.5 0ZM24.5 45.2045C13.085 45.2045 3.79549 35.915 3.79549 24.5C3.79549 13.085 13.085 3.79549 24.5 3.79549C35.9169 3.79549 45.2045 13.085 45.2045 24.5C45.2045 35.915 35.915 45.2045 24.5 45.2045Z" fill="#F76818"/>
</g>
<defs>
<clipPath id="clip0_25_1772">
<rect width="49" height="49" fill="white"/>
</clipPath>
</defs>
</svg>
