<svg width="66" height="66" viewBox="0 0 66 66" fill="none" xmlns="http://www.w3.org/2000/svg">
<path d="M9.8999 3.69454C9.8999 2.60394 10.7736 1.71441 11.8641 1.69487L43.0195 1.13646C44.1379 1.11642 45.0553 2.01755 45.0553 3.13614V10.4417C45.0553 11.5463 45.9507 12.4417 47.0553 12.4417H54.5844C55.6797 12.4417 56.5712 13.3227 56.5843 14.4179L57.1757 63.9761C57.189 65.0899 56.2898 66 55.1759 66H11.8999C10.7953 66 9.8999 65.1045 9.8999 64L9.8999 3.69454Z" fill="#FCB21D"/>
<path d="M57.1901 12.1C57.1928 11.8097 57.0804 11.5302 56.8777 11.3223L45.8777 0.3223C45.6708 0.11825 45.3906 0.005775 45.1 0.0099V0H12.1C10.2775 0 8.80005 1.47744 8.80005 3.3V62.7C8.80005 64.5226 10.2775 66 12.1 66H53.9C55.7226 66 57.2 64.5226 57.2 62.7V12.1H57.1901ZM46.2 3.7554L53.4446 11H47.3C46.6926 11 46.2 10.5075 46.2 9.9V3.7554ZM55 62.7C55 63.3075 54.5075 63.8 53.9 63.8H12.1C11.4926 63.8 11 63.3075 11 62.7V3.3C11 2.69252 11.4926 2.2 12.1 2.2H44V9.9C44 11.7226 45.4775 13.2 47.3 13.2H55V62.7Z" fill="#F76818"/>
<path d="M19.8 29.7C17.9774 29.7 16.5 31.1774 16.5 33C16.5 34.8225 17.9774 36.3 19.8 36.3C21.6226 36.3 23.1 34.8225 23.1 33C23.1 31.1774 21.6226 29.7 19.8 29.7ZM19.8 34.1C19.1925 34.1 18.7 33.6074 18.7 33C18.7 32.3925 19.1925 31.9 19.8 31.9C20.4075 31.9 20.9 32.3925 20.9 33C20.9 33.6074 20.4075 34.1 19.8 34.1Z" fill="#F76818"/>
<path d="M49.5 31.9H27.5V34.1H49.5V31.9Z" fill="#F76818"/>
<path d="M19.8 18.7C17.9774 18.7 16.5 20.1774 16.5 22C16.5 23.8225 17.9774 25.3 19.8 25.3C21.6226 25.3 23.1 23.8225 23.1 22C23.1 20.1774 21.6226 18.7 19.8 18.7ZM19.8 23.1C19.1925 23.1 18.7 22.6074 18.7 22C18.7 21.3925 19.1925 20.9 19.8 20.9C20.4075 20.9 20.9 21.3925 20.9 22C20.9 22.6074 20.4075 23.1 19.8 23.1Z" fill="#F76818"/>
<path d="M49.5 20.9H27.5V23.1H49.5V20.9Z" fill="#F76818"/>
<path d="M19.8 40.7C17.9774 40.7 16.5 42.1774 16.5 44C16.5 45.8225 17.9774 47.3 19.8 47.3C21.6226 47.3 23.1 45.8225 23.1 44C23.1 42.1774 21.6226 40.7 19.8 40.7ZM19.8 45.1C19.1925 45.1 18.7 44.6074 18.7 44C18.7 43.3925 19.1925 42.9 19.8 42.9C20.4075 42.9 20.9 43.3925 20.9 44C20.9 44.6074 20.4075 45.1 19.8 45.1Z" fill="#F76818"/>
<path d="M49.5 42.9H27.5V45.1H49.5V42.9Z" fill="#F76818"/>
<path d="M19.8 51.7C17.9774 51.7 16.5 53.1774 16.5 55C16.5 56.8225 17.9774 58.3 19.8 58.3C21.6226 58.3 23.1 56.8225 23.1 55C23.1 53.1774 21.6226 51.7 19.8 51.7ZM19.8 56.1C19.1925 56.1 18.7 55.6074 18.7 55C18.7 54.3925 19.1925 53.9 19.8 53.9C20.4075 53.9 20.9 54.3925 20.9 55C20.9 55.6074 20.4075 56.1 19.8 56.1Z" fill="#F76818"/>
<path d="M49.5 53.9H27.5V56.1H49.5V53.9Z" fill="#F76818"/>
</svg>
