<svg width="18" height="18" viewBox="0 0 18 18" fill="none" xmlns="http://www.w3.org/2000/svg">
<g clip-path="url(#clip0_25_1564)">
<path d="M10.1011 17.9999H6.38672V6.00088H9.93861V7.61648C9.98789 7.5883 10.0114 7.58302 10.0202 7.56893C10.8034 6.30615 11.9751 5.74668 13.423 5.70324C14.2503 5.67858 15.0599 5.77897 15.8191 6.13708C16.8018 6.60086 17.3528 7.41394 17.6567 8.42487C17.899 9.2315 17.9829 10.0628 17.9887 10.8982C18.0046 13.213 17.9981 15.5278 18.0005 17.8426C18.0005 17.8778 17.9952 17.913 17.9917 17.9629H14.2667C14.2667 17.8825 14.2667 17.7985 14.2667 17.714C14.2661 15.7509 14.272 13.7877 14.2591 11.8246C14.2561 11.3802 14.2209 10.9299 14.1406 10.4931C13.9141 9.26437 13.115 8.84697 11.9704 8.98199C10.9284 9.10528 10.3546 9.71524 10.1927 10.8436C10.1334 11.2551 10.107 11.6743 10.1046 12.0905C10.0958 13.9656 10.1005 15.8407 10.1005 17.7163C10.1005 17.8032 10.1005 17.8907 10.1005 18.0005L10.1011 17.9999Z" fill="#16316F"/>
<path d="M0.308594 5.99805H4.01889V17.9918H0.308594V5.99805Z" fill="#16316F"/>
<path d="M4.31754 2.15425C4.32399 3.34775 3.35652 4.33696 2.17608 4.344C0.989179 4.35105 0 3.36008 0 2.16247C0 0.984815 0.966297 0.0102867 2.14615 -0.000280464C3.3354 -0.0108476 4.31108 0.956636 4.31754 2.15425Z" fill="#16316F"/>
</g>
<defs>
<clipPath id="clip0_25_1564">
<rect width="18" height="18" fill="white"/>
</clipPath>
</defs>
</svg>
