<svg width="16" height="16" viewBox="0 0 16 16" fill="none" xmlns="http://www.w3.org/2000/svg">
<g clip-path="url(#clip0_25_1584)">
<path d="M15.9999 7.99265C16.0084 12.3881 12.3955 16.0028 7.99622 16C3.60312 15.9966 0.00666256 12.4017 -0.000112555 8.00679C-0.00688767 3.60962 3.60538 -0.00395714 8.00356 3.25228e-06C12.3989 0.00396365 15.9914 3.59491 15.9999 7.99265ZM14.6443 8.00396C14.6483 4.35304 11.6587 1.36012 8.00412 1.35559C4.35459 1.35106 1.35886 4.34286 1.35548 7.99548C1.35209 11.6453 4.34274 14.6405 7.99565 14.6444C11.6446 14.6489 14.6409 11.6566 14.6443 8.00396V8.00396Z" fill="black"/>
<path d="M8.67784 7.32216C8.7789 7.32216 8.85512 7.32216 8.93134 7.32216C9.67209 7.32216 10.4128 7.3182 11.153 7.32442C11.5488 7.32782 11.8108 7.60504 11.8108 8.00052C11.8108 8.39543 11.5482 8.67379 11.1524 8.67605C10.1017 8.68114 9.05047 8.68114 7.9992 8.67605C7.61753 8.67379 7.32507 8.38411 7.32394 8.00448C7.31943 6.32584 7.31943 4.64719 7.32394 2.96855C7.32507 2.57817 7.61753 2.31848 8.01388 2.32584C8.40796 2.33319 8.67389 2.59571 8.67501 2.99797C8.6784 4.34507 8.67614 5.69217 8.67671 7.03984C8.67671 7.12414 8.67671 7.20787 8.67671 7.32272L8.67784 7.32216Z" fill="black"/>
</g>
<defs>
<clipPath id="clip0_25_1584">
<rect width="16" height="16" fill="white"/>
</clipPath>
</defs>
</svg>
