<svg width="18" height="17" viewBox="0 0 18 17" fill="none" xmlns="http://www.w3.org/2000/svg">
<path d="M8.97724 9.32196C3.71924 9.32196 0.823242 11.809 0.823242 16.322C0.823242 16.4914 0.890565 16.654 1.0104 16.7738C1.13024 16.8936 1.29277 16.961 1.46224 16.961H16.4922C16.6617 16.961 16.8242 16.8936 16.9441 16.7738C17.0639 16.654 17.1312 16.4914 17.1312 16.322C17.1312 11.81 14.2352 9.32196 8.97724 9.32196ZM2.12424 15.688C2.37524 12.311 4.67824 10.5999 8.97724 10.5999C13.2762 10.5999 15.5772 12.311 15.8302 15.688H2.12424Z"
fill="#FCB21D" />
<path d="M8.97709 0.464938C8.41146 0.457746 7.85025 0.565269 7.32734 0.781014C6.80442 0.996759 6.33066 1.31625 5.93467 1.72019C5.53867 2.12413 5.22865 2.60414 5.02333 3.13124C4.81802 3.65833 4.72166 4.22157 4.74009 4.78694C4.69158 5.37275 4.7651 5.96225 4.95598 6.51821C5.14687 7.07417 5.45098 7.5845 5.84911 8.01696C6.24724 8.44942 6.73072 8.79461 7.26903 9.03073C7.80734 9.26684 8.38878 9.38875 8.9766 9.38875C9.56441 9.38875 10.1458 9.26684 10.6841 9.03073C11.2225 8.79461 11.7059 8.44942 12.1041 8.01696C12.5022 7.5845 12.8063 7.07417 12.9972 6.51821C13.1881 5.96225 13.2616 5.37275 13.2131 4.78694C13.2315 4.22165 13.1352 3.6585 12.9299 3.13147C12.7247 2.60445 12.4147 2.12448 12.0188 1.72056C11.623 1.31663 11.1493 0.997117 10.6265 0.781312C10.1037 0.565506 9.54263 0.457882 8.97709 0.464938ZM8.97709 8.10794C8.14563 8.05638 7.3682 7.67848 6.81401 7.0565C6.25983 6.43452 5.97377 5.61881 6.01809 4.78694C5.99822 4.38915 6.0605 3.99152 6.20105 3.61886C6.34161 3.2462 6.55742 2.90648 6.83504 2.62089C7.11266 2.3353 7.44612 2.10995 7.81466 1.95891C8.18319 1.80786 8.57889 1.73434 8.97709 1.74294C9.3738 1.7397 9.76705 1.81687 10.1331 1.96979C10.4992 2.12271 10.8305 2.34821 11.107 2.63268C11.3835 2.91715 11.5996 3.25469 11.7421 3.62494C11.8845 3.9952 11.9506 4.39048 11.9361 4.78694C11.9804 5.61881 11.6943 6.43452 11.1402 7.0565C10.586 7.67848 9.80854 8.05638 8.97709 8.10794Z"
fill="#FCB21D" />
</svg>