<svg width="18" height="18" viewBox="0 0 18 18" fill="none" xmlns="http://www.w3.org/2000/svg">
<path d="M8.99414 0.464966C7.26356 0.464966 5.57184 0.978144 4.13291 1.93961C2.69397 2.90107 1.57247 4.26763 0.910199 5.86649C0.247932 7.46534 0.0746527 9.22467 0.412273 10.922C0.749894 12.6193 1.58325 14.1784 2.80696 15.4022C4.03067 16.6259 5.58977 17.4592 7.2871 17.7968C8.98444 18.1345 10.7438 17.9612 12.3426 17.2989C13.9415 16.6366 15.308 15.5151 16.2695 14.0762C17.231 12.6373 17.7441 10.9456 17.7441 9.21497C17.7441 6.89432 16.8223 4.66873 15.1813 3.02778C13.5404 1.38684 11.3148 0.464966 8.99414 0.464966ZM8.99414 16.374C7.57823 16.374 6.19411 15.9541 5.01682 15.1675C3.83953 14.3808 2.92194 13.2627 2.38009 11.9546C1.83824 10.6465 1.69647 9.20702 1.9727 7.81831C2.24893 6.4296 2.93076 5.15399 3.93197 4.15279C4.93317 3.15158 6.20878 2.46976 7.59749 2.19352C8.9862 1.91729 10.4256 2.05906 11.7338 2.60091C13.0419 3.14276 14.16 4.06035 14.9466 5.23764C15.7333 6.41493 16.1531 7.79905 16.1531 9.21497C16.1531 11.1137 15.3989 12.9346 14.0563 14.2771C12.7137 15.6197 10.8928 16.374 8.99414 16.374Z" fill="#1E1E1E" />
<path d="M9.79022 8.88596V4.44696C9.7693 4.25056 9.67647 4.06885 9.52961 3.9368C9.38274 3.80475 9.19222 3.73169 8.99472 3.73169C8.79722 3.73169 8.60669 3.80475 8.45983 3.9368C8.31296 4.06885 8.22014 4.25056 8.19922 4.44696V9.21996C8.19984 9.43066 8.28357 9.63262 8.43222 9.78196L10.8182 12.168C10.8887 12.2553 10.9768 12.3268 11.0767 12.3778C11.1766 12.4289 11.2862 12.4583 11.3982 12.4643C11.5103 12.4702 11.6223 12.4525 11.7271 12.4124C11.8319 12.3722 11.927 12.3104 12.0064 12.2311C12.0857 12.1517 12.1475 12.0566 12.1876 11.9518C12.2278 11.8471 12.2455 11.735 12.2395 11.623C12.2336 11.5109 12.2041 11.4014 12.1531 11.3014C12.102 11.2015 12.0305 11.1134 11.9432 11.043L9.79022 8.88596Z" fill="#1E1E1E" />
</svg>