<svg width="17" height="17" viewBox="0 0 17 17" fill="none" xmlns="http://www.w3.org/2000/svg">
<path d="M8.22138 9.32196C2.96338 9.32196 0.0673828 11.809 0.0673828 16.322C0.0673828 16.4914 0.134706 16.654 0.254541 16.7738C0.374377 16.8936 0.536909 16.961 0.706383 16.961H15.7364C15.9059 16.961 16.0684 16.8936 16.1882 16.7738C16.3081 16.654 16.3754 16.4914 16.3754 16.322C16.3754 11.81 13.4794 9.32196 8.22138 9.32196ZM1.36838 15.688C1.61938 12.311 3.92238 10.5999 8.22138 10.5999C12.5204 10.5999 14.8214 12.311 15.0744 15.688H1.36838Z"
fill="#DAD2BC" />
<path d="M8.22123 0.464938C7.6556 0.457746 7.09439 0.565269 6.57148 0.781014C6.04856 0.996759 5.5748 1.31625 5.17881 1.72019C4.78281 2.12413 4.47279 2.60414 4.26747 3.13124C4.06216 3.65833 3.9658 4.22157 3.98423 4.78694C3.93572 5.37275 4.00924 5.96225 4.20012 6.51821C4.39101 7.07417 4.69512 7.5845 5.09325 8.01696C5.49138 8.44942 5.97486 8.79461 6.51317 9.03073C7.05148 9.26684 7.63292 9.38875 8.22074 9.38875C8.80855 9.38875 9.38998 9.26684 9.92829 9.03073C10.4666 8.79461 10.9501 8.44942 11.3482 8.01696C11.7463 7.5845 12.0505 7.07417 12.2413 6.51821C12.4322 5.96225 12.5057 5.37275 12.4572 4.78694C12.4757 4.22165 12.3793 3.6585 12.1741 3.13147C11.9688 2.60445 11.6589 2.12448 11.263 1.72056C10.8671 1.31663 10.3935 0.997117 9.87067 0.781312C9.34788 0.565506 8.78677 0.457882 8.22123 0.464938ZM8.22123 8.10794C7.38977 8.05638 6.61234 7.67848 6.05815 7.0565C5.50397 6.43452 5.21791 5.61881 5.26223 4.78694C5.24236 4.38915 5.30464 3.99152 5.44519 3.61886C5.58575 3.2462 5.80156 2.90648 6.07918 2.62089C6.3568 2.3353 6.69026 2.10995 7.0588 1.95891C7.42733 1.80786 7.82303 1.73434 8.22123 1.74294C8.61794 1.7397 9.01119 1.81687 9.37726 1.96979C9.74333 2.12271 10.0746 2.34821 10.3512 2.63268C10.6277 2.91715 10.8437 3.25469 10.9862 3.62494C11.1287 3.9952 11.1947 4.39048 11.1802 4.78694C11.2245 5.61881 10.9385 6.43452 10.3843 7.0565C9.83011 7.67848 9.05268 8.05638 8.22123 8.10794Z"
fill="#DAD2BC" />
</svg>