<svg width="16" height="15" viewBox="0 0 16 15" fill="none" xmlns="http://www.w3.org/2000/svg">
<path d="M8.46799 10.629C8.46852 10.9317 8.58902 11.2219 8.80307 11.4359C9.01712 11.65 9.30727 11.7705 9.60999 11.771H10.952C11.2547 11.7705 11.5449 11.65 11.7589 11.4359C11.973 11.2219 12.0935 10.9317 12.094 10.629V9.28702C12.0935 8.9843 11.973 8.69415 11.7589 8.4801C11.5449 8.26605 11.2547 8.14555 10.952 8.14502H9.60999C9.30727 8.14555 9.01712 8.26605 8.80307 8.4801C8.58902 8.69415 8.46852 8.9843 8.46799 9.28702V10.629ZM9.60999 9.28702H10.952V10.629H9.60898L9.60999 9.28702Z" fill="#F76818"/>
<path d="M11.515 6.78704C11.8248 6.78704 12.076 6.53587 12.076 6.22604C12.076 5.91621 11.8248 5.66504 11.515 5.66504C11.2051 5.66504 10.954 5.91621 10.954 6.22604C10.954 6.53587 11.2051 6.78704 11.515 6.78704Z" fill="#F76818"/>
<path d="M9.03038 6.78704C9.35513 6.78704 9.61838 6.53587 9.61838 6.22604C9.61838 5.91621 9.35513 5.66504 9.03038 5.66504C8.70564 5.66504 8.44238 5.91621 8.44238 6.22604C8.44238 6.53587 8.70564 6.78704 9.03038 6.78704Z" fill="#F76818"/>
<path d="M14.551 10.287C14.7024 10.287 14.8477 10.2268 14.9547 10.1197C15.0618 10.0127 15.122 9.86742 15.122 9.71599V3.66199C15.1214 3.05613 14.8805 2.47524 14.4521 2.04683C14.0237 1.61843 13.4428 1.37751 12.837 1.37699H12.095V0.805985C12.095 0.654547 12.0348 0.509311 11.9277 0.402227C11.8207 0.295144 11.6754 0.234985 11.524 0.234985C11.3725 0.234985 11.2273 0.295144 11.1202 0.402227C11.0131 0.509311 10.953 0.654547 10.953 0.805985V1.37699H8.35298V0.805985C8.35298 0.654547 8.29282 0.509311 8.18573 0.402227C8.07865 0.295144 7.93342 0.234985 7.78198 0.234985C7.63054 0.234985 7.4853 0.295144 7.37822 0.402227C7.27114 0.509311 7.21098 0.654547 7.21098 0.805985V1.37699H4.64198V0.805985C4.63581 0.658812 4.57301 0.519714 4.4667 0.417758C4.36038 0.315802 4.21878 0.258876 4.07148 0.258876C3.92417 0.258876 3.78257 0.315802 3.67626 0.417758C3.56994 0.519714 3.50714 0.658812 3.50098 0.805985V1.37699H2.78598C2.18012 1.37751 1.59923 1.61843 1.17082 2.04683C0.742417 2.47524 0.501506 3.05613 0.500977 3.66199L0.500977 12.572C0.501506 13.1778 0.742417 13.7587 1.17082 14.1871C1.59923 14.6155 2.18012 14.8565 2.78598 14.857H12.838C13.4438 14.8565 14.0247 14.6155 14.4531 14.1871C14.8815 13.7587 15.1224 13.1778 15.123 12.572C15.123 12.4205 15.0628 12.2753 14.9557 12.1682C14.8487 12.0611 14.7034 12.001 14.552 12.001C14.4005 12.001 14.2553 12.0611 14.1482 12.1682C14.0411 12.2753 13.981 12.4205 13.981 12.572C13.9804 12.8747 13.86 13.1649 13.6459 13.3789C13.4319 13.593 13.1417 13.7135 12.839 13.714H2.78598C2.48326 13.7135 2.1931 13.593 1.97904 13.3789C1.76499 13.1649 1.64451 12.8747 1.64398 12.572V3.66199C1.64451 3.35927 1.76499 3.06911 1.97904 2.85505C2.1931 2.641 2.48326 2.52051 2.78598 2.51999H3.50098V3.09099C3.50098 3.24242 3.56114 3.38766 3.66822 3.49474C3.7753 3.60183 3.92054 3.66199 4.07198 3.66199C4.22342 3.66199 4.36865 3.60183 4.47573 3.49474C4.58282 3.38766 4.64298 3.24242 4.64298 3.09099V2.51999H7.21298V3.09099C7.21298 3.24242 7.27314 3.38766 7.38022 3.49474C7.4873 3.60183 7.63254 3.66199 7.78398 3.66199C7.93542 3.66199 8.08065 3.60183 8.18773 3.49474C8.29482 3.38766 8.35498 3.24242 8.35498 3.09099V2.51999H10.955V3.09099C10.955 3.24242 11.0151 3.38766 11.1222 3.49474C11.2293 3.60183 11.3745 3.66199 11.526 3.66199C11.6774 3.66199 11.8227 3.60183 11.9297 3.49474C12.0368 3.38766 12.097 3.24242 12.097 3.09099V2.51999H12.839C13.1417 2.52051 13.4319 2.641 13.6459 2.85505C13.86 3.06911 13.9804 3.35927 13.981 3.66199V9.71599C13.981 9.86725 14.041 10.0123 14.1479 10.1194C14.2547 10.2264 14.3997 10.2867 14.551 10.287Z" fill="#F76818"/>
<path d="M4.08737 11.756C4.3972 11.756 4.64837 11.5049 4.64837 11.195C4.64837 10.8852 4.3972 10.634 4.08737 10.634C3.77754 10.634 3.52637 10.8852 3.52637 11.195C3.52637 11.5049 3.77754 11.756 4.08737 11.756Z" fill="#F76818"/>
<path d="M4.08737 6.78704C4.3972 6.78704 4.64837 6.53587 4.64837 6.22604C4.64837 5.91621 4.3972 5.66504 4.08737 5.66504C3.77754 5.66504 3.52637 5.91621 3.52637 6.22604C3.52637 6.53587 3.77754 6.78704 4.08737 6.78704Z" fill="#F76818"/>
<path d="M4.08737 9.29892C4.3972 9.29892 4.64837 9.03567 4.64837 8.71092C4.64837 8.38618 4.3972 8.12292 4.08737 8.12292C3.77754 8.12292 3.52637 8.38618 3.52637 8.71092C3.52637 9.03567 3.77754 9.29892 4.08737 9.29892Z" fill="#F76818"/>
<path d="M6.54537 9.29892C6.85521 9.29892 7.10637 9.03567 7.10637 8.71092C7.10637 8.38618 6.85521 8.12292 6.54537 8.12292C6.23554 8.12292 5.98438 8.38618 5.98438 8.71092C5.98438 9.03567 6.23554 9.29892 6.54537 9.29892Z" fill="#F76818"/>
<path d="M6.54537 6.78704C6.85521 6.78704 7.10637 6.53587 7.10637 6.22604C7.10637 5.91621 6.85521 5.66504 6.54537 5.66504C6.23554 5.66504 5.98438 5.91621 5.98438 6.22604C5.98438 6.53587 6.23554 6.78704 6.54537 6.78704Z" fill="#F76818"/>
<path d="M6.54537 11.756C6.85521 11.756 7.10637 11.5049 7.10637 11.195C7.10637 10.8852 6.85521 10.634 6.54537 10.634C6.23554 10.634 5.98438 10.8852 5.98438 11.195C5.98438 11.5049 6.23554 11.756 6.54537 11.756Z" fill="#F76818"/>
</svg>
