<svg xmlns="http://www.w3.org/2000/svg" width="49" height="49" viewBox="0 0 49 49" fill="none">
  <path d="M7.10504 4.8999C5.49293 4.8999 4.16504 6.2278 4.16504 7.8399V41.1599C4.16504 42.772 5.49293 44.0999 7.10504 44.0999H36.505C41.094 44.0999 44.835 40.3588 44.835 35.7699C44.835 31.5127 41.6145 27.987 37.485 27.4992V15.6799C37.485 15.42 37.3817 15.1708 37.1979 14.987L27.3979 5.18701C27.2142 5.00323 26.9649 4.89995 26.705 4.8999H7.10504ZM7.10504 6.8599H25.725V13.7199C25.725 15.332 27.0529 16.6599 28.665 16.6599H35.525V27.4992C31.3956 27.987 28.175 31.5127 28.175 35.7699C28.175 38.322 29.333 40.6099 31.1495 42.1399H7.10504C6.55219 42.1399 6.12504 41.7127 6.12504 41.1599V7.8399C6.12504 7.28706 6.55219 6.8599 7.10504 6.8599ZM27.685 8.24568L34.1393 14.6999H28.665C28.1122 14.6999 27.685 14.2727 27.685 13.7199V8.24568ZM12.495 14.6999C12.2351 14.6999 11.9859 14.8032 11.8021 14.9869C11.6183 15.1707 11.515 15.42 11.515 15.6799C11.515 15.8086 11.5404 15.936 11.5896 16.0549C11.6389 16.1738 11.7111 16.2819 11.8021 16.3729C11.8931 16.4639 12.0011 16.5361 12.12 16.5853C12.2389 16.6346 12.3663 16.6599 12.495 16.6599H21.315C21.4437 16.6599 21.5712 16.6346 21.6901 16.5853C21.809 16.5361 21.917 16.4639 22.008 16.3729C22.099 16.2819 22.1712 16.1738 22.2204 16.0549C22.2697 15.936 22.295 15.8086 22.295 15.6799C22.295 15.42 22.1918 15.1707 22.008 14.9869C21.8242 14.8032 21.575 14.6999 21.315 14.6999H12.495ZM12.495 20.5799C12.3663 20.5799 12.2389 20.6053 12.12 20.6545C12.0011 20.7037 11.8931 20.7759 11.8021 20.8669C11.7111 20.9579 11.6389 21.066 11.5896 21.1849C11.5404 21.3038 11.515 21.4312 11.515 21.5599C11.515 21.8198 11.6183 22.0691 11.8021 22.2529C11.9859 22.4367 12.2351 22.5399 12.495 22.5399H28.665C28.925 22.5399 29.1742 22.4367 29.358 22.2529C29.5418 22.0691 29.645 21.8198 29.645 21.5599C29.645 21.3 29.5418 21.0507 29.358 20.8669C29.1742 20.6832 28.925 20.5799 28.665 20.5799H12.495ZM12.495 26.4599C12.3663 26.4599 12.2389 26.4852 12.12 26.5345C12.0011 26.5837 11.8931 26.6559 11.8021 26.7469C11.7111 26.8379 11.6389 26.946 11.5896 27.0649C11.5404 27.1838 11.515 27.3112 11.515 27.4399C11.515 27.6998 11.6183 27.9491 11.8021 28.1329C11.9859 28.3167 12.2351 28.4199 12.495 28.4199H26.705C26.965 28.4199 27.2142 28.3167 27.398 28.1329C27.5818 27.9491 27.685 27.6998 27.685 27.4399C27.685 27.3112 27.6597 27.1838 27.6104 27.0649C27.5612 26.946 27.489 26.8379 27.398 26.7469C27.307 26.6559 27.199 26.5837 27.0801 26.5345C26.9612 26.4852 26.8337 26.4599 26.705 26.4599H12.495ZM36.505 29.3999C40.0347 29.3999 42.875 32.2402 42.875 35.7699C42.875 39.2996 40.0347 42.1399 36.505 42.1399C32.9754 42.1399 30.135 39.2996 30.135 35.7699C30.135 32.2402 32.9754 29.3999 36.505 29.3999ZM12.495 32.3399C12.3663 32.3399 12.2389 32.3652 12.12 32.4145C12.0011 32.4637 11.8931 32.5359 11.8021 32.6269C11.7111 32.7179 11.6389 32.826 11.5896 32.9449C11.5404 33.0638 11.515 33.1912 11.515 33.3199C11.515 33.5798 11.6183 33.8291 11.8021 34.0129C11.9859 34.1966 12.2351 34.2999 12.495 34.2999H24.745C25.005 34.2999 25.2542 34.1966 25.438 34.0129C25.6218 33.8291 25.725 33.5798 25.725 33.3199C25.725 33.1912 25.6997 33.0638 25.6504 32.9449C25.6012 32.826 25.529 32.7179 25.438 32.6269C25.347 32.5359 25.239 32.4637 25.1201 32.4145C25.0012 32.3652 24.8737 32.3399 24.745 32.3399H12.495ZM39.445 33.3907C39.1854 33.3903 38.9362 33.4928 38.7522 33.6759L36.0839 36.3441L34.2579 34.5162C34.0742 34.3325 33.8249 34.2292 33.565 34.2292C33.3052 34.2292 33.0559 34.3325 32.8722 34.5162C32.6884 34.7 32.5852 34.9492 32.5852 35.2091C32.5852 35.469 32.6884 35.7182 32.8722 35.902L35.3911 38.4228C35.4821 38.5141 35.5902 38.5865 35.7093 38.6359C35.8284 38.6853 35.956 38.7107 36.0849 38.7107C36.2138 38.7107 36.3414 38.6853 36.4605 38.6359C36.5796 38.5865 36.6877 38.5141 36.7788 38.4228L40.1379 35.0636C40.2292 34.9726 40.3016 34.8644 40.351 34.7454C40.4004 34.6263 40.4259 34.4987 40.4259 34.3698C40.4259 34.2409 40.4004 34.1132 40.351 33.9942C40.3016 33.8751 40.2292 33.767 40.1379 33.6759C39.9539 33.4928 39.7047 33.3903 39.445 33.3907Z" fill="#F9B11A"/>
</svg>