<svg width="48" height="48" viewBox="0 0 48 48" fill="none" xmlns="http://www.w3.org/2000/svg">
<g clip-path="url(#clip0_57_689)">
<path d="M15.5303 22.719C15.237 22.4257 14.763 22.4257 14.4697 22.719L9.3105 27.8782C8.14125 29.0482 8.14125 30.951 9.3105 32.1202L11.004 33.8137L0.65925 44.1585C0.234 44.5837 0 45.1485 0 45.7492C0 46.35 0.234 46.9155 0.65925 47.34C1.08375 47.7652 1.64925 47.9992 2.25 47.9992C2.85075 47.9992 3.41625 47.7652 3.84075 47.34L14.1855 36.9952L15.879 38.6887C16.4438 39.2535 17.1968 39.5647 18 39.5647C18.8032 39.5647 19.5562 39.2535 20.121 38.6887L25.2803 33.5295C25.5735 33.2362 25.5735 32.7622 25.2803 32.469L15.5303 22.719ZM2.78025 46.2795C2.496 46.563 2.004 46.563 1.71975 46.2795C1.57725 46.1377 1.5 45.9495 1.5 45.7492C1.5 45.549 1.57725 45.3607 1.71975 45.219L12.0645 34.8742L13.125 35.9347L2.78025 46.2795ZM19.0605 37.6282C18.498 38.1915 17.502 38.1915 16.9395 37.6282L10.371 31.0597C9.78675 30.4747 9.78675 29.5237 10.371 28.9387L15 24.3097L23.6895 32.9992L19.0605 37.6282Z" fill="#F9B11A"/>
<path d="M32.0304 32.469C31.7372 32.1757 31.2632 32.1757 30.9699 32.469C30.6767 32.7622 30.6767 33.2362 30.9699 33.5295L32.4699 35.0295C32.6162 35.1757 32.8082 35.2492 33.0002 35.2492C33.1922 35.2492 33.3842 35.1757 33.5304 35.0295C33.8237 34.7362 33.8237 34.2622 33.5304 33.969L32.0304 32.469Z" fill="#F9B11A"/>
<path d="M27.75 32.9993C27.3353 32.9993 27 33.3353 27 33.7493V35.9993C27 36.4133 27.3353 36.7493 27.75 36.7493C28.1647 36.7493 28.5 36.4133 28.5 35.9993V33.7493C28.5 33.3353 28.1647 32.9993 27.75 32.9993Z" fill="#F9B11A"/>
<path d="M34.5 28.4993H32.25C31.8353 28.4993 31.5 28.8353 31.5 29.2493C31.5 29.6633 31.8353 29.9993 32.25 29.9993H34.5C34.9148 29.9993 35.25 29.6633 35.25 29.2493C35.25 28.8353 34.9148 28.4993 34.5 28.4993Z" fill="#F9B11A"/>
<path d="M14.4699 17.0295C14.6162 17.1757 14.8082 17.2492 15.0002 17.2492C15.1922 17.2492 15.3842 17.1757 15.5304 17.0295C15.8237 16.7362 15.8237 16.2622 15.5304 15.969L14.0304 14.469C13.7372 14.1757 13.2632 14.1757 12.9699 14.469C12.6767 14.7622 12.6767 15.2362 12.9699 15.5295L14.4699 17.0295Z" fill="#F9B11A"/>
<path d="M18.75 16.4993C19.1647 16.4993 19.5 16.1633 19.5 15.7493V13.4993C19.5 13.0853 19.1647 12.7493 18.75 12.7493C18.3353 12.7493 18 13.0853 18 13.4993V15.7493C18 16.1633 18.3353 16.4993 18.75 16.4993Z" fill="#F9B11A"/>
<path d="M12 20.9993H14.25C14.6648 20.9993 15 20.6633 15 20.2493C15 19.8353 14.6648 19.4993 14.25 19.4993H12C11.5853 19.4993 11.25 19.8353 11.25 20.2493C11.25 20.6633 11.5853 20.9993 12 20.9993Z" fill="#F9B11A"/>
<path d="M48 2.24936C48 1.64861 47.7652 1.08311 47.3407 0.658613C46.4632 -0.218887 45.0368 -0.218887 44.1593 0.658613L32.3145 12.5034L30.621 10.8099C30.0562 10.2451 29.3033 9.93386 28.5 9.93386C27.6967 9.93386 26.9438 10.2451 26.379 10.8099L21.2197 15.9691C20.9265 16.2624 20.9265 16.7364 21.2197 17.0296L22.254 18.0639L20.1592 20.1579C19.734 20.5839 19.5 21.1486 19.5 21.7494C19.5 22.3501 19.734 22.9156 20.1592 23.3401C20.5837 23.7654 21.1493 23.9994 21.75 23.9994C22.3507 23.9994 22.9163 23.7654 23.3408 23.3401L25.4355 21.2454L26.754 22.5639L24.6593 24.6579C24.234 25.0839 24 25.6486 24 26.2494C24 26.8501 24.234 27.4156 24.6593 27.8401C25.0838 28.2654 25.6493 28.4994 26.25 28.4994C26.8507 28.4994 27.4162 28.2654 27.8407 27.8401L29.9355 25.7454L30.9697 26.7796C31.116 26.9259 31.308 26.9994 31.5 26.9994C31.692 26.9994 31.884 26.9259 32.0303 26.7796L37.1895 21.6204C38.3587 20.4511 38.3587 18.5476 37.1895 17.3784L35.496 15.6849L47.3407 3.84086C47.7652 3.41561 48 2.85086 48 2.24936ZM22.2803 22.2796C21.996 22.5631 21.504 22.5631 21.2197 22.2796C21.0772 22.1379 21 21.9496 21 21.7494C21 21.5491 21.0772 21.3609 21.2197 21.2191L23.3145 19.1244L24.375 20.1849L22.2803 22.2796ZM26.7803 26.7796C26.496 27.0631 26.004 27.0631 25.7197 26.7796C25.5772 26.6379 25.5 26.4496 25.5 26.2494C25.5 26.0491 25.5772 25.8609 25.7197 25.7191L27.8145 23.6244L28.875 24.6849L26.7803 26.7796ZM36.129 20.5599L31.5 25.1889L22.8105 16.4994L27.4395 11.8704C28.002 11.3071 28.998 11.3071 29.5605 11.8704L36.129 18.4389C36.7133 19.0239 36.7133 19.9756 36.129 20.5599ZM46.2803 2.77961L34.4355 14.6244L33.375 13.5639L45.2197 1.71911C45.513 1.42661 45.987 1.42661 46.2803 1.71911C46.422 1.86086 46.5 2.04911 46.5 2.24936C46.5 2.44961 46.422 2.63786 46.2803 2.77961Z" fill="#F9B11A"/>
<path d="M15.2175 32.7817C15.3593 32.9167 15.555 32.9992 15.75 32.9992C15.945 32.9992 16.1392 32.9167 16.2825 32.7817C16.4175 32.6392 16.5 32.4442 16.5 32.2492C16.5 32.0542 16.4175 31.8592 16.2825 31.7167C15.9975 31.4392 15.495 31.4392 15.2175 31.7167C15.0818 31.8592 15 32.0542 15 32.2492C15 32.4442 15.0818 32.6392 15.2175 32.7817Z" fill="#F9B11A"/>
<path d="M30.5925 16.3417C30.4568 16.4842 30.375 16.6792 30.375 16.8742C30.375 17.0692 30.4568 17.2642 30.5925 17.4067C30.7343 17.5417 30.9218 17.6242 31.125 17.6242C31.3267 17.6242 31.5142 17.5417 31.6575 17.4067C31.7925 17.2642 31.875 17.0692 31.875 16.8742C31.875 16.6792 31.7925 16.4842 31.6575 16.3417C31.38 16.0642 30.87 16.0642 30.5925 16.3417Z" fill="#F9B11A"/>
</g>
<defs>
<clipPath id="clip0_57_689">
<rect width="48" height="48" fill="white"/>
</clipPath>
</defs>
</svg>
