<svg xmlns="http://www.w3.org/2000/svg" width="43" height="43" viewBox="0 0 43 43" fill="none">
  <path d="M36.6765 2.52941H32.8824V1.26471C32.8824 0.929285 32.7491 0.607602 32.5119 0.370424C32.2748 0.133246 31.9531 0 31.6176 0C31.2822 0 30.9605 0.133246 30.7234 0.370424C30.4862 0.607602 30.3529 0.929285 30.3529 1.26471V2.52941H12.6471V1.26471C12.6471 0.929285 12.5138 0.607602 12.2766 0.370424C12.0395 0.133246 11.7178 0 11.3824 0C11.0469 0 10.7252 0.133246 10.4881 0.370424C10.2509 0.607602 10.1176 0.929285 10.1176 1.26471V2.52941H6.32353C4.64643 2.52941 3.03801 3.19564 1.85212 4.38153C0.666227 5.56742 0 7.17584 0 8.85294V36.6765C0 38.3536 0.666227 39.962 1.85212 41.1479C3.03801 42.3338 4.64643 43 6.32353 43H36.6765C38.3536 43 39.962 42.3338 41.1479 41.1479C42.3338 39.962 43 38.3536 43 36.6765V8.85294C43 7.17584 42.3338 5.56742 41.1479 4.38153C39.962 3.19564 38.3536 2.52941 36.6765 2.52941ZM6.32353 5.05882H10.1176V6.32353C10.1176 6.65895 10.2509 6.98063 10.4881 7.21781C10.7252 7.45499 11.0469 7.58824 11.3824 7.58824C11.7178 7.58824 12.0395 7.45499 12.2766 7.21781C12.5138 6.98063 12.6471 6.65895 12.6471 6.32353V5.05882H30.3529V6.32353C30.3529 6.65895 30.4862 6.98063 30.7234 7.21781C30.9605 7.45499 31.2822 7.58824 31.6176 7.58824C31.9531 7.58824 32.2748 7.45499 32.5119 7.21781C32.7491 6.98063 32.8824 6.65895 32.8824 6.32353V5.05882H36.6765C37.6827 5.05882 38.6478 5.45856 39.3593 6.17009C40.0709 6.88163 40.4706 7.84668 40.4706 8.85294V10.1176H2.52941V8.85294C2.52941 7.84668 2.92915 6.88163 3.64068 6.17009C4.35222 5.45856 5.31727 5.05882 6.32353 5.05882ZM36.6765 40.4706H6.32353C5.31727 40.4706 4.35222 40.0709 3.64068 39.3593C2.92915 38.6478 2.52941 37.6827 2.52941 36.6765V12.6471H40.4706V36.6765C40.4706 37.6827 40.0709 38.6478 39.3593 39.3593C38.6478 40.0709 37.6827 40.4706 36.6765 40.4706ZM12.6471 20.2353C12.6471 20.5707 12.5138 20.8924 12.2766 21.1296C12.0395 21.3668 11.7178 21.5 11.3824 21.5H8.85294C8.51752 21.5 8.19584 21.3668 7.95866 21.1296C7.72148 20.8924 7.58824 20.5707 7.58824 20.2353C7.58824 19.8999 7.72148 19.5782 7.95866 19.341C8.19584 19.1038 8.51752 18.9706 8.85294 18.9706H11.3824C11.7178 18.9706 12.0395 19.1038 12.2766 19.341C12.5138 19.5782 12.6471 19.8999 12.6471 20.2353ZM20.2353 20.2353C20.2353 20.5707 20.1021 20.8924 19.8649 21.1296C19.6277 21.3668 19.306 21.5 18.9706 21.5H16.4412C16.1058 21.5 15.7841 21.3668 15.5469 21.1296C15.3097 20.8924 15.1765 20.5707 15.1765 20.2353C15.1765 19.8999 15.3097 19.5782 15.5469 19.341C15.7841 19.1038 16.1058 18.9706 16.4412 18.9706H18.9706C19.306 18.9706 19.6277 19.1038 19.8649 19.341C20.1021 19.5782 20.2353 19.8999 20.2353 20.2353ZM27.8235 20.2353C27.8235 20.5707 27.6903 20.8924 27.4531 21.1296C27.2159 21.3668 26.8942 21.5 26.5588 21.5H24.0294C23.694 21.5 23.3723 21.3668 23.1351 21.1296C22.898 20.8924 22.7647 20.5707 22.7647 20.2353C22.7647 19.8999 22.898 19.5782 23.1351 19.341C23.3723 19.1038 23.694 18.9706 24.0294 18.9706H26.5588C26.8942 18.9706 27.2159 19.1038 27.4531 19.341C27.6903 19.5782 27.8235 19.8999 27.8235 20.2353ZM35.4118 20.2353C35.4118 20.5707 35.2785 20.8924 35.0413 21.1296C34.8042 21.3668 34.4825 21.5 34.1471 21.5H31.6176C31.2822 21.5 30.9605 21.3668 30.7234 21.1296C30.4862 20.8924 30.3529 20.5707 30.3529 20.2353C30.3529 19.8999 30.4862 19.5782 30.7234 19.341C30.9605 19.1038 31.2822 18.9706 31.6176 18.9706H34.1471C34.4825 18.9706 34.8042 19.1038 35.0413 19.341C35.2785 19.5782 35.4118 19.8999 35.4118 20.2353ZM12.6471 26.5588C12.6471 26.8942 12.5138 27.2159 12.2766 27.4531C12.0395 27.6903 11.7178 27.8235 11.3824 27.8235H8.85294C8.51752 27.8235 8.19584 27.6903 7.95866 27.4531C7.72148 27.2159 7.58824 26.8942 7.58824 26.5588C7.58824 26.2234 7.72148 25.9017 7.95866 25.6645C8.19584 25.4274 8.51752 25.2941 8.85294 25.2941H11.3824C11.7178 25.2941 12.0395 25.4274 12.2766 25.6645C12.5138 25.9017 12.6471 26.2234 12.6471 26.5588ZM20.2353 26.5588C20.2353 26.8942 20.1021 27.2159 19.8649 27.4531C19.6277 27.6903 19.306 27.8235 18.9706 27.8235H16.4412C16.1058 27.8235 15.7841 27.6903 15.5469 27.4531C15.3097 27.2159 15.1765 26.8942 15.1765 26.5588C15.1765 26.2234 15.3097 25.9017 15.5469 25.6645C15.7841 25.4274 16.1058 25.2941 16.4412 25.2941H18.9706C19.306 25.2941 19.6277 25.4274 19.8649 25.6645C20.1021 25.9017 20.2353 26.2234 20.2353 26.5588ZM27.8235 26.5588C27.8235 26.8942 27.6903 27.2159 27.4531 27.4531C27.2159 27.6903 26.8942 27.8235 26.5588 27.8235H24.0294C23.694 27.8235 23.3723 27.6903 23.1351 27.4531C22.898 27.2159 22.7647 26.8942 22.7647 26.5588C22.7647 26.2234 22.898 25.9017 23.1351 25.6645C23.3723 25.4274 23.694 25.2941 24.0294 25.2941H26.5588C26.8942 25.2941 27.2159 25.4274 27.4531 25.6645C27.6903 25.9017 27.8235 26.2234 27.8235 26.5588ZM35.4118 26.5588C35.4118 26.8942 35.2785 27.2159 35.0413 27.4531C34.8042 27.6903 34.4825 27.8235 34.1471 27.8235H31.6176C31.2822 27.8235 30.9605 27.6903 30.7234 27.4531C30.4862 27.2159 30.3529 26.8942 30.3529 26.5588C30.3529 26.2234 30.4862 25.9017 30.7234 25.6645C30.9605 25.4274 31.2822 25.2941 31.6176 25.2941H34.1471C34.4825 25.2941 34.8042 25.4274 35.0413 25.6645C35.2785 25.9017 35.4118 26.2234 35.4118 26.5588ZM12.6471 32.8824C12.6471 33.2178 12.5138 33.5395 12.2766 33.7766C12.0395 34.0138 11.7178 34.1471 11.3824 34.1471H8.85294C8.51752 34.1471 8.19584 34.0138 7.95866 33.7766C7.72148 33.5395 7.58824 33.2178 7.58824 32.8824C7.58824 32.5469 7.72148 32.2253 7.95866 31.9881C8.19584 31.7509 8.51752 31.6176 8.85294 31.6176H11.3824C11.7178 31.6176 12.0395 31.7509 12.2766 31.9881C12.5138 32.2253 12.6471 32.5469 12.6471 32.8824ZM20.2353 32.8824C20.2353 33.2178 20.1021 33.5395 19.8649 33.7766C19.6277 34.0138 19.306 34.1471 18.9706 34.1471H16.4412C16.1058 34.1471 15.7841 34.0138 15.5469 33.7766C15.3097 33.5395 15.1765 33.2178 15.1765 32.8824C15.1765 32.5469 15.3097 32.2253 15.5469 31.9881C15.7841 31.7509 16.1058 31.6176 16.4412 31.6176H18.9706C19.306 31.6176 19.6277 31.7509 19.8649 31.9881C20.1021 32.2253 20.2353 32.5469 20.2353 32.8824ZM27.8235 32.8824C27.8235 33.2178 27.6903 33.5395 27.4531 33.7766C27.2159 34.0138 26.8942 34.1471 26.5588 34.1471H24.0294C23.694 34.1471 23.3723 34.0138 23.1351 33.7766C22.898 33.5395 22.7647 33.2178 22.7647 32.8824C22.7647 32.5469 22.898 32.2253 23.1351 31.9881C23.3723 31.7509 23.694 31.6176 24.0294 31.6176H26.5588C26.8942 31.6176 27.2159 31.7509 27.4531 31.9881C27.6903 32.2253 27.8235 32.5469 27.8235 32.8824ZM35.4118 32.8824C35.4118 33.2178 35.2785 33.5395 35.0413 33.7766C34.8042 34.0138 34.4825 34.1471 34.1471 34.1471H31.6176C31.2822 34.1471 30.9605 34.0138 30.7234 33.7766C30.4862 33.5395 30.3529 33.2178 30.3529 32.8824C30.3529 32.5469 30.4862 32.2253 30.7234 31.9881C30.9605 31.7509 31.2822 31.6176 31.6176 31.6176H34.1471C34.4825 31.6176 34.8042 31.7509 35.0413 31.9881C35.2785 32.2253 35.4118 32.5469 35.4118 32.8824Z" fill="#F9B11A"/>
</svg>