<svg width="18" height="18" viewBox="0 0 18 18" fill="none" xmlns="http://www.w3.org/2000/svg">
<g id="Solid">
<path id="Caminho 1458" d="M9.17085 11.569C9.00837 11.741 8.91935 11.9695 8.92272 12.2061C8.92608 12.4427 9.02156 12.6686 9.18887 12.8359C9.35617 13.0032 9.58212 13.0987 9.8187 13.1021C10.0553 13.1054 10.2838 13.0164 10.4558 12.854L13.8828 9.42696C14.0532 9.25651 14.1488 9.02542 14.1488 8.78447C14.1488 8.54352 14.0532 8.31242 13.8828 8.14197L10.4558 4.71497C10.3724 4.62661 10.272 4.55589 10.1608 4.50699C10.0495 4.45809 9.92953 4.432 9.80799 4.43027C9.68646 4.42854 9.56581 4.4512 9.45318 4.49692C9.34056 4.54263 9.23825 4.61048 9.1523 4.69643C9.06635 4.78237 8.99852 4.88468 8.9528 4.9973C8.90709 5.10992 8.88443 5.23058 8.88615 5.35211C8.88788 5.47365 8.91397 5.5936 8.96287 5.70488C9.01177 5.81616 9.08249 5.9165 9.17085 5.99997L11.0468 7.87596H1.12384C0.882762 7.87596 0.651553 7.97173 0.481083 8.1422C0.310612 8.31267 0.214844 8.54388 0.214844 8.78496C0.214844 9.02604 0.310612 9.25725 0.481083 9.42772C0.651553 9.59819 0.882762 9.69395 1.12384 9.69395H11.0468L9.17085 11.569Z" fill="#63A351"/>
<path id="Caminho 1459" d="M16.2739 2.97059e-06H7.79193C7.59273 -0.000391495 7.3954 0.0385037 7.21124 0.114463C7.02709 0.190422 6.85972 0.301954 6.71872 0.442674C6.57772 0.583394 6.46587 0.750541 6.38954 0.934545C6.31322 1.11855 6.27393 1.3158 6.27393 1.515V2.727C6.27393 2.96808 6.36969 3.19929 6.54016 3.36976C6.71063 3.54023 6.94184 3.636 7.18292 3.636C7.424 3.636 7.65521 3.54023 7.82568 3.36976C7.99615 3.19929 8.09192 2.96808 8.09192 2.727V1.818H15.9679V15.753H8.09192V14.844C8.09192 14.6029 7.99615 14.3717 7.82568 14.2012C7.65521 14.0308 7.424 13.935 7.18292 13.935C6.94184 13.935 6.71063 14.0308 6.54016 14.2012C6.36969 14.3717 6.27393 14.6029 6.27393 14.844V16.056C6.27393 16.4578 6.43355 16.8432 6.71767 17.1273C7.00178 17.4114 7.38712 17.571 7.78893 17.571H16.2739C16.6757 17.571 17.0611 17.4114 17.3452 17.1273C17.6293 16.8432 17.7889 16.4578 17.7889 16.056V1.515C17.7889 1.1132 17.6293 0.727854 17.3452 0.443736C17.0611 0.159619 16.6757 2.97059e-06 16.2739 2.97059e-06Z" fill="#63A351"/>
</g>
</svg>
