<svg xmlns="http://www.w3.org/2000/svg" width="87" height="95" viewBox="0 0 87 95" fill="none">
  <path d="M57.6548 34.4364L62.0552 29.8925L62.686 18.6552C62.686 18.6552 64.0746 17.3933 64.4536 17.8983C64.8326 18.4033 67.9888 22.6981 67.9888 22.6981L70.5122 30.7772L66.978 40.119L62.0552 43.1474L60.9194 59.5604H50.6919V43.1474L46.3999 41.2558L42.7388 36.3339C41.8112 35.2238 41.1239 33.9337 40.7192 32.5448C40.4672 30.9048 40.0882 27.1173 40.7192 26.6103C41.3502 26.1033 43.8755 21.5604 43.8755 21.5604L49.8081 17.9003L51.8286 19.7938L50.6909 33.1767L57.6548 34.4364Z" fill="#CFDC1D"/>
  <path d="M82.6792 23.5793H81.7242C81.1609 21.6003 80.3703 19.6933 79.3682 17.8963L80.0472 17.2173C80.8186 16.4428 81.2517 15.3943 81.2517 14.3013C81.2517 13.2082 80.8186 12.1597 80.0472 11.3853L75.5242 6.86827C75.1413 6.48482 74.6866 6.18061 74.1861 5.97305C73.6856 5.76549 73.149 5.65866 72.6072 5.65866C72.0653 5.65866 71.5288 5.76549 71.0282 5.97305C70.5277 6.18061 70.073 6.48482 69.6902 6.86827L69.0122 7.54627C67.2154 6.54192 65.3079 5.74994 63.3282 5.18627V4.22827C63.3271 3.13475 62.8923 2.08631 62.1192 1.31298C61.346 0.539649 60.2977 0.104595 59.2042 0.103271L52.8102 0.103271C51.7165 0.10433 50.6679 0.539268 49.8945 1.31263C49.1212 2.08598 48.6862 3.13458 48.6852 4.22827V5.18327C46.7026 5.74694 44.7921 6.53891 42.9922 7.54327L42.3172 6.86827C41.9343 6.48482 41.4796 6.18061 40.9791 5.97305C40.4786 5.76549 39.942 5.65866 39.4002 5.65866C38.8583 5.65866 38.3218 5.76549 37.8212 5.97305C37.3207 6.18061 36.866 6.48482 36.4832 6.86827L31.9612 11.3903C31.1901 12.1647 30.7572 13.213 30.7572 14.3058C30.7572 15.3986 31.1901 16.4469 31.9612 17.2213L32.6402 17.9003C31.6366 19.6967 30.8456 21.6039 30.2832 23.5833H29.3252C28.2317 23.5846 27.1833 24.0196 26.4102 24.793C25.637 25.5663 25.2022 26.6148 25.2012 27.7083V34.1033C25.2022 35.1968 25.637 36.2452 26.4102 37.0186C27.1833 37.7919 28.2317 38.2269 29.3252 38.2283H30.2832C30.8457 40.2076 31.6367 42.1148 32.6402 43.9113L31.9612 44.5903C31.1901 45.3647 30.7572 46.413 30.7572 47.5058C30.7572 48.5986 31.1901 49.6469 31.9612 50.4213L36.4792 54.9393C36.8608 55.3251 37.3155 55.6309 37.8167 55.839C38.3179 56.0471 38.8555 56.1533 39.3982 56.1513C39.9399 56.1533 40.4766 56.0476 40.9771 55.8402C41.4775 55.6328 41.9317 55.3279 42.3132 54.9433L42.9922 54.2643C44.7901 55.2686 46.699 56.06 48.6802 56.6223V57.5803C48.6812 58.674 49.1162 59.7226 49.8895 60.4959C50.6629 61.2693 51.7115 61.7042 52.8052 61.7053H59.1992C60.2929 61.7042 61.3415 61.2693 62.1148 60.4959C62.8882 59.7226 63.3231 58.674 63.3242 57.5803V56.6223C65.3042 56.0607 67.2118 55.2697 69.0082 54.2653L69.6822 54.9393C70.065 55.3227 70.5197 55.6269 71.0202 55.8345C71.5208 56.042 72.0573 56.1489 72.5992 56.1489C73.141 56.1489 73.6776 56.042 74.1781 55.8345C74.6786 55.6269 75.1333 55.3227 75.5162 54.9393L80.0442 50.4163C80.8153 49.6419 81.2482 48.5936 81.2482 47.5008C81.2482 46.408 80.8153 45.3597 80.0442 44.5853L79.3652 43.9063C80.3672 42.1092 81.1578 40.2022 81.7212 38.2233H82.6762C83.7695 38.223 84.8181 37.7891 85.592 37.0167C86.3659 36.2444 86.8018 35.1966 86.8042 34.1033V27.7033C86.8031 26.6098 86.3683 25.5613 85.5952 24.788C84.822 24.0147 83.7737 23.5796 82.6802 23.5783L82.6792 23.5793ZM59.6482 57.5793C59.6469 57.6969 59.5996 57.8093 59.5164 57.8925C59.4332 57.9757 59.3208 58.023 59.2032 58.0243H52.8092C52.6916 58.023 52.5791 57.9757 52.496 57.8925C52.4128 57.8093 52.3655 57.6969 52.3642 57.5793V43.5913C52.3642 43.2156 52.2492 42.849 52.0346 42.5406C51.8201 42.2323 51.5164 41.9969 51.1642 41.8663C48.9848 41.0688 47.068 39.6848 45.6252 37.8671C44.1824 36.0494 43.2696 33.8685 42.9875 31.565C42.7055 29.2615 43.0651 26.9248 44.0267 24.8127C44.9883 22.7006 46.5146 20.8951 48.4372 19.5953C48.5932 19.4893 48.7302 19.4023 48.8512 19.3313C48.8442 19.5703 48.8272 19.7983 48.8182 19.9163C48.8042 20.1033 48.7932 20.2503 48.7932 20.3963V29.0803C48.7972 31.0061 49.531 32.8588 50.8466 34.2651C52.1622 35.6715 53.9619 36.527 55.8832 36.6593C55.9644 36.6646 56.0459 36.6646 56.1272 36.6593C58.0477 36.5262 59.8465 35.6703 61.1611 34.264C62.4758 32.8577 63.2087 31.0054 63.2122 29.0803V20.3963C63.2122 20.2503 63.2012 20.1043 63.1872 19.9183C63.1782 19.7993 63.1612 19.5703 63.1552 19.3303C63.2752 19.4013 63.4122 19.4883 63.5672 19.5943C65.4902 20.8935 67.017 22.6986 67.9792 24.8105C68.9415 26.9224 69.3017 29.2591 69.0203 31.5627C68.7389 33.8663 67.8266 36.0475 66.3843 37.8656C64.9419 39.6838 63.0254 41.0682 60.8462 41.8663C60.494 41.9969 60.1902 42.2323 59.9757 42.5406C59.7612 42.849 59.6462 43.2156 59.6462 43.5913V57.5803L59.6482 57.5793ZM83.1242 34.1033C83.1214 34.2204 83.0736 34.332 82.9908 34.4148C82.9079 34.4977 82.7963 34.5455 82.6792 34.5483H80.2922C79.8747 34.5482 79.4696 34.6901 79.1434 34.9507C78.8172 35.2113 78.5893 35.5751 78.4972 35.9823C77.9181 38.548 76.9034 40.9954 75.4972 43.2183C75.274 43.5713 75.1776 43.9897 75.2238 44.4048C75.2699 44.8199 75.4559 45.2069 75.7512 45.5023L77.4412 47.1923C77.522 47.2764 77.5671 47.3886 77.5671 47.5053C77.5671 47.6219 77.522 47.7341 77.4412 47.8183L72.9092 52.3453C72.8264 52.4272 72.7146 52.4732 72.5982 52.4732C72.4817 52.4732 72.3699 52.4272 72.2872 52.3453L70.5972 50.6553C70.3016 50.3597 69.9141 50.1736 69.4986 50.1276C69.0831 50.0816 68.6643 50.1785 68.3112 50.4023C66.7505 51.3909 65.0756 52.1864 63.3232 52.7713V44.8153C65.9422 43.607 68.1933 41.7247 69.846 39.3609C71.4988 36.9971 72.4939 34.2367 72.7296 31.362C72.9653 28.4874 72.4331 25.6017 71.1875 23.0003C69.9418 20.3988 68.0274 18.175 65.6402 16.5563C64.9552 16.0883 62.8712 14.6633 61.0492 15.7123C59.2592 16.7423 59.4382 19.1583 59.5142 20.1893C59.5212 20.2793 59.5272 20.3543 59.5282 20.3963V29.0803C59.5773 29.5733 59.5227 30.0712 59.3677 30.5418C59.2127 31.0124 58.9608 31.4453 58.6283 31.8126C58.2957 32.1799 57.8899 32.4735 57.437 32.6744C56.9841 32.8754 56.4941 32.9792 55.9987 32.9792C55.5032 32.9792 55.0132 32.8754 54.5603 32.6744C54.1074 32.4735 53.7016 32.1799 53.3691 31.8126C53.0366 31.4453 52.7847 31.0124 52.6297 30.5418C52.4747 30.0712 52.42 29.5733 52.4692 29.0803V20.4103C52.4692 20.3553 52.4772 20.2793 52.4842 20.1893C52.5612 19.1583 52.7412 16.7443 50.9522 15.7133C49.1302 14.6623 47.0432 16.0873 46.3522 16.5563C43.9643 18.1749 42.0495 20.3991 40.8036 23.001C39.5578 25.6029 39.0258 28.4891 39.2621 31.3642C39.4983 34.2393 40.4943 37 42.1481 39.3637C43.8019 41.7273 46.0541 43.6091 48.6742 44.8163V52.7673C46.9198 52.1815 45.2426 51.3857 43.6792 50.3973C43.3262 50.1741 42.9077 50.0777 42.4926 50.1239C42.0776 50.17 41.6905 50.356 41.3952 50.6513L39.7012 52.3453C39.6184 52.4272 39.5067 52.4732 39.3902 52.4732C39.2737 52.4732 39.1619 52.4272 39.0792 52.3453L34.5572 47.8233C34.4761 47.7391 34.4308 47.6267 34.4308 47.5098C34.4308 47.3929 34.4761 47.2805 34.5572 47.1963L36.2472 45.5063C36.5424 45.2109 36.7284 44.8239 36.7746 44.4088C36.8208 43.9937 36.7243 43.5753 36.5012 43.2223C35.0932 41.0015 34.0784 38.5547 33.5012 35.9893C33.4095 35.5807 33.1811 35.2156 32.8538 34.9543C32.5266 34.693 32.1199 34.5512 31.7012 34.5523H29.3122C29.195 34.5495 29.0835 34.5017 29.0006 34.4188C28.9178 34.336 28.87 34.2244 28.8672 34.1073V27.7033C28.8685 27.5857 28.9158 27.4732 28.9989 27.39C29.0821 27.3069 29.1946 27.2596 29.3122 27.2583H31.7012C32.1199 27.2593 32.5266 27.1175 32.8538 26.8562C33.1811 26.595 33.4095 26.2299 33.5012 25.8213C34.0783 23.2558 35.0931 20.809 36.5012 18.5883C36.7243 18.2353 36.8208 17.8168 36.7746 17.4017C36.7284 16.9867 36.5424 16.5996 36.2472 16.3043L34.5572 14.6143C34.4761 14.53 34.4308 14.4177 34.4308 14.3008C34.4308 14.1839 34.4761 14.0715 34.5572 13.9873L39.0922 9.46227C39.1749 9.38032 39.2867 9.33435 39.4032 9.33435C39.5197 9.33435 39.6314 9.38032 39.7142 9.46227L41.4042 11.1523C41.6995 11.4475 42.0866 11.6335 42.5016 11.6797C42.9167 11.7258 43.3352 11.6294 43.6882 11.4063C45.9124 9.99935 48.3617 8.98462 50.9292 8.40627C51.3366 8.31435 51.7006 8.08656 51.9614 7.76035C52.2222 7.43414 52.3642 7.02891 52.3642 6.61127V4.22827C52.3655 4.11082 52.4126 3.99854 52.4956 3.91539C52.5786 3.83225 52.6907 3.78483 52.8082 3.78327H59.2022C59.3198 3.78457 59.4322 3.83187 59.5154 3.91505C59.5986 3.99822 59.6459 4.11065 59.6472 4.22827V6.61127C59.6479 7.02853 59.7904 7.43317 60.0513 7.75878C60.3122 8.0844 60.6761 8.31166 61.0832 8.40327C63.6488 8.98061 66.0959 9.99544 68.3172 11.4033C68.6703 11.6271 69.0891 11.7239 69.5046 11.678C69.9201 11.632 70.3076 11.4459 70.6032 11.1503L72.2922 9.46327C72.3751 9.38126 72.487 9.33526 72.6037 9.33526C72.7203 9.33526 72.8322 9.38126 72.9152 9.46327L77.4422 13.9843C77.5233 14.0685 77.5686 14.1809 77.5686 14.2978C77.5686 14.4147 77.5233 14.5271 77.4422 14.6113L75.7522 16.3013C75.4569 16.5966 75.2709 16.9837 75.2248 17.3987C75.1786 17.8138 75.275 18.2323 75.4982 18.5853C76.9043 20.8081 77.919 23.2556 78.4982 25.8213C78.5903 26.2285 78.8182 26.5923 79.1444 26.8529C79.4706 27.1134 79.8757 27.2554 80.2932 27.2553H82.6772C82.7948 27.2566 82.9072 27.3039 82.9904 27.387C83.0736 27.4702 83.1209 27.5827 83.1222 27.7003V34.1033H83.1242Z" fill="#0B7A45"/>
  <path d="M66.7316 81.1213C66.5493 81.2893 66.4028 81.4925 66.301 81.7185C66.1992 81.9446 66.1441 82.1889 66.1391 82.4368C66.134 82.6847 66.1791 82.931 66.2717 83.161C66.3642 83.391 66.5023 83.6 66.6776 83.7753C66.8529 83.9506 67.0618 84.0887 67.2919 84.1812C67.5219 84.2738 67.7682 84.3189 68.0161 84.3138C68.264 84.3088 68.5083 84.2537 68.7343 84.1519C68.9604 84.05 69.1635 83.9036 69.3316 83.7213L69.3366 83.7163C69.6814 83.3706 69.8747 82.9021 69.874 82.4138C69.8734 81.9256 69.6788 81.4576 69.3331 81.1128C68.9874 80.768 68.5189 80.5747 68.0306 80.5753C67.5424 80.576 67.0744 80.7706 66.7296 81.1163L66.7316 81.1213Z" fill="#0B7A45"/>
  <path d="M75.252 63.2973L60.644 70.7973C60.0107 70.1385 59.2509 69.6144 58.4101 69.2565C57.5693 68.8985 56.6648 68.7141 55.751 68.7143H45.742C45.5052 68.7287 45.2676 68.7126 45.035 68.6663C44.8432 68.5197 44.6614 68.3603 44.491 68.1893L44.4 68.1033C36.3 60.4803 29.462 60.9633 21.684 64.0333C20.8942 64.4264 20.0187 64.6162 19.137 64.5853H16.874C16.5506 63.6104 15.9286 62.762 15.0962 62.1602C14.2638 61.5584 13.2632 61.2338 12.236 61.2323H4.881C3.58626 61.2344 2.34524 61.7501 1.43019 62.666C0.515135 63.582 0.000792748 64.8236 0 66.1183V85.4323C-6.78057e-07 86.7273 0.514086 87.9693 1.42931 88.8855C2.34453 89.8016 3.58602 90.317 4.881 90.3183H12.24C13.2667 90.3173 14.267 89.9933 15.0994 89.3922C15.9318 88.7912 16.554 87.9435 16.878 86.9693H21.018C21.2871 86.9544 21.5564 86.9953 21.809 87.0893C21.964 87.1333 22.152 87.1893 22.394 87.2513L41.437 92.3463C42.276 92.5733 43.046 92.7963 43.791 93.0123C45.928 93.7559 48.1594 94.1936 50.419 94.3123C52.835 94.3123 55.361 93.5533 58.683 91.3393L58.731 91.3063L62.366 88.7143C62.7638 88.4311 63.0328 88.0014 63.1138 87.5198C63.1949 87.0382 63.0813 86.5441 62.798 86.1463C62.5147 85.7485 62.0851 85.4795 61.6035 85.3985C61.1219 85.3175 60.6278 85.4311 60.23 85.7143L56.619 88.2893C51.798 91.4963 49.75 90.9033 44.819 89.4733C44.059 89.2533 43.273 89.0253 42.397 88.7883L23.353 83.6933C23.13 83.6333 22.953 83.5843 22.811 83.5433C22.2347 83.352 21.6289 83.2647 21.022 83.2853H17.123V68.2713H19.111H19.19H19.29C20.5816 68.2862 21.8601 68.0107 23.031 67.4653C29.863 64.7653 35.136 64.4493 41.876 70.7943L41.967 70.8803C42.4295 71.4151 43.0126 71.8322 43.6681 72.097C44.3237 72.3618 45.0328 72.4668 45.737 72.4033H55.751C56.309 72.4039 56.8567 72.5537 57.3373 72.8373C57.8179 73.121 58.2138 73.5281 58.484 74.0163L58.502 74.0473C58.7583 74.5229 58.8867 75.057 58.8746 75.5971C58.8625 76.1373 58.7104 76.665 58.4331 77.1287C58.1558 77.5924 57.7628 77.9761 57.2926 78.2423C56.8225 78.5085 56.2913 78.6481 55.751 78.6473H39.531C39.043 78.6473 38.575 78.8412 38.2299 79.1862C37.8849 79.5313 37.691 79.9993 37.691 80.4873C37.691 80.9753 37.8849 81.4433 38.2299 81.7884C38.575 82.1335 39.043 82.3273 39.531 82.3273H55.751C56.7704 82.3279 57.7768 82.0993 58.6959 81.6584C59.615 81.2175 60.4233 80.5756 61.0608 79.7802C61.6984 78.9848 62.1489 78.0563 62.3792 77.0632C62.6094 76.0702 62.6135 75.0381 62.391 74.0433L76.932 66.5753C77.2614 66.3491 77.6332 66.1919 78.0249 66.1131C78.4167 66.0344 78.8204 66.0358 79.2116 66.1172C79.6028 66.1986 79.9735 66.3583 80.3013 66.5868C80.6292 66.8153 80.9074 67.1078 81.1192 67.4466C81.331 67.7855 81.472 68.1637 81.5338 68.5585C81.5955 68.9533 81.5767 69.3565 81.4785 69.7439C81.3803 70.1312 81.2047 70.4946 80.9623 70.8123C80.7199 71.13 80.4157 71.3953 80.068 71.5923L73.689 76.1353C73.492 76.2755 73.3246 76.4531 73.1962 76.658C73.0679 76.8629 72.9812 77.0911 72.941 77.3295C72.9008 77.5679 72.908 77.8119 72.9622 78.0475C73.0163 78.2832 73.1163 78.5058 73.2565 78.7028C73.3967 78.8998 73.5743 79.0672 73.7792 79.1956C73.9841 79.3239 74.2123 79.4106 74.4507 79.4508C74.6891 79.491 74.9331 79.4838 75.1687 79.4297C75.4044 79.3755 75.627 79.2755 75.824 79.1353L82.203 74.5923C83.6601 73.652 84.6907 72.1781 85.0739 70.4869C85.4571 68.7956 85.1625 67.0215 84.2531 65.5449C83.3437 64.0683 81.892 63.0069 80.2092 62.588C78.5264 62.1692 76.7465 62.4263 75.251 63.3043L75.252 63.2973ZM13.443 85.4373C13.4381 85.7551 13.3092 86.0583 13.084 86.2825C12.8587 86.5067 12.5548 86.634 12.237 86.6373H4.881C4.56411 86.6329 4.26143 86.5051 4.03733 86.281C3.81324 86.0569 3.6854 85.7542 3.681 85.4373V66.1233C3.68021 65.9652 3.71066 65.8085 3.77062 65.6623C3.83057 65.516 3.91883 65.383 4.03034 65.2709C4.14185 65.1588 4.27441 65.0699 4.42039 65.0092C4.56637 64.9485 4.72291 64.9173 4.881 64.9173H12.24C12.5586 64.9215 12.8629 65.0498 13.0882 65.2751C13.3135 65.5004 13.4419 65.8048 13.446 66.1233L13.443 85.4373Z" fill="#0B7A45"/>
  <path d="M82.6792 23.5793H81.7242C81.1609 21.6003 80.3703 19.6933 79.3682 17.8963L80.0472 17.2173C80.8186 16.4428 81.2517 15.3943 81.2517 14.3013C81.2517 13.2082 80.8186 12.1597 80.0472 11.3853L75.5242 6.86827C75.1413 6.48482 74.6866 6.18061 74.1861 5.97305C73.6856 5.76549 73.149 5.65866 72.6072 5.65866C72.0653 5.65866 71.5288 5.76549 71.0282 5.97305C70.5277 6.18061 70.073 6.48482 69.6902 6.86827L69.0122 7.54627C67.2154 6.54192 65.3079 5.74994 63.3282 5.18627V4.22827C63.3271 3.13475 62.8923 2.08631 62.1192 1.31298C61.346 0.539649 60.2977 0.104595 59.2042 0.103271L52.8102 0.103271C51.7165 0.10433 50.6679 0.539268 49.8945 1.31263C49.1212 2.08598 48.6862 3.13458 48.6852 4.22827V5.18327C46.7026 5.74694 44.7921 6.53891 42.9922 7.54327L42.3172 6.86827C41.9343 6.48482 41.4796 6.18061 40.9791 5.97305C40.4786 5.76549 39.942 5.65866 39.4002 5.65866C38.8583 5.65866 38.3218 5.76549 37.8212 5.97305C37.3207 6.18061 36.866 6.48482 36.4832 6.86827L31.9612 11.3903C31.1901 12.1647 30.7572 13.213 30.7572 14.3058C30.7572 15.3986 31.1901 16.4469 31.9612 17.2213L32.6402 17.9003C31.6366 19.6967 30.8456 21.6039 30.2832 23.5833H29.3252C28.2317 23.5846 27.1833 24.0196 26.4102 24.793C25.637 25.5663 25.2022 26.6148 25.2012 27.7083V34.1033C25.2022 35.1968 25.637 36.2452 26.4102 37.0186C27.1833 37.7919 28.2317 38.2269 29.3252 38.2283H30.2832C30.8457 40.2076 31.6367 42.1148 32.6402 43.9113L31.9612 44.5903C31.1901 45.3647 30.7572 46.413 30.7572 47.5058C30.7572 48.5986 31.1901 49.6469 31.9612 50.4213L36.4792 54.9393C36.8608 55.3251 37.3155 55.6309 37.8167 55.839C38.3179 56.0471 38.8555 56.1533 39.3982 56.1513C39.9399 56.1533 40.4766 56.0476 40.9771 55.8402C41.4775 55.6328 41.9317 55.3279 42.3132 54.9433L42.9922 54.2643C44.7901 55.2686 46.699 56.06 48.6802 56.6223V57.5803C48.6812 58.674 49.1162 59.7226 49.8895 60.4959C50.6629 61.2693 51.7115 61.7042 52.8052 61.7053H59.1992C60.2929 61.7042 61.3415 61.2693 62.1148 60.4959C62.8882 59.7226 63.3231 58.674 63.3242 57.5803V56.6223C65.3042 56.0607 67.2118 55.2697 69.0082 54.2653L69.6822 54.9393C70.065 55.3227 70.5197 55.6269 71.0202 55.8345C71.5208 56.042 72.0573 56.1489 72.5992 56.1489C73.141 56.1489 73.6776 56.042 74.1781 55.8345C74.6786 55.6269 75.1333 55.3227 75.5162 54.9393L80.0442 50.4163C80.8153 49.6419 81.2482 48.5936 81.2482 47.5008C81.2482 46.408 80.8153 45.3597 80.0442 44.5853L79.3652 43.9063C80.3672 42.1092 81.1578 40.2022 81.7212 38.2233H82.6762C83.7695 38.223 84.8181 37.7891 85.592 37.0167C86.3659 36.2444 86.8018 35.1966 86.8042 34.1033V27.7033C86.8031 26.6098 86.3683 25.5613 85.5952 24.788C84.822 24.0147 83.7737 23.5796 82.6802 23.5783L82.6792 23.5793ZM59.6482 57.5793C59.6469 57.6969 59.5996 57.8093 59.5164 57.8925C59.4332 57.9757 59.3208 58.023 59.2032 58.0243H52.8092C52.6916 58.023 52.5791 57.9757 52.496 57.8925C52.4128 57.8093 52.3655 57.6969 52.3642 57.5793V43.5913C52.3642 43.2156 52.2492 42.849 52.0346 42.5406C51.8201 42.2323 51.5164 41.9969 51.1642 41.8663C48.9848 41.0688 47.068 39.6848 45.6252 37.8671C44.1824 36.0494 43.2696 33.8685 42.9875 31.565C42.7055 29.2615 43.0651 26.9248 44.0267 24.8127C44.9883 22.7006 46.5146 20.8951 48.4372 19.5953C48.5932 19.4893 48.7302 19.4023 48.8512 19.3313C48.8442 19.5703 48.8272 19.7983 48.8182 19.9163C48.8042 20.1033 48.7932 20.2503 48.7932 20.3963V29.0803C48.7972 31.0061 49.531 32.8588 50.8466 34.2651C52.1622 35.6715 53.9619 36.527 55.8832 36.6593C55.9644 36.6646 56.0459 36.6646 56.1272 36.6593C58.0477 36.5262 59.8465 35.6703 61.1611 34.264C62.4758 32.8577 63.2087 31.0054 63.2122 29.0803V20.3963C63.2122 20.2503 63.2012 20.1043 63.1872 19.9183C63.1782 19.7993 63.1612 19.5703 63.1552 19.3303C63.2752 19.4013 63.4122 19.4883 63.5672 19.5943C65.4902 20.8935 67.017 22.6986 67.9792 24.8105C68.9415 26.9224 69.3017 29.2591 69.0203 31.5627C68.7389 33.8663 67.8266 36.0475 66.3843 37.8656C64.9419 39.6838 63.0254 41.0682 60.8462 41.8663C60.494 41.9969 60.1902 42.2323 59.9757 42.5406C59.7612 42.849 59.6462 43.2156 59.6462 43.5913V57.5803L59.6482 57.5793ZM83.1242 34.1033C83.1214 34.2204 83.0736 34.332 82.9908 34.4148C82.9079 34.4977 82.7963 34.5455 82.6792 34.5483H80.2922C79.8747 34.5482 79.4696 34.6901 79.1434 34.9507C78.8172 35.2113 78.5893 35.5751 78.4972 35.9823C77.9181 38.548 76.9034 40.9954 75.4972 43.2183C75.274 43.5713 75.1776 43.9897 75.2238 44.4048C75.2699 44.8199 75.4559 45.2069 75.7512 45.5023L77.4412 47.1923C77.522 47.2764 77.5671 47.3886 77.5671 47.5053C77.5671 47.6219 77.522 47.7341 77.4412 47.8183L72.9092 52.3453C72.8264 52.4272 72.7146 52.4732 72.5982 52.4732C72.4817 52.4732 72.3699 52.4272 72.2872 52.3453L70.5972 50.6553C70.3016 50.3597 69.9141 50.1736 69.4986 50.1276C69.0831 50.0816 68.6643 50.1785 68.3112 50.4023C66.7505 51.3909 65.0756 52.1864 63.3232 52.7713V44.8153C65.9422 43.607 68.1933 41.7247 69.846 39.3609C71.4988 36.9971 72.4939 34.2367 72.7296 31.362C72.9653 28.4874 72.4331 25.6017 71.1875 23.0003C69.9418 20.3988 68.0274 18.175 65.6402 16.5563C64.9552 16.0883 62.8712 14.6633 61.0492 15.7123C59.2592 16.7423 59.4382 19.1583 59.5142 20.1893C59.5212 20.2793 59.5272 20.3543 59.5282 20.3963V29.0803C59.5773 29.5733 59.5227 30.0712 59.3677 30.5418C59.2127 31.0124 58.9608 31.4453 58.6283 31.8126C58.2957 32.1799 57.8899 32.4735 57.437 32.6744C56.9841 32.8754 56.4941 32.9792 55.9987 32.9792C55.5032 32.9792 55.0132 32.8754 54.5603 32.6744C54.1074 32.4735 53.7016 32.1799 53.3691 31.8126C53.0366 31.4453 52.7847 31.0124 52.6297 30.5418C52.4747 30.0712 52.42 29.5733 52.4692 29.0803V20.4103C52.4692 20.3553 52.4772 20.2793 52.4842 20.1893C52.5612 19.1583 52.7412 16.7443 50.9522 15.7133C49.1302 14.6623 47.0432 16.0873 46.3522 16.5563C43.9643 18.1749 42.0495 20.3991 40.8036 23.001C39.5578 25.6029 39.0258 28.4891 39.2621 31.3642C39.4983 34.2393 40.4943 37 42.1481 39.3637C43.8019 41.7273 46.0541 43.6091 48.6742 44.8163V52.7673C46.9198 52.1815 45.2426 51.3857 43.6792 50.3973C43.3262 50.1741 42.9077 50.0777 42.4926 50.1239C42.0776 50.17 41.6905 50.356 41.3952 50.6513L39.7012 52.3453C39.6184 52.4272 39.5067 52.4732 39.3902 52.4732C39.2737 52.4732 39.1619 52.4272 39.0792 52.3453L34.5572 47.8233C34.4761 47.7391 34.4308 47.6267 34.4308 47.5098C34.4308 47.3929 34.4761 47.2805 34.5572 47.1963L36.2472 45.5063C36.5424 45.2109 36.7284 44.8239 36.7746 44.4088C36.8208 43.9937 36.7243 43.5753 36.5012 43.2223C35.0932 41.0015 34.0784 38.5547 33.5012 35.9893C33.4095 35.5807 33.1811 35.2156 32.8538 34.9543C32.5266 34.693 32.1199 34.5512 31.7012 34.5523H29.3122C29.195 34.5495 29.0835 34.5017 29.0006 34.4188C28.9178 34.336 28.87 34.2244 28.8672 34.1073V27.7033C28.8685 27.5857 28.9158 27.4732 28.9989 27.39C29.0821 27.3069 29.1946 27.2596 29.3122 27.2583H31.7012C32.1199 27.2593 32.5266 27.1175 32.8538 26.8562C33.1811 26.595 33.4095 26.2299 33.5012 25.8213C34.0783 23.2558 35.0931 20.809 36.5012 18.5883C36.7243 18.2353 36.8208 17.8168 36.7746 17.4017C36.7284 16.9867 36.5424 16.5996 36.2472 16.3043L34.5572 14.6143C34.4761 14.53 34.4308 14.4177 34.4308 14.3008C34.4308 14.1839 34.4761 14.0715 34.5572 13.9873L39.0922 9.46227C39.1749 9.38032 39.2867 9.33435 39.4032 9.33435C39.5197 9.33435 39.6314 9.38032 39.7142 9.46227L41.4042 11.1523C41.6995 11.4475 42.0866 11.6335 42.5016 11.6797C42.9167 11.7258 43.3352 11.6294 43.6882 11.4063C45.9124 9.99935 48.3617 8.98462 50.9292 8.40627C51.3366 8.31435 51.7006 8.08656 51.9614 7.76035C52.2222 7.43414 52.3642 7.02891 52.3642 6.61127V4.22827C52.3655 4.11082 52.4126 3.99854 52.4956 3.91539C52.5786 3.83225 52.6907 3.78483 52.8082 3.78327H59.2022C59.3198 3.78457 59.4322 3.83187 59.5154 3.91505C59.5986 3.99822 59.6459 4.11065 59.6472 4.22827V6.61127C59.6479 7.02853 59.7904 7.43317 60.0513 7.75878C60.3122 8.0844 60.6761 8.31166 61.0832 8.40327C63.6488 8.98061 66.0959 9.99544 68.3172 11.4033C68.6703 11.6271 69.0891 11.7239 69.5046 11.678C69.9201 11.632 70.3076 11.4459 70.6032 11.1503L72.2922 9.46327C72.3751 9.38126 72.487 9.33526 72.6037 9.33526C72.7203 9.33526 72.8322 9.38126 72.9152 9.46327L77.4422 13.9843C77.5233 14.0685 77.5686 14.1809 77.5686 14.2978C77.5686 14.4147 77.5233 14.5271 77.4422 14.6113L75.7522 16.3013C75.4569 16.5966 75.2709 16.9837 75.2248 17.3987C75.1786 17.8138 75.275 18.2323 75.4982 18.5853C76.9043 20.8081 77.919 23.2556 78.4982 25.8213C78.5903 26.2285 78.8182 26.5923 79.1444 26.8529C79.4706 27.1134 79.8757 27.2554 80.2932 27.2553H82.6772C82.7948 27.2566 82.9072 27.3039 82.9904 27.387C83.0736 27.4702 83.1209 27.5827 83.1222 27.7003V34.1033H83.1242Z" fill="#0B7A45"/>
</svg>