<svg xmlns="http://www.w3.org/2000/svg" width="92" height="80" viewBox="0 0 92 80" fill="none">
  <path d="M65.4668 44.9282C75.6841 44.9282 83.9668 36.6455 83.9668 26.4282C83.9668 16.211 75.6841 7.92822 65.4668 7.92822C55.2495 7.92822 46.9668 16.211 46.9668 26.4282C46.9668 36.6455 55.2495 44.9282 65.4668 44.9282Z" fill="#CFDC1D"/>
  <path d="M83.709 0.103271H7.61C5.59243 0.105653 3.65818 0.908184 2.23155 2.33482C0.804912 3.76146 0.00238186 5.69571 0 7.71327L0 62.5033C0.00238186 64.5208 0.804912 66.4551 2.23155 67.8817C3.65818 69.3084 5.59243 70.1109 7.61 70.1133H53.269V77.7233C53.2687 78.0246 53.3579 78.3193 53.5252 78.57C53.6925 78.8206 53.9305 79.0159 54.209 79.1312C54.4875 79.2464 54.7939 79.2764 55.0894 79.2173C55.3849 79.1582 55.6562 79.0127 55.869 78.7993L60.881 73.7873L65.891 78.8033C66.1037 79.0167 66.3751 79.1622 66.6706 79.2213C66.9661 79.2804 67.2725 79.2504 67.551 79.1352C67.8295 79.0199 68.0675 78.8246 68.2348 78.574C68.4021 78.3233 68.4913 78.0286 68.491 77.7273V70.1173H83.711C85.7286 70.1149 87.6628 69.3124 89.0895 67.8857C90.5161 66.4591 91.3186 64.5248 91.321 62.5073V7.71327C91.3186 5.69536 90.5158 3.76081 89.0887 2.33411C87.6617 0.907421 85.7269 0.105124 83.709 0.103271ZM49.175 29.8813C49.059 29.8278 48.9572 29.7476 48.8781 29.6472C48.799 29.5469 48.7447 29.4293 48.7198 29.304C48.6948 29.1786 48.6999 29.0492 48.7345 28.9262C48.7691 28.8032 48.8323 28.6902 48.919 28.5963C49.5759 27.8825 49.9405 26.9478 49.9405 25.9778C49.9405 25.0077 49.5759 24.0731 48.919 23.3593C48.8322 23.2653 48.7688 23.1521 48.7341 23.029C48.6995 22.9058 48.6945 22.7762 48.7195 22.6507C48.7446 22.5253 48.799 22.4075 48.8784 22.3072C48.9577 22.2068 49.0597 22.1266 49.176 22.0733C50.0549 21.6635 50.748 20.9389 51.1184 20.0427C51.4887 19.1465 51.5093 18.1439 51.176 17.2333C51.1317 17.1133 51.1164 16.9846 51.1314 16.8577C51.1464 16.7307 51.1912 16.6091 51.2623 16.5028C51.3333 16.3965 51.4284 16.3085 51.54 16.246C51.6515 16.1835 51.7762 16.1483 51.904 16.1433C52.8719 16.1016 53.789 15.6984 54.4741 15.0134C55.1591 14.3283 55.5623 13.4112 55.604 12.4433C55.609 12.3154 55.6442 12.1905 55.7067 12.0789C55.7692 11.9672 55.8573 11.872 55.9638 11.801C56.0702 11.7299 56.192 11.6851 56.3191 11.6702C56.4462 11.6554 56.575 11.6708 56.695 11.7153C57.6058 12.0466 58.6076 12.0251 59.5033 11.655C60.399 11.2849 61.1238 10.5929 61.535 9.71527C61.5881 9.59911 61.668 9.49721 61.7681 9.41794C61.8683 9.33868 61.9858 9.28432 62.1111 9.25933C62.2363 9.23434 62.3657 9.23943 62.4886 9.27419C62.6115 9.30895 62.7244 9.37238 62.818 9.45927C63.5322 10.1163 64.4671 10.4809 65.4375 10.4809C66.4079 10.4809 67.3428 10.1163 68.057 9.45927C68.1508 9.37221 68.2639 9.30866 68.387 9.27386C68.5101 9.23906 68.6398 9.23399 68.7652 9.25909C68.8907 9.28418 69.0084 9.33871 69.1087 9.4182C69.209 9.49768 69.2889 9.59984 69.342 9.71627C69.7519 10.5945 70.4762 11.2872 71.3719 11.6575C72.2676 12.0277 73.2696 12.0487 74.18 11.7163C74.3 11.6718 74.4288 11.6564 74.5559 11.6712C74.683 11.6861 74.8048 11.7309 74.9112 11.802C75.0176 11.873 75.1058 11.9682 75.1683 12.0799C75.2308 12.1915 75.266 12.3164 75.271 12.4443C75.3121 13.415 75.7165 14.3348 76.4041 15.0213C77.0917 15.7078 78.0122 16.1108 78.983 16.1503C79.1106 16.1551 79.2352 16.1901 79.3466 16.2525C79.4581 16.3148 79.5532 16.4026 79.6241 16.5088C79.695 16.6149 79.7398 16.7364 79.7547 16.8632C79.7697 16.99 79.7543 17.1185 79.71 17.2383C79.3763 18.1489 79.3966 19.1516 79.767 20.0479C80.1374 20.9443 80.8308 21.6689 81.71 22.0783C81.826 22.1318 81.9278 22.212 82.0069 22.3123C82.086 22.4126 82.1403 22.5303 82.1652 22.6556C82.1902 22.7809 82.1852 22.9103 82.1505 23.0333C82.1159 23.1563 82.0527 23.2694 81.966 23.3633C81.3091 24.0771 80.9445 25.0117 80.9445 25.9818C80.9445 26.9518 81.3091 27.8865 81.966 28.6003C82.0528 28.6942 82.1162 28.8074 82.1509 28.9306C82.1855 29.0537 82.1905 29.1834 82.1655 29.3088C82.1404 29.4343 82.086 29.552 82.0066 29.6524C81.9273 29.7528 81.8253 29.8329 81.709 29.8863C80.8301 30.296 80.137 31.0207 79.7666 31.9169C79.3963 32.8131 79.3757 33.8156 79.709 34.7263C79.7533 34.8462 79.7686 34.9749 79.7536 35.1019C79.7386 35.2288 79.6937 35.3505 79.6227 35.4568C79.5517 35.5631 79.4566 35.6511 79.345 35.7136C79.2335 35.7761 79.1087 35.8112 78.981 35.8163C78.009 35.8552 77.0873 36.2588 76.3994 36.9467C75.7115 37.6345 75.3079 38.5562 75.269 39.5283C75.264 39.6561 75.2288 39.781 75.1663 39.8927C75.1038 40.0043 75.0156 40.0995 74.9092 40.1706C74.8028 40.2416 74.681 40.2864 74.5539 40.3013C74.4268 40.3162 74.298 40.3008 74.178 40.2563C73.2673 39.9244 72.2653 39.9457 71.3694 40.3159C70.4736 40.6861 69.7488 41.3783 69.338 42.2563C69.287 42.3736 69.208 42.4766 69.1079 42.5563C69.0079 42.6359 68.8898 42.6899 68.764 42.7133C68.6384 42.7392 68.5085 42.7345 68.3851 42.6997C68.2617 42.6649 68.1485 42.601 68.055 42.5133C67.3407 41.8565 66.4058 41.492 65.4355 41.492C64.4652 41.492 63.5303 41.8565 62.816 42.5133C62.7225 42.601 62.6093 42.6649 62.4859 42.6997C62.3625 42.7345 62.2326 42.7392 62.107 42.7133C61.9812 42.6898 61.863 42.6358 61.7628 42.5562C61.6625 42.4765 61.5833 42.3736 61.532 42.2563C61.1223 41.3779 60.398 40.6851 59.5022 40.3148C58.6065 39.9445 57.6044 39.9236 56.694 40.2563C56.574 40.3008 56.4452 40.3162 56.3181 40.3013C56.191 40.2864 56.0692 40.2416 55.9628 40.1706C55.8563 40.0995 55.7682 40.0043 55.7057 39.8927C55.6432 39.781 55.608 39.6561 55.603 39.5283C55.5652 38.5567 55.1635 37.6349 54.4774 36.946C53.7914 36.257 52.8714 35.8512 51.9 35.8093C51.7723 35.8046 51.6476 35.7697 51.536 35.7074C51.4245 35.6452 51.3292 35.5573 51.2582 35.4512C51.1871 35.345 51.1423 35.2235 51.1273 35.0966C51.1123 34.9697 51.1276 34.8411 51.172 34.7213C51.5057 33.8107 51.4854 32.8079 51.115 31.9116C50.7446 31.0153 50.0512 30.2907 49.172 29.8813H49.175ZM65.892 58.3813L65.445 58.8283V44.5243C65.6486 44.5239 65.8448 44.6008 65.994 44.7393C66.6984 45.4003 67.6281 45.7682 68.594 45.7683C68.8525 45.7678 69.1104 45.7423 69.364 45.6923C69.961 45.5762 70.5215 45.3186 70.9983 44.941C71.4751 44.5634 71.8543 44.0769 72.104 43.5223C72.1903 43.3368 72.3433 43.1907 72.5325 43.113C72.7218 43.0353 72.9333 43.0319 73.125 43.1033C73.588 43.2674 74.0782 43.3414 74.569 43.3213V58.8303L71.079 55.3403C70.7936 55.055 70.4066 54.8947 70.003 54.8947C69.5994 54.8947 69.2124 55.055 68.927 55.3403L65.892 58.3813ZM65.445 74.0483L61.955 70.5583C61.6696 70.273 61.2826 70.1127 60.879 70.1127C60.4754 70.1127 60.0884 70.273 59.803 70.5583L56.313 74.0483V43.3153C56.8038 43.3355 57.294 43.2615 57.757 43.0973C57.9481 43.0263 58.159 43.03 58.3475 43.1077C58.536 43.1853 58.6883 43.3313 58.774 43.5163C59.0243 44.0723 59.4048 44.5599 59.8833 44.938C60.3617 45.316 60.9241 45.5734 61.523 45.6883C61.812 45.7456 62.1065 45.7707 62.401 45.7633V62.5033C62.4007 62.8045 62.4898 63.0991 62.657 63.3497C62.8242 63.6003 63.062 63.7956 63.3403 63.9109C63.6186 64.0262 63.9249 64.0564 64.2204 63.9975C64.5158 63.9387 64.7871 63.7934 65 63.5803L65.446 63.1343L65.445 74.0483ZM88.275 62.5033C88.275 63.7143 87.7939 64.8756 86.9377 65.7319C86.0814 66.5882 84.92 67.0693 83.709 67.0693H68.489V60.0893L70.011 58.5673L75.023 63.5793C75.2357 63.7927 75.5071 63.9382 75.8026 63.9973C76.0981 64.0564 76.4045 64.0264 76.683 63.9112C76.9615 63.7959 77.1995 63.6006 77.3668 63.35C77.5341 63.0993 77.6233 62.8046 77.623 62.5033V41.6643C78.0483 41.068 78.2915 40.361 78.323 39.6293C78.3318 39.4256 78.4168 39.2327 78.561 39.0886C78.7053 38.9445 78.8983 38.8598 79.102 38.8513C79.7102 38.8278 80.3043 38.6606 80.8354 38.3633C81.3666 38.0661 81.8198 37.6472 82.1579 37.1411C82.4961 36.635 82.7095 36.0559 82.7808 35.4514C82.8521 34.8469 82.7791 34.2342 82.568 33.6633C82.4979 33.4722 82.5022 33.2619 82.58 33.0738C82.6578 32.8858 82.8034 32.7339 82.988 32.6483C83.541 32.3934 84.0258 32.0112 84.4026 31.5329C84.7794 31.0546 85.0375 30.4938 85.1558 29.8965C85.274 29.2991 85.249 28.6823 85.0829 28.0965C84.9168 27.5107 84.6142 26.9726 84.2 26.5263C84.0622 26.3763 83.9857 26.18 83.9857 25.9763C83.9857 25.7726 84.0622 25.5763 84.2 25.4263C84.614 24.9797 84.9163 24.4414 85.082 23.8554C85.2477 23.2695 85.2721 22.6526 85.1533 22.0553C85.0344 21.4581 84.7757 20.8976 84.3982 20.4197C84.0208 19.9418 83.5355 19.5603 82.982 19.3063C82.7969 19.2212 82.6507 19.0694 82.5725 18.8813C82.4943 18.6932 82.4898 18.4825 82.56 18.2913C82.771 17.7208 82.844 17.1086 82.7731 16.5045C82.7021 15.9005 82.4892 15.3218 82.1517 14.8158C81.8143 14.3098 81.3618 13.8908 80.8314 13.5932C80.301 13.2956 79.7077 13.1277 79.1 13.1033C78.8963 13.0947 78.7033 13.01 78.559 12.8659C78.4148 12.7219 78.3298 12.5289 78.321 12.3253C78.2983 11.7167 78.1317 11.1222 77.8349 10.5906C77.538 10.0589 77.1193 9.60516 76.6131 9.26663C76.1069 8.9281 75.5276 8.7144 74.9229 8.64307C74.3181 8.57174 73.7051 8.6448 73.134 8.85627C72.943 8.92847 72.7316 8.92535 72.5428 8.84755C72.3539 8.76976 72.2017 8.62309 72.117 8.43727C71.8627 7.88397 71.481 7.39879 71.003 7.02149C70.525 6.6442 69.9645 6.38554 69.3672 6.2667C68.77 6.14785 68.1531 6.17222 67.5671 6.3378C66.9811 6.50338 66.4427 6.80545 65.996 7.21927C65.8462 7.35751 65.6498 7.43427 65.446 7.43427C65.2422 7.43427 65.0458 7.35751 64.896 7.21927C64.4495 6.80524 63.9111 6.50297 63.3252 6.33726C62.7392 6.17155 62.1223 6.14713 61.5251 6.26599C60.9278 6.38485 60.3673 6.64361 59.8894 7.02104C59.4116 7.39847 59.03 7.88382 58.776 8.43727C58.6909 8.62302 58.5385 8.76962 58.3496 8.84756C58.1607 8.92549 57.9493 8.92896 57.758 8.85727C57.1869 8.6458 56.5739 8.57274 55.9691 8.64407C55.3644 8.7154 54.7851 8.9291 54.2789 9.26763C53.7727 9.60616 53.354 10.0599 53.0571 10.5916C52.7603 11.1232 52.5937 11.7177 52.571 12.3263C52.5619 12.5301 52.4766 12.7231 52.3319 12.867C52.1873 13.0109 51.9939 13.0952 51.79 13.1033C51.1818 13.1268 50.5877 13.294 50.0566 13.5912C49.5254 13.8885 49.0722 14.3073 48.7341 14.8135C48.3959 15.3196 48.1825 15.8986 48.1112 16.5031C48.0399 17.1076 48.1129 17.7204 48.324 18.2913C48.3929 18.4824 48.3876 18.6925 48.3091 18.8799C48.2306 19.0673 48.0846 19.2184 47.9 19.3033C47.3467 19.5575 46.8615 19.9393 46.4842 20.4173C46.1069 20.8952 45.8483 21.4558 45.7294 22.053C45.6106 22.6503 45.635 23.2672 45.8005 23.8531C45.9661 24.4391 46.2682 24.9776 46.682 25.4243C46.8198 25.5743 46.8963 25.7706 46.8963 25.9743C46.8963 26.178 46.8198 26.3743 46.682 26.5243C46.268 26.9708 45.9657 27.5091 45.8 28.0951C45.6343 28.6811 45.6099 29.298 45.7287 29.8952C45.8476 30.4924 46.1063 31.053 46.4838 31.5308C46.8612 32.0087 47.3466 32.3903 47.9 32.6443C48.0851 32.7294 48.2313 32.8811 48.3095 33.0692C48.3877 33.2573 48.3922 33.468 48.322 33.6593C48.1109 34.2302 48.0379 34.8429 48.1092 35.4474C48.1805 36.0519 48.3939 36.631 48.7321 37.1371C49.0702 37.6432 49.5234 38.0621 50.0546 38.3593C50.5857 38.6566 51.1798 38.8238 51.788 38.8473C51.9917 38.8558 52.1847 38.9405 52.329 39.0846C52.4732 39.2287 52.5582 39.4216 52.567 39.6253C52.5989 40.3564 52.842 41.0625 53.267 41.6583V67.0703H7.61C7.0103 67.0703 6.41647 66.9521 5.86244 66.7226C5.3084 66.4931 4.805 66.1567 4.381 65.7326C3.95699 65.3085 3.62068 64.805 3.39128 64.2509C3.16187 63.6968 3.04387 63.103 3.044 62.5033V7.71327C3.044 6.50229 3.52506 5.34091 4.38135 4.48462C5.23764 3.62833 6.39902 3.14727 7.61 3.14727H83.71C84.9208 3.14754 86.0819 3.62871 86.938 4.48498C87.7941 5.34124 88.275 6.50247 88.275 7.71327V62.5033Z" fill="#0B7A45"/>
  <path d="M16.7418 54.8943C15.531 54.8943 14.3698 54.4134 13.5135 53.5573C12.6573 52.7012 12.1761 51.5401 12.1758 50.3293V19.8893C12.1758 18.6783 12.6569 17.5169 13.5132 16.6606C14.3695 15.8044 15.5309 15.3233 16.7418 15.3233H44.1418C44.5455 15.3233 44.9326 15.1629 45.2181 14.8775C45.5035 14.5921 45.6638 14.205 45.6638 13.8013C45.6638 13.3976 45.5035 13.0105 45.2181 12.7251C44.9326 12.4397 44.5455 12.2793 44.1418 12.2793H16.7418C14.7243 12.2817 12.79 13.0842 11.3634 14.5108C9.93675 15.9375 9.13422 17.8717 9.13184 19.8893V50.3293C9.13422 52.3469 9.93675 54.2811 11.3634 55.7077C12.79 57.1344 14.7243 57.9369 16.7418 57.9393H45.6598C46.0635 57.9393 46.4506 57.7789 46.7361 57.4935C47.0215 57.2081 47.1818 56.821 47.1818 56.4173C47.1818 56.0136 47.0215 55.6265 46.7361 55.3411C46.4506 55.0556 46.0635 54.8953 45.6598 54.8953L16.7418 54.8943Z" fill="#0B7A45"/>
  <path d="M18.2642 36.6313H39.5722C39.7721 36.6313 39.97 36.5919 40.1546 36.5154C40.3393 36.4389 40.5071 36.3268 40.6484 36.1855C40.7897 36.0442 40.9018 35.8764 40.9783 35.6917C41.0548 35.5071 41.0942 35.3092 41.0942 35.1093C41.0942 34.9094 41.0548 34.7115 40.9783 34.5268C40.9018 34.3422 40.7897 34.1744 40.6484 34.0331C40.5071 33.8917 40.3393 33.7796 40.1546 33.7031C39.97 33.6266 39.7721 33.5873 39.5722 33.5873H18.2642C18.0643 33.5873 17.8664 33.6266 17.6817 33.7031C17.4971 33.7796 17.3293 33.8917 17.188 34.0331C17.0466 34.1744 16.9345 34.3422 16.858 34.5268C16.7816 34.7115 16.7422 34.9094 16.7422 35.1093C16.7422 35.3092 16.7816 35.5071 16.858 35.6917C16.9345 35.8764 17.0466 36.0442 17.188 36.1855C17.3293 36.3268 17.4971 36.4389 17.6817 36.5154C17.8664 36.5919 18.0643 36.6313 18.2642 36.6313Z" fill="#0B7A45"/>
  <path d="M18.2642 30.5433H39.5722C39.9758 30.5433 40.363 30.3829 40.6484 30.0975C40.9338 29.8121 41.0942 29.4249 41.0942 29.0213C41.0942 28.6176 40.9338 28.2305 40.6484 27.9451C40.363 27.6596 39.9758 27.4993 39.5722 27.4993H18.2642C17.8605 27.4993 17.4734 27.6596 17.188 27.9451C16.9025 28.2305 16.7422 28.6176 16.7422 29.0213C16.7422 29.4249 16.9025 29.8121 17.188 30.0975C17.4734 30.3829 17.8605 30.5433 18.2642 30.5433Z" fill="#0B7A45"/>
  <path d="M18.2642 24.4553H39.5722C39.9758 24.4553 40.363 24.2949 40.6484 24.0095C40.9338 23.724 41.0942 23.3369 41.0942 22.9333C41.0942 22.5296 40.9338 22.1425 40.6484 21.857C40.363 21.5716 39.9758 21.4113 39.5722 21.4113H18.2642C17.8605 21.4113 17.4734 21.5716 17.188 21.857C16.9025 22.1425 16.7422 22.5296 16.7422 22.9333C16.7422 23.3369 16.9025 23.724 17.188 24.0095C17.4734 24.2949 17.8605 24.4553 18.2642 24.4553Z" fill="#0B7A45"/>
  <path d="M16.8675 50.9373C16.9864 51.2094 17.1822 51.4409 17.431 51.6031C17.6798 51.7654 17.9706 51.8513 18.2675 51.8503C18.4771 51.8513 18.6846 51.8083 18.8765 51.7243C20.2855 51.2008 21.5805 50.4107 22.6905 49.3973C23.1026 48.986 23.463 48.5259 23.7635 48.0273C24.3448 48.6808 25.028 49.2359 25.7865 49.6713C26.3086 50.0127 26.9013 50.2312 27.52 50.3103C28.1387 50.3895 28.7674 50.3272 29.3585 50.1283C29.8178 49.95 30.2333 49.6747 30.5765 49.3213C31.2653 49.7518 32.0241 50.0584 32.8185 50.2273L33.9695 50.4993C36.3179 51.1872 38.758 51.5106 41.2045 51.4583C41.4051 51.4455 41.6012 51.3932 41.7814 51.3043C41.9616 51.2154 42.1225 51.0916 42.2546 50.9402C42.3868 50.7888 42.4877 50.6128 42.5514 50.4222C42.6152 50.2316 42.6405 50.0303 42.6261 49.8298C42.6116 49.6294 42.5576 49.4338 42.4672 49.2543C42.3767 49.0748 42.2516 48.9151 42.0991 48.7842C41.9466 48.6533 41.7696 48.554 41.5785 48.4919C41.3874 48.4297 41.1859 48.4061 40.9855 48.4223C38.8506 48.45 36.7238 48.1523 34.6785 47.5393L33.5025 47.2603C32.0825 46.9333 31.7175 46.3603 31.5665 45.9603C31.4385 45.6173 31.1911 45.3319 30.8698 45.1565C30.5484 44.9812 30.1746 44.9275 29.8168 45.0054C29.4591 45.0833 29.1415 45.2875 28.9221 45.5806C28.7027 45.8737 28.5964 46.2361 28.6225 46.6013C28.6308 46.7352 28.6039 46.8691 28.5444 46.9894C28.4849 47.1098 28.395 47.2124 28.2835 47.2873C27.9294 47.3315 27.5717 47.2389 27.2835 47.0283C26.0526 46.262 25.1269 45.0909 24.6655 43.7163C24.5391 43.3735 24.2935 43.0876 23.9738 42.9109C23.654 42.7342 23.2813 42.6784 22.9238 42.7538C22.5663 42.8291 22.2478 43.0305 22.0265 43.3213C21.8052 43.612 21.6959 43.9726 21.7185 44.3373C21.7309 44.8755 21.6327 45.4106 21.4301 45.9094C21.2275 46.4082 20.9247 46.8601 20.5405 47.2373C19.6957 47.978 18.72 48.5545 17.6635 48.9373C17.2944 49.0986 17.0042 49.3997 16.8567 49.7746C16.7092 50.1495 16.7163 50.5676 16.8765 50.9373H16.8675Z" fill="#0B7A45"/>
  <path d="M65.4446 38.1533C67.8527 38.1533 70.2068 37.4392 72.2092 36.1012C74.2115 34.7633 75.7721 32.8617 76.6937 30.6368C77.6153 28.412 77.8564 25.9638 77.3866 23.6019C76.9168 21.2399 75.7571 19.0704 74.0543 17.3675C72.3514 15.6647 70.1819 14.505 67.82 14.0352C65.4581 13.5654 63.0099 13.8065 60.785 14.7281C58.5601 15.6497 56.6585 17.2103 55.3206 19.2127C53.9827 21.215 53.2686 23.5691 53.2686 25.9773C53.2686 29.2066 54.5514 32.3036 56.8348 34.587C59.1183 36.8705 62.2153 38.1533 65.4446 38.1533ZM65.4446 16.8453C67.2507 16.8453 69.0163 17.3809 70.518 18.3843C72.0198 19.3877 73.1902 20.814 73.8814 22.4826C74.5726 24.1513 74.7534 25.9874 74.4011 27.7588C74.0487 29.5303 73.179 31.1574 71.9019 32.4346C70.6247 33.7117 68.9976 34.5814 67.2261 34.9338C65.4547 35.2862 63.6185 35.1053 61.9499 34.4141C60.2812 33.723 58.855 32.5525 57.8516 31.0507C56.8481 29.549 56.3126 27.7834 56.3126 25.9773C56.3126 23.5553 57.2747 21.2326 58.9873 19.52C60.6998 17.8074 63.0226 16.8453 65.4446 16.8453Z" fill="#0B7A45"/>
</svg>