<svg width="103" height="99" viewBox="0 0 103 99" fill="none" xmlns="http://www.w3.org/2000/svg">
<path d="M76.1006 41.4395L60.8516 36.7109L67.1616 53.2744L71.3687 51.1738L77.1523 55.9062L80.3066 51.1738L76.0996 44.6016L78.4668 41.4473L76.1006 41.4395Z" fill="white"/>
<path d="M45.2855 34.458H31.7695V41.216H45.2855V34.458Z" fill="white"/>
<path d="M95.58 0.136963H7.75605C5.96436 0.13908 4.24667 0.851761 2.97976 2.11867C1.71285 3.38559 1.00016 5.10328 0.998047 6.89496L0.998047 62.63C0.998312 63.0778 1.17634 63.5073 1.49304 63.824C1.80973 64.1407 2.23918 64.3187 2.68705 64.319H100.649C101.097 64.3187 101.526 64.1407 101.843 63.824C102.16 63.5073 102.338 63.0778 102.338 62.63V6.89496C102.336 5.1032 101.624 3.38535 100.357 2.11838C99.0897 0.851412 97.3718 0.138816 95.58 0.136963ZM98.96 60.937H4.37605V6.89496C4.37684 5.99878 4.7332 5.13952 5.3669 4.50582C6.0006 3.87212 6.85986 3.51576 7.75605 3.51496H95.58C96.4762 3.51576 97.3355 3.87212 97.9692 4.50582C98.6029 5.13952 98.9593 5.99878 98.96 6.89496V60.937Z" fill="#FCB21D"/>
<path d="M100.649 60.9409H2.68705C2.23918 60.9412 1.80973 61.1192 1.49304 61.4359C1.17634 61.7526 0.998312 62.182 0.998047 62.6299V71.0729C1.00016 72.8646 1.71285 74.5823 2.97976 75.8492C4.24667 77.1161 5.96436 77.8288 7.75605 77.8309H95.58C97.3717 77.8288 99.0894 77.1161 100.356 75.8492C101.623 74.5823 102.336 72.8646 102.338 71.0729V62.6299C102.338 62.182 102.16 61.7526 101.843 61.4359C101.526 61.1192 101.097 60.9412 100.649 60.9409ZM98.96 71.0729C98.9593 71.9691 98.6029 72.8284 97.9692 73.4621C97.3355 74.0958 96.4762 74.4521 95.58 74.4529H7.75605C6.85986 74.4521 6.0006 74.0958 5.3669 73.4621C4.7332 72.8284 4.37684 71.9691 4.37605 71.0729V64.3189H98.96V71.0729Z" fill="#FCB21D"/>
<path d="M56.7351 67.697H46.6011C46.1532 67.697 45.7235 67.875 45.4068 68.1917C45.0901 68.5085 44.9121 68.9381 44.9121 69.386C44.9121 69.834 45.0901 70.2636 45.4068 70.5803C45.7235 70.8971 46.1532 71.075 46.6011 71.075H56.7351C57.1831 71.075 57.6127 70.8971 57.9294 70.5803C58.2462 70.2636 58.4241 69.834 58.4241 69.386C58.4241 68.9381 58.2462 68.5085 57.9294 68.1917C57.6127 67.875 57.1831 67.697 56.7351 67.697Z" fill="#FCB21D"/>
<path d="M93.8932 6.89294H9.44315C8.99528 6.89321 8.56583 7.07124 8.24914 7.38794C7.93245 7.70463 7.75442 8.13407 7.75415 8.58194V62.6259C7.75442 63.0738 7.93245 63.5033 8.24914 63.82C8.56583 64.1366 8.99528 64.3147 9.44315 64.3149H93.8932C94.341 64.3147 94.7705 64.1366 95.0872 63.82C95.4038 63.5033 95.5819 63.0738 95.5822 62.6259V8.58194C95.5819 8.13407 95.4038 7.70463 95.0872 7.38794C94.7705 7.07124 94.341 6.89321 93.8932 6.89294ZM92.2041 60.9409H11.1322V10.2709H92.2041V60.9409Z" fill="#FCB21D"/>
<path d="M73.6255 87.9648H29.7115C28.3677 87.9648 27.0789 88.4987 26.1286 89.4489C25.1784 90.3992 24.6445 91.688 24.6445 93.0319C24.6445 94.3757 25.1784 95.6645 26.1286 96.6147C27.0789 97.565 28.3677 98.0988 29.7115 98.0988H73.6255C74.9694 98.0988 76.2582 97.565 77.2084 96.6147C78.1587 95.6645 78.6925 94.3757 78.6925 93.0319C78.6925 91.688 78.1587 90.3992 77.2084 89.4489C76.2582 88.4987 74.9694 87.9648 73.6255 87.9648ZM73.6255 94.7209H29.7115C29.2636 94.7209 28.834 94.5429 28.5172 94.2261C28.2005 93.9094 28.0225 93.4798 28.0225 93.0319C28.0225 92.5839 28.2005 92.1543 28.5172 91.8376C28.834 91.5208 29.2636 91.3428 29.7115 91.3428H73.6255C74.0735 91.3428 74.5031 91.5208 74.8198 91.8376C75.1366 92.1543 75.3145 92.5839 75.3145 93.0319C75.3145 93.4798 75.1366 93.9094 74.8198 94.2261C74.5031 94.5429 74.0735 94.7209 73.6255 94.7209Z" fill="#FCB21D"/>
<path d="M70.2474 87.9649C64.6474 87.9649 61.8024 83.9869 61.8024 76.1419C61.8024 75.6939 61.6245 75.2641 61.3078 74.9472C60.991 74.6303 60.5614 74.4522 60.1134 74.4519H43.2234C42.7755 74.4522 42.3461 74.6302 42.0294 74.9469C41.7127 75.2636 41.5347 75.693 41.5344 76.1409C41.5344 83.9859 38.6934 87.9639 33.0894 87.9639C32.6414 87.9639 32.2118 88.1418 31.8951 88.4586C31.5783 88.7753 31.4004 89.2049 31.4004 89.6529C31.4004 90.1008 31.5783 90.5304 31.8951 90.8472C32.2118 91.1639 32.6414 91.3419 33.0894 91.3419H70.2474C70.6953 91.3419 71.1249 91.1639 71.4417 90.8472C71.7584 90.5304 71.9364 90.1008 71.9364 89.6529C71.9364 89.2049 71.7584 88.7753 71.4417 88.4586C71.1249 88.1418 70.6953 87.9639 70.2474 87.9639V87.9649ZM41.3164 87.9649C43.3954 85.6649 44.6164 82.2309 44.8664 77.8309H58.4664C58.7114 82.2309 59.9354 85.6609 62.0164 87.9649H41.3164Z" fill="#FCB21D"/>
<path d="M81.7008 49.9019L77.6238 45.8249L79.8918 43.5569C80.0984 43.3503 80.2479 43.0937 80.3257 42.812C80.4035 42.5304 80.4069 42.2334 80.3355 41.95C80.2642 41.6667 80.1206 41.4067 79.9187 41.1955C79.7168 40.9842 79.4636 40.829 79.1838 40.7449L62.3008 35.6749C62.0092 35.5883 61.6996 35.582 61.4047 35.6568C61.1099 35.7316 60.8407 35.8846 60.6256 36.0997C60.4105 36.3148 60.2574 36.584 60.1827 36.8788C60.1079 37.1737 60.1142 37.4833 60.2008 37.7749L65.2678 54.6649C65.3515 54.945 65.5065 55.1985 65.7177 55.4007C65.9289 55.6029 66.1889 55.7467 66.4724 55.8182C66.7558 55.8897 67.053 55.8863 67.3348 55.8084C67.6165 55.7305 67.8733 55.5808 68.0798 55.3739L70.4678 52.9839L74.5448 57.0629C74.7016 57.2198 74.8877 57.3442 75.0926 57.4291C75.2974 57.514 75.517 57.5577 75.7388 57.5577C75.9606 57.5577 76.1801 57.514 76.385 57.4291C76.5899 57.3442 76.776 57.2198 76.9328 57.0629L81.7088 52.2849C82.0233 51.9676 82.199 51.5385 82.1975 51.0917C82.196 50.645 82.0174 50.2171 81.7008 49.9019ZM75.7298 53.4859L72.0178 49.7719C71.6039 49.3592 71.0433 49.1275 70.4588 49.1275C69.8743 49.1275 69.3137 49.3592 68.8998 49.7719L67.6808 50.9909L64.3278 39.8149L75.5038 43.1679L74.2008 44.4749C73.8439 44.8336 73.6436 45.3189 73.6436 45.8249C73.6436 46.3308 73.8439 46.8162 74.2008 47.1749L78.1188 51.0929L75.7298 53.4859Z" fill="#FCB21D"/>
<path d="M71.9361 13.6489H24.6441C24.1962 13.6492 23.7668 13.8272 23.4501 14.1439C23.1334 14.4606 22.9553 14.8901 22.9551 15.3379V23.7829C22.9553 24.2308 23.1334 24.6602 23.4501 24.9769C23.7668 25.2936 24.1962 25.4717 24.6441 25.4719H71.9361C72.3839 25.4717 72.8134 25.2936 73.1301 24.9769C73.4468 24.6602 73.6248 24.2308 73.6251 23.7829V15.3379C73.6248 14.8901 73.4468 14.4606 73.1301 14.1439C72.8134 13.8272 72.3839 13.6492 71.9361 13.6489ZM70.2471 22.0939H26.3331V17.0269H70.2471V22.0939Z" fill="#FCB21D"/>
<path d="M44.9119 32.2279H31.3999C30.9521 32.2282 30.5226 32.4062 30.2059 32.7229C29.8892 33.0396 29.7112 33.469 29.7109 33.9169V40.6729C29.7112 41.1208 29.8892 41.5502 30.2059 41.8669C30.5226 42.1836 30.9521 42.3616 31.3999 42.3619H44.9119C45.3598 42.3616 45.7892 42.1836 46.1059 41.8669C46.4226 41.5502 46.6007 41.1208 46.6009 40.6729V33.9169C46.6007 33.469 46.4226 33.0396 46.1059 32.7229C45.7892 32.4062 45.3598 32.2282 44.9119 32.2279ZM43.2229 38.9839H33.0889V35.6059H43.2229V38.9839Z" fill="#FCB21D"/>
<path d="M71.9361 13.6489H24.6441C24.1962 13.6492 23.7668 13.8272 23.4501 14.1439C23.1334 14.4606 22.9553 14.8901 22.9551 15.3379V47.4289C22.9553 47.8768 23.1334 48.3062 23.4501 48.6229C23.7668 48.9396 24.1962 49.1177 24.6441 49.1179H64.8531C65.1164 49.1178 65.3761 49.0561 65.6113 48.9378C65.8466 48.8195 66.051 48.6479 66.2081 48.4366C66.3653 48.2254 66.4709 47.9803 66.5166 47.7209C66.5622 47.4616 66.5466 47.1952 66.4711 46.9429L64.3331 39.8139L71.4521 41.9509C71.7043 42.0263 71.9706 42.0417 72.2298 41.996C72.489 41.9503 72.7339 41.8446 72.9451 41.6874C73.1562 41.5303 73.3278 41.326 73.446 41.0908C73.5642 40.8557 73.6259 40.5961 73.6261 40.3329V15.3379C73.6258 14.8899 73.4476 14.4603 73.1307 14.1436C72.8138 13.8268 72.3841 13.6489 71.9361 13.6489ZM70.2471 38.0619L62.2971 35.6769C62.0055 35.5907 61.6961 35.5847 61.4014 35.6596C61.1067 35.7345 60.8376 35.8875 60.6226 36.1025C60.4076 36.3175 60.2546 36.5865 60.1797 36.8812C60.1048 37.1759 60.1108 37.4854 60.1971 37.7769L62.5851 45.7359H26.3331V17.0269H70.2471V38.0619Z" fill="#FCB21D"/>
</svg>
