<svg xmlns="http://www.w3.org/2000/svg" width="95" height="93" viewBox="0 0 95 93" fill="none">
  <path d="M67.2598 29.2388L66.0098 43.2388L54.2598 49.7388H36.5098L27.7598 41.2388V29.2388L15.0098 22.4888L16.2598 16.7388L47.7598 1.23877L56.0098 4.73877L78.2598 16.7388L79.5098 22.4888L67.2598 29.2388Z" fill="#CFDC1D"/>
  <path d="M92.643 78.6948H90.206V29.2148C90.2036 27.4722 89.5102 25.8016 88.2778 24.5696C87.0454 23.3376 85.3746 22.6446 83.632 22.6428H80.4C81.024 21.3404 81.1199 19.8471 80.6677 18.4756C80.2155 17.104 79.2502 15.9606 77.974 15.2848L59.965 5.74478C59.8052 5.65995 59.6302 5.60742 59.4501 5.59021C59.27 5.57299 59.0882 5.59142 58.9152 5.64444C58.7422 5.69746 58.5814 5.78404 58.4419 5.89923C58.3023 6.01442 58.1868 6.15596 58.102 6.31578C58.0172 6.4756 57.9646 6.65056 57.9474 6.83068C57.9302 7.0108 57.9486 7.19254 58.0017 7.36554C58.0547 7.53853 58.1413 7.69939 58.2564 7.83893C58.3716 7.97846 58.5132 8.09395 58.673 8.17878L76.682 17.7188C77.138 17.9605 77.5194 18.3219 77.7855 18.7641C78.0516 19.2064 78.1921 19.7127 78.1921 20.2288C78.1921 20.7449 78.0516 21.2512 77.7855 21.6934C77.5194 22.1356 77.138 22.497 76.682 22.7388L59.175 32.0128L48.046 19.3208C47.9268 19.1848 47.7819 19.0736 47.6197 18.9936C47.4575 18.9136 47.2811 18.8664 47.1007 18.8545C46.9202 18.8427 46.7392 18.8665 46.5679 18.9246C46.3966 18.9827 46.2385 19.074 46.1025 19.1933C45.9665 19.3125 45.8554 19.4574 45.7753 19.6196C45.6953 19.7818 45.6481 19.9582 45.6362 20.1386C45.6244 20.3191 45.6482 20.5001 45.7063 20.6714C45.7645 20.8427 45.8558 21.0008 45.975 21.1368L56.675 33.3368L50.05 36.8468C49.1135 37.3422 48.07 37.6012 47.0105 37.6012C45.951 37.6012 44.9075 37.3422 43.971 36.8468L17.339 22.7388C16.883 22.497 16.5016 22.1356 16.2355 21.6934C15.9694 21.2512 15.8289 20.7449 15.8289 20.2288C15.8289 19.7127 15.9694 19.2064 16.2355 18.7641C16.5016 18.3219 16.883 17.9605 17.339 17.7188L43.97 3.61078C44.9063 3.115 45.9496 2.85581 47.009 2.85581C48.0684 2.85581 49.1117 3.115 50.048 3.61078L53.86 5.63078C54.0198 5.71548 54.1948 5.76788 54.3748 5.78497C54.5549 5.80207 54.7366 5.78353 54.9095 5.73041C55.0824 5.6773 55.2431 5.59065 55.3825 5.47541C55.5219 5.36017 55.6373 5.2186 55.722 5.05878C55.8067 4.89896 55.8591 4.72402 55.8762 4.54396C55.8933 4.36389 55.8747 4.18222 55.8216 4.00931C55.7685 3.83641 55.6819 3.67566 55.5666 3.53625C55.4514 3.39683 55.3098 3.28148 55.15 3.19678L51.338 1.17878C50.0047 0.472514 48.5188 0.103271 47.01 0.103271C45.5012 0.103271 44.0153 0.472514 42.682 1.17878L16.049 15.2858C14.7729 15.9618 13.8078 17.1052 13.3556 18.4767C12.9035 19.8481 12.9993 21.3414 13.623 22.6438H10.388C8.64538 22.6456 6.97464 23.3386 5.74223 24.5706C4.50983 25.8026 3.81638 27.4732 3.814 29.2158V78.6948H1.377C1.19617 78.6948 1.01711 78.7304 0.850045 78.7996C0.68298 78.8688 0.53118 78.9702 0.403314 79.0981C0.275448 79.226 0.174019 79.3778 0.104818 79.5448C0.0356172 79.7119 0 79.891 0 80.0718L0 83.1248C0.00264681 85.4929 0.944544 87.7632 2.61905 89.4377C4.29355 91.1122 6.5639 92.0541 8.932 92.0568H85.088C87.4561 92.0541 89.7265 91.1122 91.401 89.4377C93.0755 87.7632 94.0173 85.4929 94.02 83.1248V80.0718C94.02 79.7066 93.8749 79.3563 93.6167 79.0981C93.3584 78.8399 93.0082 78.6948 92.643 78.6948ZM58.857 54.8008L60.657 57.9108C60.7819 58.1274 60.8477 58.3731 60.8476 58.6231C60.8476 58.8732 60.7817 59.1188 60.6567 59.3354C60.5316 59.5519 60.3518 59.7318 60.1352 59.8568C59.9187 59.9818 59.6731 60.0477 59.423 60.0478H58.3C58.0499 60.0477 57.8043 59.9818 57.5878 59.8568C57.3712 59.7318 57.1914 59.5519 57.0663 59.3354C56.9413 59.1188 56.8754 58.8732 56.8754 58.6231C56.8753 58.3731 56.9411 58.1274 57.066 57.9108L58.857 54.8008ZM60.235 34.5688L65.935 31.5498V37.0188C65.9432 38.9222 65.4122 40.7891 64.4035 42.4032C63.3947 44.0174 61.9495 45.3129 60.235 46.1398V34.5688ZM47.01 40.3568C48.519 40.3558 50.0048 39.9857 51.338 39.2788L57.48 36.0258V47.2058C49.8949 49.7083 41.6642 49.4103 34.28 46.3658C32.4365 45.5977 30.8629 44.2991 29.759 42.6348C28.6551 40.9706 28.0707 39.0158 28.08 37.0188V31.5488L42.68 39.2808C44.0138 39.9876 45.5005 40.357 47.01 40.3568ZM6.569 29.2148C6.57032 28.2022 6.97328 27.2316 7.68944 26.5158C8.40559 25.8 9.37646 25.3976 10.389 25.3968H16.474L23.407 29.0698H11.618C11.2528 29.0698 10.9026 29.2149 10.6443 29.4731C10.3861 29.7313 10.241 30.0816 10.241 30.4468V73.6468C10.241 74.012 10.3861 74.3622 10.6443 74.6205C10.9026 74.8787 11.2528 75.0238 11.618 75.0238H18.888C19.2533 75.0238 19.6037 74.8787 19.862 74.6203C20.1204 74.362 20.2655 74.0116 20.2655 73.6463C20.2655 73.281 20.1204 72.9306 19.862 72.6722C19.6037 72.4139 19.2533 72.2688 18.888 72.2688H13V31.8248H25.332V37.0188C25.3218 39.5607 26.0674 42.0482 27.474 44.1654C28.8807 46.2827 30.8848 47.934 33.232 48.9098C40.9372 52.0844 49.5018 52.5033 57.48 50.0958V51.6788L54.68 56.5358C54.3136 57.1711 54.1208 57.8917 54.121 58.6251C54.1212 59.3585 54.3145 60.0789 54.6813 60.714C55.0481 61.3491 55.5757 61.8765 56.2109 62.2431C56.8461 62.6098 57.5666 62.8028 58.3 62.8028H59.424C60.1576 62.8028 60.8783 62.6097 61.5137 62.2429C62.149 61.8761 62.6766 61.3485 63.0434 60.7131C63.4102 60.0777 63.6032 59.357 63.6032 58.6234C63.6031 57.8898 63.4099 57.1691 63.043 56.5338L60.243 51.6768V49.1328C60.429 49.0588 60.616 48.9858 60.801 48.9098C63.1482 47.934 65.1523 46.2827 66.559 44.1654C67.9656 42.0482 68.7112 39.5607 68.701 37.0188V31.8248H81.024V72.2678H24.4C24.0347 72.2678 23.6843 72.4129 23.426 72.6712C23.1676 72.9296 23.0225 73.2799 23.0225 73.6453C23.0225 74.0106 23.1676 74.361 23.426 74.6193C23.6843 74.8777 24.0347 75.0228 24.4 75.0228H82.4C82.7652 75.0228 83.1154 74.8777 83.3737 74.6195C83.6319 74.3612 83.777 74.011 83.777 73.6458V30.4458C83.7767 30.0807 83.6315 29.7308 83.3733 29.4727C83.1151 29.2147 82.765 29.0698 82.4 29.0698H70.614L77.547 25.3968H83.632C84.6445 25.3976 85.6154 25.8 86.3316 26.5158C87.0477 27.2316 87.4507 28.2022 87.452 29.2148V78.6948H6.569V29.2148ZM55.527 81.4498C55.2712 82.1927 54.7902 82.8373 54.1508 83.294C53.5115 83.7507 52.7457 83.9967 51.96 83.9978H42.06C41.2741 83.9969 40.5081 83.751 39.8686 83.2943C39.229 82.8376 38.7479 82.1928 38.492 81.4498H55.527ZM91.266 83.1248C91.2641 84.7627 90.6127 86.333 89.4545 87.4912C88.2963 88.6494 86.7259 89.3009 85.088 89.3028H8.932C7.29406 89.3009 5.72374 88.6494 4.56554 87.4912C3.40734 86.333 2.75585 84.7627 2.754 83.1248V81.4488H35.654C35.9408 82.9389 36.7372 84.2828 37.9066 85.2499C39.076 86.2169 40.5455 86.7469 42.063 86.7488H51.963C53.4805 86.7469 54.95 86.2169 56.1194 85.2499C57.2888 84.2828 58.0852 82.9389 58.372 81.4488H91.272L91.266 83.1248Z" fill="#0B7A45"/>
  <path d="M47.4261 67.2178C47.4261 66.8526 47.281 66.5024 47.0228 66.2441C46.7646 65.9859 46.4143 65.8408 46.0491 65.8408H18.4771C18.1118 65.8408 17.7614 65.9859 17.5031 66.2443C17.2447 66.5026 17.0996 66.853 17.0996 67.2183C17.0996 67.5837 17.2447 67.934 17.5031 68.1924C17.7614 68.4507 18.1118 68.5958 18.4771 68.5958H46.0491C46.23 68.5958 46.4092 68.5602 46.5763 68.4909C46.7434 68.4216 46.8953 68.3201 47.0232 68.1921C47.151 68.0642 47.2524 67.9123 47.3216 67.7451C47.3907 67.5779 47.4262 67.3987 47.4261 67.2178Z" fill="#0B7A45"/>
  <path d="M18.4771 62.8027H36.9121C37.2774 62.8027 37.6278 62.6576 37.8862 62.3993C38.1445 62.1409 38.2896 61.7906 38.2896 61.4252C38.2896 61.0599 38.1445 60.7095 37.8862 60.4512C37.6278 60.1929 37.2774 60.0477 36.9121 60.0477H18.4771C18.1118 60.0477 17.7614 60.1929 17.5031 60.4512C17.2447 60.7095 17.0996 61.0599 17.0996 61.4252C17.0996 61.7906 17.2447 62.1409 17.5031 62.3993C17.7614 62.6576 18.1118 62.8027 18.4771 62.8027Z" fill="#0B7A45"/>
</svg>