<svg xmlns="http://www.w3.org/2000/svg" width="120" height="99" viewBox="0 0 120 99" fill="none">
  <path d="M18.8007 33.9966C24.6256 33.9966 29.3475 29.2746 29.3475 23.4498C29.3475 17.6249 24.6256 12.903 18.8007 12.903C12.9759 12.903 8.25391 17.6249 8.25391 23.4498C8.25391 29.2746 12.9759 33.9966 18.8007 33.9966Z" fill="#CFDC1D"/>
  <path d="M7.42312 76.3781H63.7761C64.9114 81.2867 67.3286 85.8062 70.7811 89.4756C74.2335 93.1449 78.5976 95.8326 83.428 97.2645C88.2584 98.6964 93.3822 98.8212 98.2766 97.6262C103.171 96.4312 107.661 93.9591 111.288 90.4622C114.915 86.9654 117.549 82.5689 118.922 77.7214C120.295 72.8739 120.358 67.749 119.103 62.8695C117.848 57.99 115.322 53.5307 111.781 49.9465C108.24 46.3624 103.812 43.7817 98.9483 42.4679V7.42312C98.9468 5.45531 98.1647 3.56847 96.7735 2.17676C95.3823 0.785053 93.4957 0.00218592 91.5279 0H7.42312C5.45483 0.00145745 3.56758 0.784001 2.17579 2.17579C0.784002 3.56758 0.00145745 5.45483 0 7.42312L0 68.9541C0.00145745 70.9224 0.784002 72.8096 2.17579 74.2014C3.56758 75.5932 5.45483 76.3767 7.42312 76.3781ZM85.42 42.1414C83.1398 42.6365 80.9294 43.4109 78.8387 44.447V28.6616H85.42V42.1414ZM90.1073 44.3424V49.1628C85.0757 49.4934 80.3358 51.6415 76.7702 55.2071C73.2047 58.7726 71.0566 63.5125 70.726 68.5442H65.8974C66.2348 62.2323 68.894 56.2681 73.3635 51.7985C77.8331 47.329 83.7973 44.6698 90.1092 44.3324L90.1073 44.3424ZM91.5133 87.997C87.7443 87.9968 84.07 86.8161 81.0065 84.6206C77.9429 82.4251 75.644 79.3252 74.4326 75.7562C73.2212 72.1872 73.1582 68.3284 74.2523 64.7217C75.3465 61.115 77.5429 57.9416 80.533 55.6472C83.5232 53.3528 87.1569 52.0526 90.9239 51.9293C94.6909 51.806 98.4019 52.8657 101.536 54.9595C104.67 57.0534 107.069 60.0764 108.397 63.6038C109.724 67.1312 109.914 70.9858 108.938 74.6264C107.911 78.4624 105.646 81.852 102.495 84.2695C99.3448 86.687 95.4845 87.9972 91.5133 87.997ZM71.0277 50.1716C68.0299 53.2675 65.7789 57.0072 64.4465 61.1054V39.1461H71.0277V50.1716ZM65.8974 71.3569H70.725C71.0568 76.3895 73.2049 81.1304 76.7698 84.6981C80.3348 88.2657 85.0741 90.4174 90.1064 90.753V95.5687C83.7945 95.2313 77.8303 92.5721 73.3608 88.1025C68.8913 83.633 66.2321 77.6688 65.8946 71.3569H65.8974ZM109.663 88.1007C105.197 92.5739 99.2316 95.2338 92.9192 95.5669V90.7493C97.9515 90.4122 102.691 88.2609 106.257 84.6946C109.824 81.1283 111.975 76.3893 112.312 71.3569H117.129C116.796 77.6695 114.137 83.6347 109.663 88.1007ZM117.129 68.5451H112.312C111.976 63.513 109.825 58.7739 106.258 55.2088C102.691 51.6437 97.9505 49.4952 92.9183 49.1628V44.3388C99.2301 44.6762 105.194 47.3354 109.664 51.805C114.133 56.2745 116.793 62.2387 117.13 68.5506L117.129 68.5451ZM2.81187 7.42312C2.81333 6.20059 3.29962 5.02854 4.16408 4.16408C5.02854 3.29962 6.20059 2.81333 7.42312 2.81187H91.5279C92.7505 2.81333 93.9225 3.29962 94.787 4.16408C95.6514 5.02854 96.1377 6.20059 96.1392 7.42312V41.8635C93.5257 41.4384 90.8659 41.3766 88.2355 41.6801V27.2548C88.2355 26.8819 88.0874 26.5243 87.8237 26.2606C87.56 25.997 87.2024 25.8488 86.8296 25.8488H77.4328C77.0603 25.8493 76.7031 25.9977 76.4398 26.2613C76.1766 26.5249 76.0287 26.8822 76.0287 27.2548V46.051C75.2803 46.5353 74.5512 47.0586 73.8414 47.6211V37.7401C73.8414 37.3673 73.6933 37.0097 73.4296 36.746C73.1659 36.4823 72.8083 36.3342 72.4355 36.3342H63.0396C62.8547 36.3337 62.6715 36.3697 62.5005 36.4402C62.3295 36.5106 62.1741 36.6141 62.0431 36.7447C61.9122 36.8753 61.8083 37.0304 61.7374 37.2013C61.6665 37.3721 61.63 37.5552 61.63 37.7401V61.9822H59.4455V32.4979C59.4445 32.1257 59.2959 31.769 59.0324 31.5061C58.7688 31.2433 58.4118 31.0957 58.0395 31.0957H48.6465C48.2736 31.0957 47.916 31.2438 47.6523 31.5074C47.3886 31.7711 47.2405 32.1287 47.2405 32.5016V61.9859H45.0532V42.9833C45.0532 42.7986 45.0168 42.6158 44.9462 42.4452C44.8755 42.2747 44.772 42.1197 44.6414 41.9891C44.5109 41.8586 44.3559 41.755 44.1853 41.6844C44.0147 41.6137 43.8319 41.5773 43.6473 41.5773H34.2533C33.8804 41.5773 33.5228 41.7255 33.2591 41.9891C32.9955 42.2528 32.8473 42.6104 32.8473 42.9833V61.9822H29.3018C28.9288 61.9822 28.5711 62.1304 28.3073 62.3941C28.0436 62.6579 27.8954 63.0156 27.8954 63.3886C27.8954 63.7616 28.0436 64.1193 28.3073 64.3831C28.5711 64.6468 28.9288 64.795 29.3018 64.795H63.5101C62.9815 67.6892 62.9008 70.6475 63.2707 73.5663H7.42312C6.20074 73.5648 5.02884 73.0786 4.1644 72.2144C3.29997 71.3501 2.81357 70.1783 2.81187 68.9559V7.42312ZM56.6327 61.9822H50.0524V33.9039H56.6336L56.6327 61.9822ZM42.2395 61.9822H35.6592V44.3892H42.2404L42.2395 61.9822ZM38.9507 37.6714C39.7674 37.6714 40.5721 37.4745 41.2966 37.0974C42.021 36.7203 42.6438 36.1741 43.1122 35.505C43.5807 34.836 43.8809 34.0639 43.9874 33.2542C44.094 32.4444 44.0037 31.621 43.7243 30.8535L50.2294 26.1139C50.7661 26.5323 51.3816 26.8384 52.0391 27.0138C52.6967 27.1892 53.3828 27.2305 54.0566 27.135C54.7305 27.0396 55.3782 26.8095 55.9611 26.4583C56.5441 26.1072 57.0504 25.6423 57.4498 25.0913L62.671 26.9934C62.6627 27.1108 62.6572 27.2291 62.6572 27.3483C62.6572 28.0901 62.8196 28.8229 63.133 29.4952C63.4465 30.1675 63.9034 30.763 64.4716 31.2399C65.0398 31.7167 65.7056 32.0633 66.4221 32.2554C67.1386 32.4474 67.8885 32.4802 68.619 32.3514C69.3495 32.2226 70.043 31.9354 70.6506 31.5099C71.2583 31.0845 71.7654 30.5311 72.1363 29.8887C72.5072 29.2463 72.733 28.5305 72.7976 27.7915C72.8623 27.0525 72.7644 26.3084 72.5107 25.6113L79.0157 20.8726C79.9808 21.6192 81.1829 21.9923 82.4011 21.9233C83.6192 21.8542 84.7715 21.3478 85.6461 20.4969C86.5206 19.6461 87.0586 18.5082 87.161 17.2924C87.2635 16.0766 86.9236 14.8646 86.2038 13.8795C85.484 12.8943 84.4327 12.2021 83.2433 11.9301C82.0539 11.6582 80.8063 11.8248 79.7299 12.3994C78.6535 12.9739 77.8207 13.9178 77.3847 15.0573C76.9487 16.1969 76.9388 17.4555 77.3567 18.6018L70.8516 23.3405C70.3159 22.9226 69.7017 22.6166 69.0454 22.4407C68.3892 22.2649 67.7042 22.2227 67.0313 22.3168C66.3585 22.411 65.7114 22.6394 65.1285 22.9885C64.5457 23.3377 64.039 23.8005 63.6385 24.3494L58.411 22.4454C58.4183 22.3326 58.4238 22.218 58.4238 22.1034C58.4234 21.3617 58.2607 20.6291 57.947 19.957C57.6332 19.285 57.1761 18.6898 56.6078 18.2132C56.0395 17.7367 55.3737 17.3904 54.6572 17.1986C53.9408 17.0069 53.191 16.9743 52.4606 17.1033C51.7303 17.2323 51.037 17.5196 50.4295 17.9451C49.822 18.3706 49.3151 18.924 48.9443 19.5663C48.5736 20.2087 48.3479 20.9244 48.2833 21.6633C48.2187 22.4021 48.3167 23.1462 48.5703 23.8431L42.0652 28.5828C41.427 28.0865 40.6795 27.7498 39.8849 27.6006C39.0903 27.4514 38.2716 27.4941 37.4968 27.7251C36.722 27.956 36.0136 28.3686 35.4303 28.9285C34.8471 29.4884 34.406 30.1794 34.1436 30.9442C33.8813 31.7089 33.8052 32.5252 33.9219 33.3252C34.0385 34.1252 34.3445 34.8858 34.8143 35.5438C35.2841 36.2017 35.9042 36.738 36.623 37.1081C37.3418 37.4781 38.1386 37.6712 38.9471 37.6714H38.9507ZM82.1303 14.5959C82.5789 14.5957 83.0175 14.7285 83.3906 14.9776C83.7637 15.2268 84.0545 15.5809 84.2263 15.9953C84.3981 16.4097 84.4432 16.8658 84.3557 17.3058C84.2683 17.7458 84.0524 18.15 83.7352 18.4673C83.4181 18.7846 83.014 19.0007 82.574 19.0883C82.134 19.1758 81.6779 19.131 81.2635 18.9593C80.849 18.7877 80.4947 18.497 80.2455 18.124C79.9962 17.751 79.8632 17.3125 79.8632 16.8639C79.8632 16.2625 80.102 15.6858 80.5271 15.2605C80.9523 14.8352 81.5289 14.5961 82.1303 14.5959ZM67.7371 25.0812C68.1857 25.081 68.6243 25.2139 68.9974 25.463C69.3705 25.7121 69.6613 26.0663 69.8331 26.4807C70.0049 26.8951 70.05 27.3511 69.9626 27.7911C69.8752 28.2312 69.6592 28.6354 69.3421 28.9527C69.0249 29.2699 68.6208 29.486 68.1808 29.5736C67.7408 29.6612 67.2848 29.6163 66.8703 29.4447C66.4558 29.2731 66.1015 28.9824 65.8523 28.6094C65.603 28.2364 65.47 27.7979 65.47 27.3492C65.47 26.7479 65.7088 26.1711 66.1339 25.7458C66.5591 25.3205 67.1357 25.0815 67.7371 25.0812ZM53.3439 19.8381C53.7924 19.8379 54.231 19.9707 54.604 20.2197C54.9771 20.4688 55.2679 20.8228 55.4398 21.2371C55.6116 21.6514 55.6568 22.1074 55.5695 22.5473C55.4823 22.9873 55.2665 23.3915 54.9495 23.7089C54.6326 24.0262 54.2286 24.2425 53.7888 24.3303C53.3489 24.418 52.8929 24.3735 52.4784 24.2021C52.0639 24.0307 51.7095 23.7403 51.46 23.3676C51.2105 22.9948 51.0772 22.5565 51.0768 22.1079C51.0768 21.5066 51.3156 20.9298 51.7408 20.5045C52.1659 20.0792 52.7426 19.8402 53.3439 19.8399V19.8381ZM38.9507 30.3234C39.3994 30.3231 39.8381 30.4558 40.2113 30.7048C40.5845 30.9538 40.8755 31.3079 41.0474 31.7223C41.2194 32.1367 41.2645 32.5927 41.1772 33.0328C41.0899 33.4729 40.8741 33.8772 40.5569 34.1945C40.2398 34.5119 39.8357 34.7281 39.3957 34.8158C38.9557 34.9034 38.4996 34.8586 38.0851 34.687C37.6705 34.5154 37.3162 34.2247 37.0669 33.8517C36.8176 33.4787 36.6845 33.0401 36.6845 32.5915C36.6845 31.9899 36.9235 31.4131 37.3488 30.9877C37.7742 30.5624 38.351 30.3234 38.9526 30.3234H38.9507ZM14.6738 35.2153C17.009 35.8448 19.4795 35.7574 21.7644 34.9645C24.0492 34.1717 26.0429 32.7101 27.4863 30.7695C28.9297 28.8289 29.7562 26.4991 29.8583 24.0828C29.9604 21.6664 29.3336 19.2752 28.0591 17.2197C26.7846 15.1642 24.9214 13.5396 22.7116 12.5567C20.5018 11.5739 18.0475 11.2783 15.6675 11.7084C13.2875 12.1385 11.0919 13.2744 9.36589 14.9686C7.63986 16.6627 6.46319 18.8367 5.98875 21.2083C5.39559 24.2086 5.96195 27.3223 7.57366 29.9217C9.18537 32.521 11.7226 34.4126 14.6738 35.2153ZM22.3886 31.579C20.4832 32.6788 18.247 33.0603 16.0847 32.6544C13.9224 32.2485 11.9768 31.082 10.6 29.366L17.8048 25.2059L25.1729 29.1046C24.4237 30.1115 23.4761 30.9542 22.3886 31.5808V31.579ZM25.7617 19.0008C26.369 20.047 26.7627 21.2032 26.9201 22.4026C27.0776 23.602 26.9955 24.8208 26.6788 25.9882C26.6211 26.2019 26.555 26.4101 26.4835 26.6174L19.2218 22.7738L19.5253 14.5628C19.74 14.6041 19.9546 14.6546 20.1673 14.7096C21.3373 15.0192 22.4343 15.5579 23.3946 16.2945C24.3549 17.0311 25.1595 17.951 25.7617 19.0008ZM8.896 21.222C9.3738 19.4411 10.3749 17.8445 11.7699 16.6387C13.1649 15.4329 14.8895 14.6734 16.7208 14.4583L16.4136 22.7655L9.19865 26.9292C8.49028 25.1081 8.38421 23.1078 8.896 21.222ZM5.76498 44.4956C5.76498 44.3109 5.80137 44.128 5.87208 43.9574C5.9428 43.7867 6.04644 43.6317 6.17709 43.5011C6.30774 43.3706 6.46284 43.267 6.63352 43.1964C6.8042 43.1258 6.98712 43.0895 7.17183 43.0897H20.8185C21.1914 43.0897 21.549 43.2378 21.8126 43.5014C22.0763 43.7651 22.2244 44.1227 22.2244 44.4956C22.2244 44.8685 22.0763 45.2261 21.8126 45.4897C21.549 45.7534 21.1914 45.9015 20.8185 45.9015H7.17183C6.98712 45.9017 6.8042 45.8654 6.63352 45.7948C6.46284 45.7242 6.30774 45.6206 6.17709 45.4901C6.04644 45.3595 5.9428 45.2045 5.87208 45.0338C5.80137 44.8632 5.76498 44.6803 5.76498 44.4956ZM27.9169 49.8561C27.9169 50.229 27.7688 50.5866 27.5051 50.8503C27.2415 51.1139 26.8839 51.2621 26.511 51.2621H7.17183C6.79895 51.2621 6.44135 51.1139 6.17768 50.8503C5.91402 50.5866 5.76589 50.229 5.76589 49.8561C5.76589 49.4833 5.91402 49.1256 6.17768 48.862C6.44135 48.5983 6.79895 48.4502 7.17183 48.4502H26.5119C26.8848 48.4502 27.2424 48.5983 27.5061 48.862C27.7697 49.1256 27.9169 49.4833 27.9169 49.8561ZM27.9169 55.2167C27.9169 55.4013 27.8806 55.5841 27.8099 55.7547C27.7393 55.9253 27.6357 56.0802 27.5051 56.2108C27.3746 56.3414 27.2196 56.4449 27.049 56.5156C26.8785 56.5862 26.6956 56.6226 26.511 56.6226H7.17183C6.79895 56.6226 6.44135 56.4745 6.17768 56.2108C5.91402 55.9471 5.76589 55.5895 5.76589 55.2167C5.76589 54.8438 5.91402 54.4862 6.17768 54.2225C6.44135 53.9588 6.79895 53.8107 7.17183 53.8107H26.5119C26.8848 53.8107 27.2424 53.9588 27.5061 54.2225C27.7697 54.4862 27.9169 54.8438 27.9169 55.2167ZM85.1448 63.5899C83.6936 65.0601 82.7963 66.9874 82.6055 69.0444C82.4146 71.1013 82.942 73.1609 84.098 74.8729C85.2539 76.585 86.9671 77.8439 88.9463 78.4357C90.9255 79.0274 93.0486 78.9155 94.9546 78.1189C96.8606 77.3223 98.4319 75.8903 99.4015 74.0662C100.371 72.2421 100.679 70.1385 100.273 68.113C99.8668 66.0875 98.7718 64.2652 97.1741 62.9558C95.5764 61.6463 93.5744 60.9306 91.5087 60.9303C90.3251 60.9334 89.1538 61.1699 88.0619 61.6262C86.9698 62.0826 85.9786 62.7499 85.1448 63.5899ZM95.8842 74.3293C94.8721 75.3414 93.5404 75.9712 92.1159 76.1115C90.6915 76.2517 89.2625 75.8938 88.0724 75.0986C86.8823 74.3034 86.0047 73.1202 85.5892 71.7505C85.1737 70.3808 85.2459 68.9094 85.7936 67.587C86.3413 66.2646 87.3306 65.173 88.5928 64.4983C89.8551 63.8235 91.3123 63.6072 92.7161 63.8864C94.12 64.1655 95.3836 64.9227 96.2917 66.0291C97.1999 67.1354 97.6963 68.5224 97.6964 69.9538C97.6965 70.7664 97.5365 71.571 97.2256 72.3218C96.9146 73.0726 96.4588 73.7547 95.8842 74.3293Z" fill="#0B7A45"/>
</svg>