<svg width="22" height="23" viewBox="0 0 22 23" fill="none" xmlns="http://www.w3.org/2000/svg">
<path d="M21.5904 7.01697C21.5728 6.13523 21.4057 5.26286 21.0964 4.43697C20.8293 3.72829 20.411 3.08637 19.8704 2.55597C19.3398 2.01497 18.6975 1.59624 17.9884 1.32897C17.1624 1.01998 16.2901 0.853279 15.4084 0.835973C14.2754 0.783973 13.9134 0.771973 11.0274 0.771973C8.14139 0.771973 7.77939 0.783973 6.64539 0.835973C5.76365 0.853599 4.89128 1.02063 4.06539 1.32997C3.35635 1.59689 2.71408 2.01528 2.18339 2.55597C1.64272 3.08669 1.22433 3.72895 0.957391 4.43797C0.648394 5.26392 0.481697 6.13629 0.464391 7.01797C0.412391 8.15097 0.400391 8.51297 0.400391 11.399C0.400391 14.285 0.412391 14.647 0.464391 15.781C0.482017 16.6627 0.649052 17.5351 0.958391 18.361C1.22543 19.0697 1.64382 19.7116 2.18439 20.242C2.71467 20.7841 3.35697 21.2039 4.06639 21.472C4.89228 21.7813 5.76465 21.9483 6.64639 21.966C7.77939 22.018 8.14639 22.03 11.0274 22.03C13.9084 22.03 14.2754 22.018 15.4084 21.966C16.2901 21.9483 17.1625 21.7813 17.9884 21.472C18.6955 21.199 19.3377 20.7811 19.8736 20.2452C20.4096 19.7092 20.8274 19.0671 21.1004 18.36C21.4097 17.5341 21.5768 16.6617 21.5944 15.78C21.6464 14.647 21.6584 14.28 21.6584 11.399C21.6584 8.51797 21.6464 8.15097 21.5944 7.01797L21.5904 7.01697ZM19.6774 15.693C19.6693 16.3668 19.5455 17.0341 19.3114 17.666C19.1346 18.1243 18.8638 18.5406 18.5164 18.888C18.169 19.2354 17.7528 19.5062 17.2944 19.683C16.6626 19.9171 15.9952 20.0409 15.3214 20.049C14.2014 20.1 13.8654 20.111 11.0274 20.111C8.18939 20.111 7.85339 20.1 6.73339 20.049C6.05962 20.0409 5.39224 19.9171 4.76039 19.683C4.29831 19.5111 3.8807 19.2378 3.53839 18.883C3.18359 18.5407 2.91019 18.1231 2.73839 17.661C2.50424 17.0291 2.38044 16.3618 2.37239 15.688C2.32139 14.568 2.31039 14.231 2.31039 11.394C2.31039 8.55697 2.32139 8.21997 2.37239 7.09997C2.38052 6.4262 2.50432 5.75883 2.73839 5.12697C2.91044 4.665 3.1838 4.24744 3.53839 3.90497C3.88115 3.55192 4.29873 3.28026 4.76039 3.10997C5.39222 2.87581 6.05961 2.752 6.73339 2.74397C7.85339 2.69297 8.19039 2.68197 11.0274 2.68197C13.8654 2.68197 14.2014 2.69297 15.3214 2.74397C15.9952 2.75204 16.6625 2.87584 17.2944 3.10997C17.7559 3.28056 18.1734 3.55219 18.5164 3.90497C18.8694 4.24773 19.1411 4.66531 19.3114 5.12697C19.5457 5.75878 19.6695 6.42618 19.6774 7.09997C19.7284 8.21997 19.7394 8.55697 19.7394 11.394C19.7394 14.231 19.7284 14.568 19.6774 15.688V15.693Z" fill="#980CF7"/>
<path d="M11.0313 5.9419C9.95202 5.94111 8.89674 6.26038 7.9989 6.85935C7.10106 7.45831 6.401 8.31006 5.98724 9.30689C5.57348 10.3037 5.46461 11.4009 5.67439 12.4596C5.88417 13.5183 6.40319 14.491 7.16581 15.2547C7.92842 16.0185 8.90039 16.5389 9.95879 16.7503C11.0172 16.9616 12.1145 16.8543 13.1119 16.442C14.1094 16.0297 14.9621 15.3309 15.5624 14.434C16.1627 13.537 16.4835 12.4822 16.4843 11.4029C16.4848 10.6863 16.3442 9.97656 16.0705 9.31429C15.7967 8.65201 15.3952 8.05014 14.8888 7.54304C14.3825 7.03594 13.7812 6.63354 13.1193 6.35881C12.4574 6.08409 11.7479 5.94242 11.0313 5.9419ZM11.0313 14.9419C10.3305 14.9427 9.64516 14.7355 9.06209 14.3467C8.47902 13.9578 8.02441 13.4048 7.7558 12.7574C7.48718 12.1101 7.41664 11.3977 7.5531 10.7102C7.68956 10.0228 8.02689 9.39132 8.52239 8.89568C9.01789 8.40004 9.64929 8.06254 10.3367 7.92588C11.0241 7.78923 11.7365 7.85956 12.3839 8.12799C13.0313 8.39642 13.5845 8.85088 13.9736 9.43384C14.3626 10.0168 14.5699 10.7021 14.5693 11.4029C14.5683 12.3409 14.1952 13.2402 13.5319 13.9035C12.8686 14.5667 11.9693 14.9398 11.0313 14.9409V14.9419Z" fill="#980CF7"/>
<path d="M17.9758 5.72593C17.9758 5.9781 17.901 6.22461 17.7609 6.43428C17.6208 6.64395 17.4217 6.80738 17.1887 6.90388C16.9557 7.00038 16.6994 7.02562 16.4521 6.97643C16.2047 6.92723 15.9775 6.8058 15.7992 6.62749C15.6209 6.44918 15.4995 6.222 15.4503 5.97467C15.4011 5.72734 15.4263 5.47098 15.5228 5.23801C15.6193 5.00503 15.7828 4.8059 15.9924 4.6658C16.2021 4.5257 16.4486 4.45093 16.7008 4.45093C17.0389 4.45093 17.3632 4.58525 17.6024 4.82436C17.8415 5.06347 17.9758 5.38778 17.9758 5.72593Z" fill="#980CF7"/>
</svg>
