<svg width="41" height="41" viewBox="0 0 41 41" fill="none" xmlns="http://www.w3.org/2000/svg">
<g id="lamp 1" clip-path="url(#clip0_331_2087)">
<g id="Group">
<path id="Vector" d="M23.0628 41H17.9378C16.742 41 15.3753 39.975 15.3753 37.925V34.3375C15.3753 32.6292 14.5212 31.0917 13.1545 29.8959C10.0795 27.5042 8.54199 24.0875 8.54199 20.3292C8.71283 13.8375 14.0087 8.71252 20.3295 8.54169C23.5753 8.54169 26.6503 9.73752 28.8712 11.9584C31.092 14.1792 32.4587 17.2542 32.4587 20.5C32.4587 24.0875 30.9212 27.5042 28.017 29.725C26.4795 30.9209 25.6253 32.8 25.6253 34.5084V38.4375C25.6253 39.8042 24.4295 41 23.0628 41ZM20.5003 10.25C15.0337 10.25 10.4212 14.8625 10.2503 20.3292C10.2503 23.575 11.617 26.65 14.1795 28.5292C16.0587 30.0667 17.0837 32.1167 17.0837 34.3375V37.925C17.0837 38.2667 17.0837 39.2917 17.9378 39.2917H23.0628C23.5753 39.2917 23.917 38.95 23.917 38.4375V34.5084C23.917 32.2875 25.1128 29.8959 26.992 28.3584C29.3837 26.4792 30.7503 23.575 30.7503 20.5C30.7503 17.7667 29.7253 15.2042 27.6753 13.1542C25.7962 11.275 23.2337 10.25 20.5003 10.25Z" fill="#FCC020"/>
</g>
<g id="Group_2">
<path id="Vector_2" d="M24.7708 35.875H16.2292C15.7167 35.875 15.375 35.5334 15.375 35.0209C15.375 34.5084 15.7167 34.1667 16.2292 34.1667H24.7708C25.2833 34.1667 25.625 34.5084 25.625 35.0209C25.625 35.5334 25.2833 35.875 24.7708 35.875Z" fill="#FCC020"/>
</g>
<g id="Group_3">
<path id="Vector_3" d="M20.4997 5.125C19.9872 5.125 19.6455 4.78333 19.6455 4.27083V0.854167C19.6455 0.341667 19.9872 0 20.4997 0C21.0122 0 21.3538 0.341667 21.3538 0.854167V4.27083C21.3538 4.78333 21.0122 5.125 20.4997 5.125Z" fill="#FCC020"/>
</g>
<g id="Group_4">
<path id="Vector_4" d="M31.9454 9.90832C31.7746 9.90832 31.4329 9.90832 31.2621 9.73749C30.9204 9.39582 30.9204 8.88332 31.2621 8.54165L33.6538 6.14999C33.9954 5.80832 34.5079 5.80832 34.8496 6.14999C35.1913 6.49165 35.1913 7.00415 34.8496 7.34582L32.4579 9.73749C32.4579 9.73749 32.1163 9.90832 31.9454 9.90832Z" fill="#FCC020"/>
</g>
<g id="Group_5">
<path id="Vector_5" d="M40.1458 21.3541H36.7292C36.2167 21.3541 35.875 21.0125 35.875 20.5C35.875 19.9875 36.2167 19.6458 36.7292 19.6458H40.1458C40.6583 19.6458 41 19.9875 41 20.5C41 21.0125 40.6583 21.3541 40.1458 21.3541Z" fill="#FCC020"/>
</g>
<g id="Group_6">
<path id="Vector_6" d="M34.3371 35.1916C34.1663 35.1916 33.8246 35.1916 33.6538 35.0208L31.2621 32.6291C30.9204 32.2875 30.9204 31.775 31.2621 31.4333C31.6038 31.0916 32.1163 31.0916 32.4579 31.4333L34.8496 33.825C35.1913 34.1666 35.1913 34.6791 34.8496 35.0208C34.8496 35.1916 34.6788 35.1916 34.3371 35.1916Z" fill="#FCC020"/>
</g>
<g id="Group_7">
<path id="Vector_7" d="M6.66224 35.1916C6.49141 35.1916 6.14974 35.1916 5.97891 35.0208C5.63724 34.6791 5.63724 34.1666 5.97891 33.825L8.37057 31.4333C8.71224 31.0916 9.22474 31.0916 9.56641 31.4333C9.90807 31.775 9.90807 32.2875 9.56641 32.6291L7.17474 35.0208C7.00391 35.1916 6.83307 35.1916 6.66224 35.1916Z" fill="#FCC020"/>
</g>
<g id="Group_8">
<path id="Vector_8" d="M4.27083 21.3541H0.854167C0.341667 21.3541 0 21.0125 0 20.5C0 19.9875 0.341667 19.6458 0.854167 19.6458H4.27083C4.78333 19.6458 5.125 19.9875 5.125 20.5C5.125 21.0125 4.78333 21.3541 4.27083 21.3541Z" fill="#FCC020"/>
</g>
<g id="Group_9">
<path id="Vector_9" d="M9.05391 9.90832C8.88307 9.90832 8.54141 9.90832 8.37057 9.73748L5.97891 7.17498C5.63724 6.83332 5.63724 6.32082 5.97891 5.97915C6.32057 5.63748 6.83307 5.63748 7.17474 5.97915L9.56641 8.37082C9.90807 8.71248 9.90807 9.22498 9.56641 9.56665C9.39557 9.73748 9.22474 9.90832 9.05391 9.90832Z" fill="#FCC020"/>
</g>
<g id="Group_10">
<path id="Vector_10" d="M27.333 21.3542C26.8205 21.3542 26.4788 21.0125 26.4788 20.5C26.4788 17.2542 23.7455 14.5208 20.4997 14.5208C19.9872 14.5208 19.6455 14.1792 19.6455 13.6667C19.6455 13.1542 19.9872 12.8125 20.4997 12.8125C24.7705 12.8125 28.1872 16.2292 28.1872 20.5C28.1872 21.0125 27.8455 21.3542 27.333 21.3542Z" fill="#FCC020"/>
</g>
</g>
<defs>
<clipPath id="clip0_331_2087">
<rect width="41" height="41" fill="white"/>
</clipPath>
</defs>
</svg>
