<svg width="25" height="24" viewBox="0 0 25 24" fill="none" xmlns="http://www.w3.org/2000/svg">
<path d="M24.9943 24.0001H25.0003V15.2001C25.0003 10.8941 24.0733 7.57709 19.0393 7.57709C18.094 7.54195 17.1569 7.76402 16.328 8.21962C15.499 8.67522 14.8093 9.34727 14.3323 10.1641H14.2623V7.97609H9.48926V24.0001H14.4593V16.0651C14.4593 13.9761 14.8593 11.9561 17.4423 11.9561C19.9913 11.9561 20.0293 14.3401 20.0293 16.1991V24.0001H24.9943Z" fill="#980CF7"/>
<path d="M1.39941 7.97705H6.37141V24H1.39941V7.97705Z" fill="#980CF7"/>
<path d="M3.88181 5.5543e-05C3.30673 -0.003503 2.74357 0.164004 2.26392 0.481287C1.78427 0.79857 1.40979 1.2513 1.18806 1.78193C0.966342 2.31257 0.907397 2.89714 1.01872 3.46136C1.13004 4.02558 1.40661 4.54396 1.81326 4.95061C2.21991 5.35726 2.73829 5.63383 3.30251 5.74515C3.86672 5.85647 4.4513 5.79753 4.98193 5.5758C5.51257 5.35408 5.9653 4.9796 6.28258 4.49995C6.59986 4.02029 6.76737 3.45714 6.76381 2.88206C6.76355 2.11778 6.45982 1.38489 5.9194 0.844467C5.37898 0.304044 4.64609 0.000320593 3.88181 5.5543e-05Z" fill="#980CF7"/>
</svg>
