<svg width="49" height="49" viewBox="0 0 49 49" fill="none" xmlns="http://www.w3.org/2000/svg">
<g clip-path="url(#clip0_25_1879)">
<path d="M44.5 35.5H33.5C32.5 35.5 32.5 36.5 32.5 37.5V45C32.5 46 33 46.5 34 46.5H44.5C46 46.5 47.5 46.5 47.5 45V37.5C47.5 35.5 46 35.5 44.5 35.5Z" fill="#FCB21D"/>
<path d="M18.375 21.4693C12.746 21.4693 8.1665 16.8901 8.1665 11.2612C8.1665 5.63228 12.746 1.05273 18.375 1.05273C24.0039 1.05273 28.5834 5.63228 28.5834 11.2612C28.5834 16.8901 24.0039 21.4693 18.375 21.4693ZM18.375 4.11523C14.4347 4.11523 11.229 7.32054 11.229 11.2612C11.229 15.2015 14.4347 18.4068 18.375 18.4068C22.3152 18.4068 25.5209 15.2015 25.5209 11.2612C25.5209 7.32054 22.3152 4.11523 18.375 4.11523Z" fill="#F76818"/>
<path d="M45.4272 48.0112H34.1978C32.2277 48.0112 30.625 46.4085 30.625 44.438V37.2924C30.625 35.3219 32.2277 33.7192 34.1978 33.7192H45.4272C47.3973 33.7192 49 35.3219 49 37.2924V44.438C49 46.4085 47.3973 48.0112 45.4272 48.0112ZM34.1978 36.7817C33.9163 36.7817 33.6875 37.0105 33.6875 37.2924V44.438C33.6875 44.7199 33.9163 44.9487 34.1978 44.9487H45.4272C45.7087 44.9487 45.9375 44.7199 45.9375 44.438V37.2924C45.9375 37.0105 45.7087 36.7817 45.4272 36.7817H34.1978Z" fill="#F76818"/>
<path d="M43.3853 36.7818H36.2397C35.3945 36.7818 34.7085 36.0958 34.7085 35.2505V30.6568C34.7085 27.8436 36.999 25.5527 39.8125 25.5527C42.6261 25.5527 44.9166 27.8436 44.9166 30.6568V35.2505C44.9166 36.0958 44.2306 36.7818 43.3853 36.7818ZM37.771 33.7193H41.8541V30.6568C41.8541 29.5319 40.9374 28.6152 39.8125 28.6152C38.6877 28.6152 37.771 29.5319 37.771 30.6568V33.7193Z" fill="#F76818"/>
<path d="M25.521 43.9277H1.53125C0.685997 43.9277 0 43.2417 0 42.3965V35.2505C0 29.9035 4.35075 25.5527 9.69779 25.5527H27.5625C29.2695 25.5527 30.9495 26.004 32.4198 26.8593C33.1507 27.284 33.3974 28.2212 32.9731 28.9521C32.5484 29.6852 31.6112 29.93 30.8781 29.5053C29.8758 28.9237 28.7281 28.6152 27.5625 28.6152H9.69779C6.03939 28.6152 3.0625 31.5921 3.0625 35.2505V40.8652H25.521C26.3662 40.8652 27.0522 41.5512 27.0522 42.3965C27.0522 43.2417 26.3662 43.9277 25.521 43.9277Z" fill="#F76818"/>
</g>
<defs>
<clipPath id="clip0_25_1879">
<rect width="49" height="49" fill="white"/>
</clipPath>
</defs>
</svg>
