<svg width="41" height="41" viewBox="0 0 41 41" fill="none" xmlns="http://www.w3.org/2000/svg">
<g id="Group 962">
<g id="Group">
<path id="Vector" d="M21.8148 39.0412H23.5144C24.1496 39.0412 24.6645 38.5263 24.6645 37.8912V36.7726C24.6645 35.5168 25.6799 34.4974 26.9357 34.4926H26.9453C29.3845 34.4831 31.3717 32.5309 31.4243 30.0922L31.5435 26.8973H33.2542C34.7699 26.8973 35.7302 25.2716 34.9988 23.9442C34.9988 23.9442 31.8284 19.0526 31.8281 19.0521L31.7891 17.0285C31.7593 16.6029 31.7125 16.1785 31.6458 15.757C31.5266 15.0044 31.3458 14.2609 31.0931 13.5419C30.636 12.2417 29.9428 11.029 29.0294 9.9952C27.2673 8.00088 24.7516 6.73767 22.1538 6.25476C17.7747 5.44073 13.2648 6.27787 9.85716 9.29857C4.55226 14.0008 3.8266 22.3084 8.27444 27.8231C9.03511 28.7662 9.92272 29.6062 10.9064 30.3137C11.6726 30.8648 12.138 31.741 12.138 32.6847V37.8912C12.138 38.5263 12.6529 39.0412 13.288 39.0412H14.9092" stroke="#FCC020" stroke-width="2" stroke-miterlimit="10" stroke-linecap="round" stroke-linejoin="round"/>
<path id="Vector_2" d="M18.1822 24.4873C21.561 24.4873 24.3 21.7483 24.3 18.3695C24.3 14.9907 21.561 12.2517 18.1822 12.2517C14.8035 12.2517 12.0645 14.9907 12.0645 18.3695C12.0645 21.7483 14.8035 24.4873 18.1822 24.4873Z" stroke="#FCC020" stroke-width="2" stroke-miterlimit="10" stroke-linecap="round" stroke-linejoin="round"/>
<path id="Vector_3" d="M18.1816 20.4905C19.353 20.4905 20.3026 19.5409 20.3026 18.3695C20.3026 17.198 19.353 16.2484 18.1816 16.2484C17.0102 16.2484 16.0605 17.198 16.0605 18.3695C16.0605 19.5409 17.0102 20.4905 18.1816 20.4905Z" stroke="#FCC020" stroke-width="2" stroke-miterlimit="10" stroke-linecap="round" stroke-linejoin="round"/>
<path id="Vector_4" d="M13.8173 14.0826L6.43262 7.5343" stroke="#FCC020" stroke-width="2" stroke-miterlimit="10" stroke-linecap="round" stroke-linejoin="round"/>
<path id="Vector_5" d="M23.7734 15.1036L35.634 11.4908" stroke="#FCC020" stroke-width="2" stroke-miterlimit="10" stroke-linecap="round" stroke-linejoin="round"/>
<path id="Vector_6" d="M20.8525 12.3101L26.8126 5.17194" stroke="#FCC020" stroke-width="2" stroke-miterlimit="10" stroke-linecap="round" stroke-linejoin="round"/>
<path id="Vector_7" d="M19.4229 24.4873L21.5685 28.4542" stroke="#FCC020" stroke-width="2" stroke-miterlimit="10" stroke-linecap="round" stroke-linejoin="round"/>
<path id="Vector_8" d="M13.4634 22.7921L4.82129 30.5402" stroke="#FCC020" stroke-width="2" stroke-miterlimit="10" stroke-linecap="round" stroke-linejoin="round"/>
<path id="Vector_9" d="M3.46406 33.6884C4.40586 33.6884 5.16933 32.9249 5.16933 31.9831C5.16933 31.0413 4.40586 30.2778 3.46406 30.2778C2.52227 30.2778 1.75879 31.0413 1.75879 31.9831C1.75879 32.9249 2.52227 33.6884 3.46406 33.6884Z" stroke="#FCC020" stroke-width="2" stroke-miterlimit="10" stroke-linecap="round" stroke-linejoin="round"/>
<path id="Vector_10" d="M22.5578 31.8647C23.4996 31.8647 24.2631 31.1012 24.2631 30.1594C24.2631 29.2176 23.4996 28.4542 22.5578 28.4542C21.616 28.4542 20.8525 29.2176 20.8525 30.1594C20.8525 31.1012 21.616 31.8647 22.5578 31.8647Z" stroke="#FCC020" stroke-width="2" stroke-miterlimit="10" stroke-linecap="round" stroke-linejoin="round"/>
<path id="Vector_11" d="M5.16816 8.02431C6.10996 8.02431 6.87344 7.26084 6.87344 6.31904C6.87344 5.37725 6.10996 4.61377 5.16816 4.61377C4.22637 4.61377 3.46289 5.37725 3.46289 6.31904C3.46289 7.26084 4.22637 8.02431 5.16816 8.02431Z" stroke="#FCC020" stroke-width="2" stroke-miterlimit="10" stroke-linecap="round" stroke-linejoin="round"/>
<path id="Vector_12" d="M27.9982 5.17202C28.94 5.17202 29.7035 4.40854 29.7035 3.46675C29.7035 2.52495 28.94 1.76147 27.9982 1.76147C27.0564 1.76147 26.293 2.52495 26.293 3.46675C26.293 4.40854 27.0564 5.17202 27.9982 5.17202Z" stroke="#FCC020" stroke-width="2" stroke-miterlimit="10" stroke-linecap="round" stroke-linejoin="round"/>
<path id="Vector_13" d="M37.3391 12.5137C38.2809 12.5137 39.0443 11.7502 39.0443 10.8084C39.0443 9.86663 38.2809 9.10315 37.3391 9.10315C36.3973 9.10315 35.6338 9.86663 35.6338 10.8084C35.6338 11.7502 36.3973 12.5137 37.3391 12.5137Z" stroke="#FCC020" stroke-width="2" stroke-miterlimit="10" stroke-linecap="round" stroke-linejoin="round"/>
</g>
</g>
</svg>
