<svg width="11" height="14" viewBox="0 0 11 14" fill="none" xmlns="http://www.w3.org/2000/svg">
<path d="M9.75932 6.2999L2.15932 0.217903C1.96831 0.0760844 1.73673 -0.000488281 1.49883 -0.000488281C1.26092 -0.000488281 1.02934 0.0760844 0.838326 0.217903L0.27932 0.665903C0.194911 0.725789 0.126079 0.805021 0.0785751 0.89697C0.0310708 0.988919 0.00627899 1.09091 0.00627899 1.1944C0.00627899 1.2979 0.0310708 1.39989 0.0785751 1.49184C0.126079 1.58378 0.194911 1.66302 0.27932 1.7229L6.65833 6.8299L0.272324 11.9429C0.188108 12.0029 0.119459 12.0822 0.0720901 12.1741C0.0247214 12.2661 0 12.368 0 12.4714C0 12.5748 0.0247214 12.6767 0.0720901 12.7687C0.119459 12.8606 0.188108 12.9399 0.272324 12.9999L0.831322 13.4479C1.02233 13.5897 1.25392 13.6663 1.49182 13.6663C1.72972 13.6663 1.96131 13.5897 2.15232 13.4479L9.75232 7.3609C9.83656 7.30044 9.90519 7.22079 9.95253 7.12854C9.99987 7.03629 10.0246 6.93409 10.0246 6.8304C10.0246 6.72671 9.99987 6.62452 9.95253 6.53227C9.90519 6.44001 9.83656 6.36036 9.75232 6.2999H9.75932Z" fill="#980CF7"/>
</svg>
