<svg xmlns="http://www.w3.org/2000/svg" width="213" height="92" viewBox="0 0 213 92" fill="none"><g clip-path="url(#clip0_1_7)"><path d="M91.4722 10.5785L93.5379 -0.000976562L99.5645 2.58812L93.3148 11.3718L91.4722 10.5785Z" fill="white"></path><path d="M96.0635 13.6698L103.313 5.69043L107.128 11.0256L97.2313 15.3004L96.0635 13.6698Z" fill="white"></path><path d="M97.0251 28.5593C97.0251 25.3312 96.4743 22.5603 95.3698 20.2494C94.2653 17.9412 92.7228 16.1509 90.7397 14.8839C88.7565 13.6169 86.4567 12.9834 83.84 12.9834C81.631 12.9834 79.6589 13.4737 77.9209 14.4542C76.1829 15.4348 74.8856 16.7459 74.0262 18.3792L71.8668 13.5949H66.5454V91.9811H74.2108V69.938C75.1087 71.4915 76.4088 72.7282 78.1054 73.6481C79.8021 74.5681 81.7137 75.0281 83.84 75.0281C86.498 75.0281 88.8089 74.3946 90.77 73.1276C92.7338 71.8605 94.2653 70.0509 95.3698 67.6987C96.4715 65.3548 97.0224 62.5949 97.0251 59.4191V28.5896C97.0251 28.5896 97.0251 28.5703 97.0251 28.5593ZM89.2964 59.4191C89.2909 62.6334 88.5968 65.0655 87.2114 66.7182C85.8204 68.3735 83.9805 69.2026 81.6916 69.2026C79.4027 69.2026 77.5601 68.3735 76.1719 66.7182C74.7864 65.0683 74.0924 62.6334 74.0868 59.4191V28.5896C74.0868 28.5896 74.0868 28.5703 74.0868 28.5593C74.0868 25.2899 74.7809 22.8468 76.1719 21.2299C77.5601 19.6159 79.4 18.8061 81.6916 18.8061C83.9832 18.8061 85.8204 19.6131 87.2114 21.2299C88.5996 22.8468 89.2964 25.2871 89.2964 28.5593C89.2964 28.5703 89.2964 28.5786 89.2964 28.5896V59.4191Z" fill="white"></path><path d="M14.2895 44.1987C11.7527 44.1987 9.384 43.893 7.17501 43.2788C4.96601 42.6645 3.1261 41.7859 1.65527 40.6428L3.61913 35.6134C5.13127 36.6352 6.82796 37.423 8.70918 37.9739C10.5904 38.5247 12.4716 38.8029 14.3529 38.8029C16.2341 38.8029 17.7765 38.4669 18.7378 37.7921C19.6991 37.1173 20.1783 36.2276 20.1783 35.1231C20.1783 33.4071 18.9113 32.3026 16.3746 31.8124L10.2406 30.6473C5.04864 29.6667 2.45128 26.9674 2.45128 22.5522C2.45128 20.5884 2.99389 18.8944 4.07635 17.4622C5.15882 16.0326 6.6627 14.9282 8.58524 14.1514C10.5078 13.3747 12.714 12.9863 15.2095 12.9863C17.3358 12.9863 19.3796 13.2838 21.3434 13.876C23.3073 14.4682 24.9819 15.3578 26.3729 16.545L24.2878 21.5744C23.1007 20.5939 21.6822 19.8171 20.0241 19.2442C18.3687 18.6713 16.7822 18.3849 15.2701 18.3849C13.2649 18.3849 11.783 18.7319 10.8245 19.4288C9.86326 20.1256 9.384 21.0456 9.384 22.1886C9.384 23.9872 10.5491 25.0917 12.8793 25.4994L19.0132 26.6645C21.6712 27.1547 23.6846 28.0554 25.0535 29.3637C26.4225 30.6721 27.1083 32.4293 27.1083 34.6383C27.1083 37.6241 25.9432 39.9653 23.613 41.6619C21.2828 43.3586 18.1759 44.207 14.2895 44.207V44.1987Z" fill="white"></path><path d="M42.9926 44.1984C35.6329 44.1984 31.9531 40.0696 31.9531 31.8093V13.5947H39.6185V31.9332C39.6185 34.0596 40.0482 35.6351 40.9075 36.657C41.7669 37.6788 43.1358 38.1911 45.017 38.1911C47.0608 38.1911 48.7382 37.486 50.0465 36.0758C51.3548 34.6656 52.0104 32.7954 52.0104 30.4652V13.5947H59.6757V43.5869H52.1921V39.1111C50.187 42.5045 47.1214 44.2011 42.9926 44.2011V44.1984Z" fill="white"></path><path d="M117.019 44.2005C113.626 44.2005 110.703 43.567 108.249 42.3C105.795 41.033 103.906 39.2344 102.575 36.9042C101.245 34.574 100.581 31.8141 100.581 28.6246C100.581 25.435 101.226 22.7991 102.512 20.4689C103.801 18.1388 105.577 16.3099 107.847 14.9795C110.117 13.6519 112.703 12.9854 115.606 12.9854C119.859 12.9854 123.222 14.335 125.695 17.0343C128.169 19.7335 129.405 23.4133 129.405 28.0737V30.3433H107.941C108.514 35.7005 111.579 38.3778 117.14 38.3778C118.818 38.3778 120.492 38.1216 122.17 37.6121C123.847 37.1025 125.379 36.2927 126.769 35.1882L128.915 40.3389C127.483 41.526 125.684 42.4652 123.519 43.1593C121.352 43.8534 119.184 44.2032 117.019 44.2032V44.2005ZM115.915 18.1966C113.664 18.1966 111.846 18.8934 110.455 20.2816C109.064 21.6726 108.227 23.5538 107.941 25.9253H123.029C122.867 23.4326 122.181 21.5211 120.974 20.1908C119.768 18.8632 118.082 18.1966 115.915 18.1966Z" fill="white"></path><path d="M134.374 43.5851V13.5956H141.858V18.8702C143.328 15.3144 146.477 13.3505 151.302 12.9814L153.633 12.7969L154.123 19.2972L149.708 19.7268C144.678 20.2171 142.163 22.7924 142.163 27.4556V43.5851H134.374Z" fill="white"></path><path d="M31.9531 91.982V50.9503H39.4367V55.7347C40.2961 54.0986 41.5934 52.7902 43.3314 51.8097C45.0694 50.8291 47.0415 50.3389 49.2505 50.3389C51.8671 50.3389 54.167 50.9724 56.1502 52.2394C58.1333 53.5064 59.6757 55.2967 60.7802 57.6049C61.8847 59.9158 62.4356 62.6867 62.4356 65.9148C62.4356 69.1429 61.8847 71.8752 60.7802 74.2247C59.6757 76.5769 58.1443 78.3865 56.1805 79.6535C54.2166 80.9205 51.9084 81.554 49.2505 81.554C47.1241 81.554 45.2126 81.094 43.5159 80.1741C41.8192 79.2541 40.5192 78.0174 39.6213 76.464V91.982H31.9559H31.9531ZM47.1021 75.7285C49.391 75.7285 51.2309 74.8995 52.6218 73.2441C54.01 71.5887 54.7069 69.1456 54.7069 65.9148C54.7069 62.6839 54.01 60.2022 52.6218 58.5854C51.2309 56.9714 49.391 56.1616 47.1021 56.1616C44.8132 56.1616 42.9706 56.9686 41.5824 58.5854C40.1914 60.2022 39.4973 62.6426 39.4973 65.9148C39.4973 69.1869 40.1914 71.5887 41.5824 73.2441C42.9706 74.8995 44.8105 75.7285 47.1021 75.7285Z" fill="white"></path><path d="M11.2242 81.5536C9.0565 81.5536 7.1257 81.135 5.42901 80.2977C3.73233 79.4603 2.40198 78.3255 1.44346 76.8933C0.482188 75.4638 0.00292969 73.847 0.00292969 72.0484C0.00292969 69.8394 0.575836 68.0931 1.71889 66.8041C2.86195 65.515 4.7239 64.5868 7.29922 64.0139C9.87455 63.441 13.3285 63.1545 17.6639 63.1545H19.8095V61.8655C19.8095 59.8218 19.3578 58.3482 18.4599 57.4503C17.5592 56.5523 16.0471 56.1006 13.9207 56.1006C12.2433 56.1006 10.5273 56.3568 8.77005 56.8663C7.01277 57.3787 5.23346 58.1636 3.43486 59.2268L1.22586 54.0128C2.28905 53.2774 3.54503 52.6329 4.99658 52.082C6.44813 51.5312 7.97955 51.1015 9.59636 50.793C11.2104 50.4873 12.7336 50.333 14.1658 50.333C18.5398 50.333 21.7899 51.3439 23.9163 53.3683C26.0426 55.3928 27.1058 58.53 27.1058 62.7827V80.9367H19.9307V76.1524C19.2339 77.8298 18.1321 79.1491 16.62 80.1076C15.1078 81.0689 13.3092 81.5481 11.2242 81.5481V81.5536ZM12.819 76.2791C14.8214 76.2791 16.4878 75.585 17.8181 74.194C19.1457 72.8058 19.8123 71.0458 19.8123 68.9194V67.5698H17.7272C13.8849 67.5698 11.2159 67.8672 9.72306 68.4594C8.2302 69.0516 7.48377 70.1258 7.48377 71.6793C7.48377 73.0289 7.95201 74.1334 8.894 74.99C9.83323 75.8494 11.1416 76.2791 12.819 76.2791Z" fill="white"></path><path d="M197.116 81.5536C194.948 81.5536 193.017 81.135 191.321 80.2977C189.624 79.4603 188.294 78.3255 187.335 76.8933C186.374 75.4638 185.895 73.847 185.895 72.0484C185.895 69.8394 186.467 68.0931 187.611 66.8041C188.754 65.515 190.616 64.5868 193.191 64.0139C195.766 63.441 199.22 63.1545 203.555 63.1545H205.701V61.8655C205.701 59.8218 205.249 58.3482 204.351 57.4503C203.451 56.5523 201.939 56.1006 199.812 56.1006C198.135 56.1006 196.419 56.3568 194.662 56.8663C192.904 57.3787 191.125 58.1636 189.326 59.2268L187.117 54.0128C188.181 53.2774 189.437 52.6329 190.888 52.082C192.34 51.5312 193.871 51.1015 195.488 50.793C197.102 50.4873 198.625 50.333 200.057 50.333C204.431 50.333 207.682 51.3439 209.808 53.3683C211.934 55.3928 212.997 58.53 212.997 62.7827V80.9367H205.822V76.1524C205.125 77.8298 204.024 79.1491 202.512 80.1076C200.999 81.0689 199.201 81.5481 197.116 81.5481V81.5536ZM198.711 76.2791C200.713 76.2791 202.379 75.585 203.71 74.194C205.037 72.8058 205.704 71.0458 205.704 68.9194V67.5698H203.619C199.777 67.5698 197.108 67.8672 195.615 68.4594C194.122 69.0516 193.375 70.1258 193.375 71.6793C193.375 73.0289 193.844 74.1334 194.786 74.99C195.725 75.8494 197.033 76.2791 198.711 76.2791Z" fill="white"></path><path d="M100.581 80.9423V50.9501H108.065V56.2247C109.535 52.6689 112.684 50.705 117.509 50.3359L119.84 50.1514L120.33 56.6516L115.915 57.0813C110.885 57.5716 108.37 60.1469 108.37 64.8101V80.9396H100.581V80.9423Z" fill="white"></path><path d="M144.802 52.2394C142.513 50.9724 139.814 50.3389 136.707 50.3389C133.6 50.3389 130.901 50.9724 128.612 52.2394C126.32 53.5064 124.544 55.305 123.274 57.6379C122.007 59.9681 121.374 62.728 121.374 65.9175C121.374 69.1071 122.007 71.8779 123.274 74.2274C124.541 76.5796 126.32 78.3893 128.612 79.6563C130.901 80.9233 133.6 81.5568 136.707 81.5568C139.814 81.5568 142.513 80.9233 144.802 79.6563C147.091 78.3893 148.87 76.5796 150.137 74.2274C151.404 71.8779 152.038 69.1071 152.038 65.9175C152.038 62.728 151.404 59.9681 150.137 57.6379C148.87 55.3077 147.091 53.5091 144.802 52.2394ZM142.227 73.2469C140.839 74.9022 138.996 75.7313 136.707 75.7313C134.418 75.7313 132.578 74.905 131.187 73.2469C129.796 71.5915 129.102 69.1484 129.102 65.9175C129.102 62.6867 129.796 60.205 131.187 58.5882C132.576 56.9741 134.415 56.1643 136.707 56.1643C138.999 56.1643 140.836 56.9714 142.227 58.5882C143.615 60.205 144.312 62.6453 144.312 65.9175C144.312 69.1897 143.615 71.5915 142.227 73.2469Z" fill="white"></path><path d="M165.468 80.9414L152.465 50.9492H160.621L168.961 71.9237L177.609 50.9492H185.275L172.09 80.9414H165.465H165.468Z" fill="white"></path></g><defs><clipPath id="clip0_1_7"><rect width="213" height="91.9818" fill="white"></rect></clipPath></defs></svg>